<?xml version="1.0" encoding="UTF-8" standalone="no"?>
<!-- Created with Inkscape (http://www.inkscape.org/) -->

<svg
   width="1000.0001"
   height="1000.0001"
   viewBox="0 0 264.58335 264.58335"
   version="1.1"
   id="svg1"
   inkscape:export-filename="logo_big_nocolor_bg.svg"
   inkscape:export-xdpi="96"
   inkscape:export-ydpi="96"
   xmlns:inkscape="http://www.inkscape.org/namespaces/inkscape"
   xmlns:sodipodi="http://sodipodi.sourceforge.net/DTD/sodipodi-0.dtd"
   xmlns="http://www.w3.org/2000/svg"
   xmlns:svg="http://www.w3.org/2000/svg">
  <sodipodi:namedview
     id="namedview1"
     pagecolor="#ffffff"
     bordercolor="#000000"
     borderopacity="0.25"
     inkscape:showpageshadow="2"
     inkscape:pageopacity="0.0"
     inkscape:pagecheckerboard="0"
     inkscape:deskcolor="#d1d1d1"
     inkscape:document-units="px" />
  <defs
     id="defs1" />
  <g
     inkscape:label="Layer 1"
     inkscape:groupmode="layer"
     id="layer1">
    <g
       id="g3"
       transform="matrix(1.8424919,0,0,1.8424919,-109.09576,-98.600139)">
      <path
         class="cls-1"
         d="m 189.21793,99.018577 c 0.0291,0.47096 -0.1614,0.87313 -0.5133,1.161523 -0.73818,0.6059 -1.32291,1.36261 -2.04522,1.97909 -0.51859,0.4445 -0.5715,1.10331 -0.81492,1.67216 -0.23548,0.55563 -0.43656,1.13771 -0.92604,1.524 -0.79111,0.62442 -1.67746,0.73554 -2.61938,0.37042 -0.26723,-0.10319 -0.47625,-0.12436 -0.70908,0.11112 -0.33602,0.33602 -0.74877,0.57944 -1.15094,0.83873 -1.08479,0.70115 -2.17752,1.38907 -3.24114,2.12196 -0.90223,0.62442 -1.74361,1.30704 -2.58234,2.0029 -0.2831,0.23283 -0.19314,0.32014 0.0688,0.39952 0.66411,0.20108 1.27794,0.51329 1.89707,0.81227 0.57679,0.28046 1.02658,0.66146 1.36525,1.2356 0.17991,0.30427 0.32543,0.61648 0.43921,0.93398 l -0.60325,0.20902 c -0.18521,-0.48418 -0.48684,-0.91546 -0.90753,-1.28058 -0.54504,-0.47096 -1.2647,-0.74348 -1.97379,-0.98425 -0.34396,-0.11642 -0.71966,-0.13494 -1.04246,-0.30427 -0.29368,-0.15346 -0.51858,-0.0847 -0.74612,0.11906 -0.47096,0.41804 -0.94192,0.83079 -1.42346,1.23296 -0.83079,0.68792 -1.74096,1.27 -2.65112,1.8415 -1.39171,0.87312 -0.94192,0.69585 -2.1643,-0.11113 -0.0635,-0.0423 -0.11377,-0.10054 -0.16933,-0.15081 -0.11642,-0.10054 -0.21431,-0.21431 -0.25135,-0.36777 -0.0556,-0.21696 -0.20109,-0.37042 -0.34132,-0.53446 -0.27516,-0.32543 -0.59531,-0.60589 -0.90222,-0.89958 -0.46038,-0.4445 -0.41011,-1.00542 0.12435,-1.36525 0.9234,-0.62177 1.85208,-1.22238 2.68817,-1.97115 0.6641,-0.59795 1.39964,-1.12448 2.1537,-1.61131 0.26988,-0.17198 0.37571,-0.39952 0.34925,-0.7276 -0.0661,-0.83079 -0.13758,-1.65894 -0.36247,-2.46063 l 0.58737,-0.16404 c 0.10054,0.3519 0.18785,0.70908 0.30163,1.05569 0.11112,0.34925 0.19843,0.70114 0.11906,1.07156 -0.0185,0.10054 -0.0291,0.20902 0.0661,0.27781 0.10584,0.0741 0.1958,-0.005 0.27252,-0.0661 0.42598,-0.32809 0.85196,-0.65882 1.27265,-0.99748 0.51594,-0.41804 1.08479,-0.762 1.61131,-1.15888 0.41011,-0.30956 0.8255,-0.61383 1.22502,-0.92868 0.80169,-0.63236 1.6563,-1.1774 2.5453,-1.67217 0.13758,-0.0767 0.32543,-0.15875 0.46566,-0.12436 0.56092,0.127 0.82815,-0.32543 1.19592,-0.56885 0.29633,-0.19579 0.48419,-0.40746 0.13229,-0.76994 -0.1905,-0.19579 -0.10583,-0.53446 -0.0556,-0.793753 0.0503,-0.254 0.44714,-0.30691 0.65881,-0.10583 0.11906,0.11112 0.21696,0.246063 0.31485,0.375713 0.0953,0.127 0.20638,0.14023 0.32809,0.0529 0.12435,-0.0873 0.14552,-0.23283 0.045,-0.328083 -0.23019,-0.2196 -0.1905,-0.508 -0.22225,-0.77258 -0.037,-0.33338 0.127,-0.43656 0.44979,-0.35454 0.26458,0.0661 0.49477,0.15875 0.63764,0.4101 0.0291,0.0529 0.09,0.09 0.14288,0.12171 0.12965,0.082 0.2884,0.09 0.381,-0.0212 0.0926,-0.11112 -0.045,-0.20373 -0.12171,-0.27516 -0.20902,-0.1905 -0.30956,-0.42863 -0.30162,-0.7038 0.0159,-0.42068 0.21431,-0.5371 0.59531,-0.35718 0.17992,0.0873 0.3466,0.19579 0.52917,0.28045 0.63235,0.29369 1.1377,-0.0476 1.66687,-0.29104 0.67469,-0.30956 1.36525,-0.57414 2.10873,-0.6641 1.02129,-0.12171 2.03729,0.69056 2.10344,1.67481 z m -1.27,0.53975 c 0.1852,-0.19314 0.4392,-0.35454 0.36248,-0.65087 -0.0794,-0.31486 -0.42334,-0.31221 -0.6694,-0.41805 -0.0212,-0.0106 -0.0503,-0.005 -0.0741,-0.0106 -1.10332,-0.25135 -1.98702,0.34396 -2.91571,0.76465 -0.17198,0.0794 -0.18256,0.23548 -0.1614,0.41804 0.0529,0.478893 -0.24077,0.682623 -0.67733,0.489483 -0.0688,-0.0317 -0.12965,-0.0767 -0.19579,-0.11113 -0.18786,-0.0926 -0.3175,0.0423 -0.44186,0.13229 -0.1217,0.0873 -0.0317,0.20638 0.0291,0.29898 0.12171,0.17727 0.13758,0.37836 0.12435,0.5768 -0.008,0.13758 -0.0476,0.28045 -0.21166,0.32543 -0.16405,0.0476 -0.28575,0 -0.38365,-0.14816 -0.0688,-0.10319 -0.1614,-0.19315 -0.254,-0.27782 -0.15346,-0.13758 -0.31221,-0.11112 -0.48683,-0.0185 -0.1905,0.10054 -0.127,0.23019 -0.09,0.381 0.037,0.14552 0.0582,0.29898 0.0503,0.44715 -0.0212,0.31221 -0.3175,0.4736 -0.59796,0.34131 -0.55562,-0.26194 -0.56885,-0.26723 -0.9816,0.19579 -0.12965,0.14288 -0.29634,0.22754 -0.43657,0.3519 -0.17727,0.15875 -0.19579,0.30956 -0.005,0.46831 0.4154,0.34925 0.71438,0.80169 1.02923,1.23561 0.14817,0.20108 0.26988,0.27781 0.52652,0.23018 0.34396,-0.0635 0.69586,-0.0529 1.03188,0.10584 0.28839,0.13758 0.60589,0.1561 0.88635,0.1852 0.39952,0.0106 0.71967,-0.0926 0.98954,-0.35718 0.46038,-0.45509 0.74877,-0.99748 0.85725,-1.64042 0.0767,-0.4445 0.29104,-0.84402 0.59796,-1.15623 0.70115,-0.71702 1.40494,-1.43139 2.09815,-2.159003 z m -7.27869,5.886983 c 0.14817,-0.0952 0.17462,-0.18785 0.0529,-0.33073 -0.26723,-0.3175 -0.51859,-0.64294 -0.78582,-0.96044 -0.13493,-0.16404 -0.29104,-0.3122 -0.42862,-0.4736 -0.51329,-0.60854 -0.889,-0.69056 -1.54781,-0.26458 -0.75671,0.48683 -1.52136,0.95779 -2.21721,1.54516 -1.04246,0.87577 -2.15106,1.67217 -3.20675,2.53736 -1.07686,0.88106 -2.20398,1.70127 -3.31788,2.53206 -0.89693,0.66675 -1.81239,1.30704 -2.71462,1.9685 -0.4154,0.30427 -0.42598,0.45244 -0.10054,0.8546 0.38893,0.47625 0.82814,0.90752 1.16416,1.42611 0.0794,0.12435 0.21696,0.20902 0.39952,0.22225 0.0661,-0.0212 0.15346,-0.0423 0.23284,-0.0794 0.78581,-0.37041 1.43139,-0.96308 2.14048,-1.44727 1.32291,-0.90223 2.43416,-2.07962 3.75443,-2.99773 0.5715,-0.39952 1.04775,-0.94456 1.62984,-1.32291 1.16681,-0.75671 2.30716,-1.55311 3.50837,-2.25425 0.49477,-0.2884 0.95779,-0.63765 1.43669,-0.95515 z"
         id="path280-6"
         style="stroke-width:0px" />
      <path
         class="cls-8"
         d="m 188.31041,98.907457 c 0.0767,0.29633 -0.17728,0.45773 -0.36248,0.65087 -0.69321,0.727613 -1.397,1.441983 -2.09815,2.159003 -0.30692,0.31221 -0.52123,0.71173 -0.59796,1.15623 -0.10848,0.64294 -0.39687,1.18533 -0.85725,1.64042 -0.26987,0.26458 -0.59002,0.36777 -0.98954,0.35718 -0.28046,-0.0291 -0.59796,-0.0476 -0.88635,-0.1852 -0.33602,-0.15875 -0.68792,-0.16934 -1.03188,-0.10584 -0.25664,0.0476 -0.37835,-0.0291 -0.52652,-0.23018 -0.31485,-0.43392 -0.61383,-0.88636 -1.02923,-1.23561 -0.1905,-0.15875 -0.17198,-0.30956 0.005,-0.46831 0.14023,-0.12436 0.30692,-0.20902 0.43657,-0.3519 0.41275,-0.46302 0.42598,-0.45773 0.9816,-0.19579 0.28046,0.13229 0.57679,-0.0291 0.59796,-0.34131 0.008,-0.14817 -0.0132,-0.30163 -0.0503,-0.44715 -0.037,-0.15081 -0.10054,-0.28046 0.09,-0.381 0.17462,-0.0926 0.33337,-0.11906 0.48683,0.0185 0.0926,0.0847 0.18521,0.17463 0.254,0.27782 0.0979,0.14816 0.2196,0.19579 0.38365,0.14816 0.16404,-0.045 0.20372,-0.18785 0.21166,-0.32543 0.0132,-0.19844 -0.003,-0.39953 -0.12435,-0.5768 -0.0609,-0.0926 -0.15081,-0.21166 -0.0291,-0.29898 0.12436,-0.0899 0.254,-0.224893 0.44186,-0.13229 0.0661,0.0344 0.127,0.0794 0.19579,0.11113 0.43656,0.19314 0.73025,-0.0106 0.67733,-0.489483 -0.0212,-0.18256 -0.0106,-0.33867 0.1614,-0.41804 0.92869,-0.42069 1.81239,-1.016 2.91571,-0.76465 0.0238,0.005 0.0529,0 0.0741,0.0106 0.24606,0.10584 0.59002,0.10319 0.6694,0.41805 z"
         id="path281-5"
         style="fill:#956143;stroke-width:0px" />
      <path
         class="cls-8"
         d="m 180.72216,105.11458 c 0.1217,0.14288 0.0952,0.23548 -0.0529,0.33073 -0.4789,0.3175 -0.94192,0.66675 -1.43669,0.95515 -1.20121,0.70114 -2.34156,1.49754 -3.50837,2.25425 -0.58209,0.37835 -1.05834,0.92339 -1.62984,1.32291 -1.32027,0.91811 -2.43152,2.0955 -3.75443,2.99773 -0.70909,0.48419 -1.35467,1.07686 -2.14048,1.44727 -0.0794,0.037 -0.16669,0.0582 -0.23284,0.0794 -0.18256,-0.0132 -0.32014,-0.0979 -0.39952,-0.22225 -0.33602,-0.51859 -0.77523,-0.94986 -1.16416,-1.42611 -0.32544,-0.40216 -0.31486,-0.55033 0.10054,-0.8546 0.90223,-0.66146 1.81769,-1.30175 2.71462,-1.9685 1.1139,-0.83079 2.24102,-1.651 3.31788,-2.53206 1.05569,-0.86519 2.16429,-1.66159 3.20675,-2.53736 0.69585,-0.58737 1.4605,-1.05833 2.21721,-1.54516 0.65881,-0.42598 1.03452,-0.34396 1.54781,0.26458 0.13758,0.1614 0.29369,0.30956 0.42862,0.4736 0.26723,0.3175 0.51859,0.64294 0.78582,0.96044 z"
         id="path282-7"
         style="fill:#956143;stroke-width:0px" />
      <path
         class="cls-1"
         d="m 178.70868,115.65823 c 0.15346,1.70127 -1.09802,3.34962 -2.89984,3.4925 -0.56091,0.0423 -1.11125,0.20902 -1.6801,0.16933 -1.50283,0.045 -3.00567,0.15346 -4.32065,0.96838 -1.06098,0.65352 -2.1881,1.24883 -2.89454,2.3495 -0.35189,0.54504 -0.70908,1.09008 -1.06891,1.62983 -0.73555,1.11125 -1.21444,2.3495 -1.78594,3.54277 -0.11377,0.23812 -0.25136,0.46567 -0.40481,0.67998 -0.1323,0.18256 -0.26723,0.25664 -0.45509,0.17727 -0.0529,-0.0238 -0.10848,-0.0582 -0.16933,-0.10319 -0.91017,-0.67998 -1.77271,-1.44462 -2.78871,-1.95791 -0.80698,-0.40482 -1.56369,-0.89959 -2.37596,-1.28059 -0.43921,-0.20637 -0.90487,-0.37835 -1.3335,-0.60325 -0.90752,-0.47625 -1.86266,-0.86783 -2.6961,-1.47902 -0.23284,-0.16933 -0.50536,-0.26987 -0.73025,-0.46037 -0.32279,-0.27782 -0.32809,-0.61119 0.005,-0.88371 0.1614,-0.13229 0.35454,-0.1905 0.53181,-0.28311 0.10848,-0.0582 0.21431,-0.11377 0.32279,-0.17198 0.889,-0.46831 1.78065,-0.93397 2.66171,-1.41816 0.37042,-0.20638 0.70909,-0.47096 1.06098,-0.70909 0.15875,-0.10583 0.15611,-0.27252 0.16404,-0.43656 0.037,-0.67204 -0.15081,-1.32291 -0.19314,-1.98702 -0.0741,-1.17739 -0.16669,-2.35214 -0.26723,-3.52689 -0.0397,-0.48155 -0.13494,-0.96044 -0.15081,-1.44728 l 0.762,-0.0212 c 0,0.0212 0,0.0476 0.005,0.0767 0.10583,0.79375 0.26458,1.57956 0.31485,2.38125 0.037,0.62441 0.16933,1.24354 0.22225,1.86796 0.0794,0.93662 0.0953,1.88118 0.20373,2.81252 0.0556,0.47889 -0.12435,0.76464 -0.47625,1.01335 -1.01865,0.71967 -2.16165,1.22238 -3.24115,1.83621 -0.254,0.14552 -0.73554,0.27781 -0.68791,0.48154 0.0635,0.27781 0.47096,0.44979 0.78846,0.56885 0.88106,0.33603 1.67216,0.84667 2.51089,1.26471 0.72761,0.36248 1.41288,0.80963 2.14313,1.17475 0.94721,0.47096 1.82033,1.0504 2.67229,1.68011 0.75406,0.55562 0.508,0.65881 1.02394,-0.21167 0.54768,-0.91546 0.80698,-1.97908 1.43933,-2.85221 0.13229,-0.18256 0.29104,-0.35454 0.37835,-0.55827 0.37571,-0.8546 0.99219,-1.53458 1.60338,-2.21456 0.58473,-0.64558 1.35996,-1.06363 2.04523,-1.5875 0.50271,-0.38365 1.09537,-0.67998 1.70921,-0.84667 1.22502,-0.33337 2.48443,-0.44185 3.75708,-0.39687 0.44715,0.0476 0.87048,-0.11377 1.3044,-0.15082 1.09802,-0.0926 2.14841,-1.0107 2.26218,-2.26218 0.0529,-0.56886 -0.0132,-1.10332 -0.19843,-1.58486 l 0.60325,-0.20902 c 0.17197,0.47361 0.27516,0.96309 0.32279,1.47638 z"
         id="path283-2"
         style="stroke-width:0px" />
      <path
         class="cls-14"
         d="m 177.78264,114.39087 c 0.1852,0.48154 0.25135,1.016 0.19843,1.58486 -0.11377,1.25148 -1.16416,2.16958 -2.26218,2.26218 -0.43392,0.0371 -0.85725,0.19844 -1.3044,0.15082 -1.27265,-0.045 -2.53206,0.0635 -3.75708,0.39687 -0.61384,0.16669 -1.2065,0.46302 -1.70921,0.84667 -0.68527,0.52387 -1.4605,0.94192 -2.04523,1.5875 -0.61119,0.67998 -1.22767,1.35996 -1.60338,2.21456 -0.0873,0.20373 -0.24606,0.37571 -0.37835,0.55827 -0.63235,0.87313 -0.89165,1.93675 -1.43933,2.85221 -0.51594,0.87048 -0.26988,0.76729 -1.02394,0.21167 -0.85196,-0.62971 -1.72508,-1.20915 -2.67229,-1.68011 -0.73025,-0.36512 -1.41552,-0.81227 -2.14313,-1.17475 -0.83873,-0.41804 -1.62983,-0.92868 -2.51089,-1.26471 -0.3175,-0.11906 -0.72496,-0.29104 -0.78846,-0.56885 -0.0476,-0.20373 0.43391,-0.33602 0.68791,-0.48154 1.0795,-0.61383 2.2225,-1.11654 3.24115,-1.83621 0.3519,-0.24871 0.53181,-0.53446 0.47625,-1.01335 -0.10848,-0.93134 -0.12435,-1.8759 -0.20373,-2.81252 -0.0529,-0.62442 -0.18521,-1.24355 -0.22225,-1.86796 -0.0503,-0.80169 -0.20902,-1.5875 -0.31485,-2.38125 -0.005,-0.0291 -0.005,-0.0556 -0.005,-0.0767 0,-0.14552 0.0767,-0.1905 0.23547,-0.21431 1.19857,-0.18786 2.36538,-0.55563 3.39196,-1.16682 0.85461,-0.51329 1.6219,-1.21973 1.89971,-2.28071 0.0714,-0.27516 0.26723,-0.50535 0.36777,-0.77787 0.34925,-0.92604 0.64294,-1.8706 1.04246,-2.77813 0.39688,-0.89693 1.07156,-1.56368 1.95792,-1.87325 0.60854,-0.21166 1.34673,-0.23283 1.98437,0.0847 0.56356,0.28046 0.88106,0.79375 1.10067,1.37319 0.0688,0.18256 0.12964,0.36512 0.17992,0.55033 0.22489,0.80169 0.29633,1.62984 0.36247,2.46063 0.0265,0.32808 -0.0794,0.55562 -0.34925,0.7276 -0.75406,0.48683 -1.4896,1.01336 -2.1537,1.61131 -0.83609,0.74877 -1.76477,1.34938 -2.68817,1.97115 -0.53446,0.35983 -0.58473,0.92075 -0.12435,1.36525 0.30691,0.29369 0.62706,0.57415 0.90222,0.89958 0.14023,0.16404 0.28575,0.3175 0.34132,0.53446 0.037,0.15346 0.13493,0.26723 0.25135,0.36777 0.0556,0.0503 0.10583,0.10848 0.16933,0.15081 1.22238,0.80698 0.77259,0.98425 2.1643,0.11113 0.91016,-0.5715 1.82033,-1.15358 2.65112,-1.8415 0.48154,-0.40217 0.9525,-0.81492 1.42346,-1.23296 0.22754,-0.20373 0.45244,-0.27252 0.74612,-0.11906 0.3228,0.16933 0.6985,0.18785 1.04246,0.30427 0.70909,0.24077 1.42875,0.51329 1.97379,0.98425 0.42069,0.36512 0.72232,0.7964 0.90753,1.28058 z m -11.72634,2.55059 c 0.0926,-0.29369 -0.0132,-0.508 -0.30691,-0.635 -0.23019,-0.10055 -0.4498,-0.22225 -0.62442,-0.4154 -0.48419,-0.53446 -0.94986,-1.08479 -1.42081,-1.62983 -0.38894,-0.4445 -0.81492,-0.58738 -1.24619,-0.57415 -0.49742,-0.005 -0.87577,0.0794 -1.25942,0.15346 -0.39423,0.0741 -0.55562,0.27252 -0.35983,0.61383 0.26723,0.47096 0.44714,1.00807 0.90752,1.35996 0.3466,0.26458 0.68792,0.54504 0.98954,0.86254 0.70908,0.74613 1.34144,1.55311 1.82827,2.46857 0.0953,0.17991 0.23019,0.39952 0.43656,0.11112 0.50271,-0.70115 0.79905,-1.50019 1.05569,-2.3151 z"
         id="path284"
         style="fill:#f20606;stroke-width:0px" />
      <path
         class="cls-1"
         d="m 174.91191,127.08823 c 0.27252,0.27516 0.29368,0.51593 0.0106,0.76729 -0.32015,0.28575 -0.37306,0.69056 -0.46567,1.04775 -0.1561,0.58737 -0.35454,1.17475 -0.36512,1.79652 -0.003,0.23019 -0.12171,0.43392 -0.19315,0.64823 -0.30956,0.9525 -0.61119,1.90764 -0.94456,2.85221 -0.20108,0.57679 -0.45244,1.13506 -0.69056,1.69862 -0.0847,0.20109 -0.26194,0.33867 -0.42069,0.47625 -0.1561,0.13494 -0.40217,-0.0265 -0.46567,-0.31221 -0.045,-0.20902 -0.0635,-0.42333 -0.0794,-0.635 -0.0185,-0.26458 -0.082,-0.54239 -0.0185,-0.78845 0.18521,-0.71438 -0.10584,-1.41817 -0.003,-2.1299 0.0238,-0.16669 0.037,-0.38894 -0.17198,-0.45244 -0.18785,-0.0582 -0.33337,0.0212 -0.42333,0.24342 -0.0476,0.11642 -0.20902,0.20637 -0.30163,0.32544 -0.17462,0.23018 -0.50535,0.29104 -0.67204,0.20637 -0.16139,-0.082 -0.37571,-0.37835 -0.30691,-0.62442 0.10318,-0.36512 -0.0132,-0.68791 -0.0529,-1.03187 -0.082,-0.7329 -0.12436,-1.46844 -0.17463,-2.20398 -0.0661,-0.94456 -0.045,-1.89706 -0.28045,-2.8231 -0.0397,-0.15611 0.0264,-0.31221 0.0582,-0.47096 0.20902,-1.04246 1.13507,-1.44992 1.8124,-2.06111 0.51858,-0.46566 1.06627,-0.9181 1.7145,-1.20914 0.42333,-0.1905 0.45773,-0.0767 0.70908,0.29104 0.34132,0.50535 0.14288,1.02658 0.24871,1.66687 -0.09,0.79111 -0.19314,1.71186 -0.29633,2.62996 -0.0106,0.0952 -0.0953,0.21432 0,0.28311 0.0953,0.0714 0.18256,-0.037 0.26723,-0.0847 0.14023,-0.0794 0.2831,-0.1614 0.42598,-0.24342 0.57943,-0.33073 0.62177,-0.32543 1.0795,0.13759 z m -1.10596,1.15623 c 0.0317,-0.0688 0.0529,-0.15346 -0.0238,-0.20638 -0.0688,-0.0503 -0.14553,-0.005 -0.21167,0.0265 -0.15875,0.0767 -0.32279,0.14552 -0.47096,0.23812 -0.25929,0.15875 -0.50535,0.0529 -0.70644,-0.0714 -0.19843,-0.12436 -0.11641,-0.35984 -0.0688,-0.55827 0.0291,-0.10848 0.0741,-0.21961 0.0688,-0.33073 -0.037,-1.00807 0.37836,-1.98967 0.18257,-3.01096 -0.0476,-0.26194 -0.005,-0.5424 -0.005,-0.89429 -0.52123,0.47625 -0.94985,0.94456 -1.46579,1.32027 -0.4445,0.32279 -0.6985,0.83873 -1.16681,1.14829 -0.22754,0.15081 -0.34131,0.40746 -0.2884,0.69585 0.23813,1.34409 0.18257,2.71992 0.4445,4.06136 0.0423,0.21431 -0.0661,0.53446 0.11377,0.62706 0.20638,0.10319 0.43128,-0.14817 0.6403,-0.25135 0.54504,-0.26723 0.8837,-0.12171 0.99748,0.47889 0.11112,0.59267 0.0873,1.19856 0.127,1.79917 0.0185,0.27517 -0.0371,0.56621 0.1561,0.8255 0.18785,-0.72761 0.45244,-1.4314 0.50271,-2.18017 0.0212,-0.31221 0.10583,-0.59796 0.23283,-0.86783 0.43392,-0.91281 0.53711,-1.92881 0.94192,-2.84956 z"
         id="path285-2"
         style="stroke-width:0px" />
      <path
         class="cls-2"
         d="m 173.78214,128.03808 c 0.0767,0.0529 0.0556,0.13758 0.0238,0.20638 -0.40481,0.92075 -0.508,1.93675 -0.94192,2.84956 -0.127,0.26987 -0.21167,0.55562 -0.23283,0.86783 -0.0503,0.74877 -0.31486,1.45256 -0.50271,2.18017 -0.19315,-0.25929 -0.13758,-0.55033 -0.1561,-0.8255 -0.0397,-0.60061 -0.0159,-1.2065 -0.127,-1.79917 -0.11378,-0.6006 -0.45244,-0.74612 -0.99748,-0.47889 -0.20902,0.10318 -0.43392,0.35454 -0.6403,0.25135 -0.17991,-0.0926 -0.0714,-0.41275 -0.11377,-0.62706 -0.26193,-1.34144 -0.20637,-2.71727 -0.4445,-4.06136 -0.0529,-0.28839 0.0609,-0.54504 0.2884,-0.69585 0.46831,-0.30956 0.72231,-0.8255 1.16681,-1.14829 0.51594,-0.37571 0.94456,-0.84402 1.46579,-1.32027 0,0.35189 -0.0423,0.63235 0.005,0.89429 0.19579,1.02129 -0.21961,2.00289 -0.18257,3.01096 0.005,0.11112 -0.0397,0.22225 -0.0688,0.33073 -0.0476,0.19843 -0.12964,0.43391 0.0688,0.55827 0.20109,0.12435 0.44715,0.23018 0.70644,0.0714 0.14817,-0.0926 0.31221,-0.16139 0.47096,-0.23812 0.0661,-0.0317 0.14287,-0.0767 0.21167,-0.0265 z"
         id="path286"
         style="fill:#f2e70f;stroke-width:0px" />
      <path
         class="cls-1"
         d="m 170.71561,104.52456 c 0.0132,0.0423 0.0238,0.0847 0.0344,0.127 l -0.58737,0.16404 c -0.0503,-0.18521 -0.11113,-0.36777 -0.17992,-0.55033 -0.21961,-0.57944 -0.53711,-1.09273 -1.10067,-1.37319 -0.63764,-0.3175 -1.37583,-0.29633 -1.98437,-0.0847 -0.88636,0.30957 -1.56104,0.97632 -1.95792,1.87325 -0.39952,0.90753 -0.69321,1.85209 -1.04246,2.77813 -0.10054,0.27252 -0.29633,0.50271 -0.36777,0.77787 -0.27781,1.06098 -1.0451,1.76742 -1.89971,2.28071 -1.02658,0.61119 -2.19339,0.97896 -3.39196,1.16682 -0.15875,0.0238 -0.23547,0.0688 -0.23547,0.21431 l -0.762,0.0212 c -0.005,-0.0635 -0.005,-0.12964 -0.005,-0.19579 0.008,-0.64029 0.0873,-0.77523 0.71438,-0.89164 0.90752,-0.17198 1.77535,-0.45773 2.62731,-0.80169 1.04246,-0.42069 1.77271,-1.20121 2.21721,-2.19869 0.42069,-0.9525 0.75142,-1.94469 1.1139,-2.921 0.26193,-0.70644 0.56091,-1.37583 1.1086,-1.88912 0.4789,-0.44715 0.9181,-0.97896 1.6219,-1.10596 0.0873,-0.0159 0.17197,-0.0635 0.25664,-0.0582 0.66146,0.037 1.32821,0 1.97644,0.19579 0.16139,0.0503 0.29104,0.127 0.42069,0.23548 0.71173,0.59531 1.16681,1.33879 1.42345,2.23573 z"
         id="path287-0"
         style="stroke-width:0px" />
      <path
         class="cls-1"
         d="m 168.01422,131.99625 c 0.31485,0.16404 0.3466,0.44185 0.22754,0.70644 -0.11377,0.24606 -0.23548,0.49477 -0.41275,0.71437 -1.32821,1.63777 -2.87337,3.06917 -4.37356,4.54025 -0.26723,0.26458 -0.57944,0.48419 -0.85461,0.73819 -1.24618,1.14564 -2.48708,2.29658 -3.72533,3.44752 -0.41804,0.38629 -0.90752,0.381 -1.30704,-0.0291 -0.58473,-0.60589 -1.08215,-1.28322 -1.60867,-1.93675 -0.33866,-0.41804 -0.74083,-0.7911 -1.0451,-1.23031 -0.5715,-0.82814 -1.26736,-1.5531 -1.88384,-2.34421 -0.55827,-0.71437 -1.18268,-1.3917 -1.7436,-2.11137 -0.6694,-0.8599 -1.39171,-1.67481 -2.10079,-2.50031 -0.12436,-0.14552 -0.254,-0.27252 -0.42598,-0.35455 -0.12965,0.24342 -0.11377,0.49478 -0.082,0.74348 0.17198,1.34409 0.23283,2.69611 0.32279,4.04548 0.0503,0.72232 0.0741,1.43934 0.23813,2.16165 0.15345,0.68527 0.0979,1.41552 0.14022,2.12725 0.008,0.13758 -0.0794,0.19844 -0.17462,0.26723 -0.32015,0.23548 -0.64558,0.46302 -0.95515,0.71437 -0.99748,0.80963 -2.02141,1.5875 -2.98714,2.43682 -0.72231,0.635 -1.49754,1.21972 -2.30717,1.75154 -0.25135,0.16139 -0.45773,0.38893 -0.69321,0.57679 -0.38364,0.30162 -0.88635,0.14023 -1.00277,-0.33073 -0.0397,-0.1614 -0.0979,-0.29898 -0.21166,-0.42333 -0.0714,-0.0794 -0.12436,-0.18786 -0.11642,-0.30957 0.0661,-0.92604 -0.0661,-1.83885 -0.12965,-2.75695 -0.0317,-0.47625 -0.0159,-0.9525 -0.0317,-1.42875 -0.0635,-1.89707 -0.22754,-3.7809 -0.55562,-5.6515 -0.0556,-0.32015 0.0873,-0.62707 0.0185,-0.93663 -0.35454,-1.61925 -0.48419,-3.2729 -0.70908,-4.91331 -0.18786,-1.36261 -0.29898,-2.73579 -0.49213,-4.09575 -0.14552,-1.04246 -0.35983,-2.07169 -0.55562,-3.10621 -0.0847,-0.42863 -0.12436,-0.86519 -0.19844,-1.29646 -0.0926,-0.54504 -0.32544,-1.05569 -0.36248,-1.61131 -0.0318,-0.43392 -0.12436,-0.86254 -0.15875,-1.29646 -0.0529,-0.62442 -0.13758,-1.24883 -0.27252,-1.85737 -0.18521,-0.84667 -0.20638,-1.71186 -0.39159,-2.55588 -0.254,-1.15094 -0.46302,-2.31246 -0.71437,-3.4634 -0.11377,-0.51593 -0.0741,-0.96308 0.2249,-1.43139 0.80962,-1.26471 1.8415,-2.34686 2.78341,-3.50044 0.36513,-0.44979 0.75936,-0.87312 1.12448,-1.32027 0.14817,-0.18256 0.29369,-0.23548 0.52123,-0.17462 0.69056,0.1905 1.37848,0.39422 2.07963,0.52387 0.762,0.14288 1.54516,0.17463 2.30981,0.31221 1.20121,0.21167 2.34421,0.63764 3.48985,1.05039 1.24354,0.44715 2.52677,0.75407 3.79148,1.12448 0.86519,0.254 1.73038,0.508 2.59027,0.78052 0.28046,0.09 0.49477,0.19315 0.36513,0.62178 -0.0953,0.3175 0.0397,0.71702 0.11112,1.07156 0.15611,0.79639 0.42069,1.57427 0.37306,2.41035 -0.0159,0.24606 0.16405,0.49742 0.1958,0.75406 0.0953,0.80963 0.0741,1.64042 0.26723,2.42094 0.17727,0.71438 0.13493,1.44198 0.28575,2.15106 0.082,0.37836 0.14022,0.78582 0.14816,1.18534 0.005,0.35983 -0.16669,0.63764 -0.48683,0.78846 -0.74877,0.35454 -1.45786,0.76993 -2.10873,1.28587 -0.23283,0.18256 -0.48419,0.33073 -0.74348,0.46302 -0.43392,0.21696 -0.89165,0.38894 -1.32556,0.6059 -0.43392,0.21696 -0.80963,0.45244 -1.21179,0.68262 -0.23813,0.13494 -0.11113,0.26459 0.0291,0.37042 0.30956,0.24342 0.68527,0.37042 1.03188,0.54769 1.04245,0.52916 2.03993,1.13506 3.02947,1.75418 1.87325,1.17211 3.79678,2.25425 5.75205,3.28613 0.67204,0.35454 1.35202,0.69321 2.032,1.03187 0.67998,0.33867 1.35731,0.67469 2.032,1.02394 0.73554,0.37836 1.41552,0.8599 2.1246,1.28852 0.26723,0.1614 0.5424,0.31486 0.82021,0.46038 z m -1.97115,1.11389 c 0.18257,-0.1905 0.16404,-0.29898 -0.0556,-0.43127 -0.5715,-0.34131 -1.14035,-0.68527 -1.69862,-1.05039 -0.90223,-0.59267 -1.84415,-1.11919 -2.76755,-1.66952 -0.87048,-0.51859 -1.73037,-1.05305 -2.57704,-1.60338 -0.8255,-0.5371 -1.70127,-0.98954 -2.52677,-1.53194 -0.7911,-0.51858 -1.63512,-0.97366 -2.45533,-1.45785 -0.77788,-0.45773 -1.56104,-0.90223 -2.34686,-1.34144 -0.7567,-0.42333 -1.50283,-0.86254 -2.29129,-1.22237 -0.29104,-0.13229 -0.22754,-0.39688 -0.22489,-0.62177 0,-0.15082 0.0688,-0.29634 0.254,-0.33073 1.05568,-0.18786 1.85737,-0.87048 2.69875,-1.44198 1.18798,-0.80963 2.24366,-1.80446 3.51366,-2.50296 0.0873,-0.0476 0.13229,-0.10583 0.11907,-0.20638 -0.0291,-0.26193 -0.0476,-0.52652 -0.09,-0.78581 -0.20109,-1.27529 -0.39688,-2.55058 -0.62442,-3.82058 -0.24342,-1.34938 -0.2884,-2.73315 -0.65352,-4.06665 -0.0609,-0.2196 -0.13494,-0.34396 -0.37306,-0.39423 -1.42346,-0.30162 -2.794,-0.80433 -4.22275,-1.08743 -0.64029,-0.12436 -1.27265,-0.28575 -1.90765,-0.43921 -1.06098,-0.254 -2.13519,-0.43921 -3.21469,-0.60325 -0.53181,-0.082 -1.07156,-0.12436 -1.59808,-0.2249 -0.50271,-0.0952 -1.016,-0.11112 -1.50548,-0.30691 -0.53446,-0.21432 -0.93398,0.0582 -1.26206,0.47095 -0.81227,1.02923 -1.61131,2.06905 -2.45004,3.07975 -0.26194,0.31486 -0.31221,0.64823 -0.27517,1.00807 0.0714,0.74877 0.18521,1.49225 0.38629,2.21456 0.0609,0.22225 -0.0503,0.44979 0.082,0.66146 0.25929,0.41539 0.2884,0.90487 0.32809,1.36789 0.0423,0.52388 0.19843,1.03188 0.16668,1.56898 -0.0106,0.16404 0.0238,0.43656 0.17727,0.59531 0.4445,0.46303 0.3175,1.09009 0.40217,1.6219 0.17727,1.14035 0.35983,2.27806 0.635,3.40254 0.15611,0.64029 0.39688,1.26206 0.2249,1.94204 -0.0238,0.0979 0.0344,0.21961 0.0714,0.32544 0.0688,0.18786 0.16669,0.381 0.1323,0.58208 -0.0741,0.46303 0.2196,0.85725 0.19843,1.33615 -0.0132,0.31221 0.12436,0.7276 0.1614,1.06892 0.0741,0.68262 0.29104,1.30704 0.46831,1.95262 0.0529,0.1905 0.0741,0.39159 0.0265,0.59531 -0.0688,0.29105 0.0159,0.57415 0.0767,0.85725 0.0344,0.15611 0.20108,0.254 0.20373,0.43392 0.008,0.61119 0.21167,1.21179 0.14552,1.82298 -0.0344,0.32808 0.0238,0.61913 0.15081,0.90752 0.10584,0.24606 0.12965,0.50271 0.16934,0.76465 0.0741,0.48683 -0.0291,1.00277 0.2196,1.46843 0.037,0.0688 0.003,0.17463 0.0132,0.2593 0.0873,0.64029 0.1905,1.27529 0.25929,1.91558 0.0608,0.56092 0.32808,1.12977 -0.0159,1.69069 -0.0291,0.0476 -0.0423,0.13758 -0.0159,0.18256 0.26988,0.49477 0.12965,1.03187 0.15081,1.55046 0.0291,0.65087 0.0344,1.30175 0.0397,1.95262 0.003,0.12171 -0.0714,0.254 0.0661,0.34132 0.12435,0.0741 0.20902,-0.0397 0.30956,-0.082 0.11906,-0.0476 0.22489,-0.10847 0.30956,-0.20902 0.21431,-0.25135 0.49213,-0.41275 0.76729,-0.59266 0.69057,-0.44979 1.37319,-0.91282 1.98702,-1.47373 0.57415,-0.52123 1.10861,-1.09538 1.76477,-1.52136 0.25136,-0.16404 0.31486,-0.35454 0.27782,-0.63235 -0.0503,-0.37306 -0.11113,-0.74877 -0.10584,-1.12183 0.0238,-1.44463 -0.13493,-2.87867 -0.19843,-4.31536 -0.0238,-0.58737 -0.13494,-1.16946 -0.21696,-1.75154 -0.0714,-0.53181 -0.21696,-1.05304 -0.18786,-1.59808 0,-0.1614 -0.0185,-0.32809 0.003,-0.48948 0.0556,-0.42598 0.29369,-0.76729 0.64823,-0.96838 0.30427,-0.16933 0.64294,-0.0106 0.84931,0.22754 0.30692,0.34925 0.67733,0.635 0.97896,0.97896 0.64558,0.7329 1.37848,1.397 1.82298,2.28865 0.0397,0.0847 0.13229,0.14817 0.21167,0.20902 0.635,0.48683 1.13241,1.09802 1.56633,1.76212 0.18521,0.28046 0.30162,0.64823 0.55298,0.83873 0.65616,0.50007 1.14829,1.15094 1.71185,1.73038 0.75936,0.77787 1.23031,1.80181 2.06111,2.52942 0.14287,0.12435 0.30427,0.29368 0.3175,0.5027 0.0185,0.33602 0.30956,0.28575 0.49212,0.37042 0.17992,0.082 0.21167,-0.127 0.30427,-0.21431 0.127,-0.12171 0.24606,-0.25136 0.381,-0.35984 0.45773,-0.37306 0.97102,-0.69056 1.37319,-1.11125 0.83079,-0.87047 1.8124,-1.56633 2.59821,-2.50031 0.95779,-1.14035 1.9976,-2.21721 3.03212,-3.29671 z"
         id="path288-6"
         style="stroke-width:0px" />
      <path
         class="cls-9"
         d="m 165.98751,132.67887 c 0.2196,0.13229 0.23813,0.24077 0.0556,0.43127 -1.03452,1.0795 -2.07433,2.15636 -3.03212,3.29671 -0.78581,0.93398 -1.76742,1.62984 -2.59821,2.50031 -0.40217,0.42069 -0.91546,0.73819 -1.37319,1.11125 -0.13494,0.10848 -0.254,0.23813 -0.381,0.35984 -0.0926,0.0873 -0.12435,0.29633 -0.30427,0.21431 -0.18256,-0.0847 -0.4736,-0.0344 -0.49212,-0.37042 -0.0132,-0.20902 -0.17463,-0.37835 -0.3175,-0.5027 -0.8308,-0.72761 -1.30175,-1.75155 -2.06111,-2.52942 -0.56356,-0.57944 -1.05569,-1.23031 -1.71185,-1.73038 -0.25136,-0.1905 -0.36777,-0.55827 -0.55298,-0.83873 -0.43392,-0.6641 -0.93133,-1.27529 -1.56633,-1.76212 -0.0794,-0.0608 -0.17198,-0.12435 -0.21167,-0.20902 -0.4445,-0.89165 -1.1774,-1.55575 -1.82298,-2.28865 -0.30163,-0.34396 -0.67204,-0.62971 -0.97896,-0.97896 -0.20637,-0.23812 -0.54504,-0.39687 -0.84931,-0.22754 -0.35454,0.20109 -0.59267,0.5424 -0.64823,0.96838 -0.0212,0.16139 -0.003,0.32808 -0.003,0.48948 -0.0291,0.54504 0.11642,1.06627 0.18786,1.59808 0.082,0.58208 0.19314,1.16417 0.21696,1.75154 0.0635,1.43669 0.22225,2.87073 0.19843,4.31536 -0.005,0.37306 0.0556,0.74877 0.10584,1.12183 0.037,0.27781 -0.0265,0.46831 -0.27782,0.63235 -0.65616,0.42598 -1.19062,1.00013 -1.76477,1.52136 -0.61383,0.56091 -1.29645,1.02394 -1.98702,1.47373 -0.27516,0.17991 -0.55298,0.34131 -0.76729,0.59266 -0.0847,0.10055 -0.1905,0.1614 -0.30956,0.20902 -0.10054,0.0423 -0.18521,0.15611 -0.30956,0.082 -0.13759,-0.0873 -0.0635,-0.21961 -0.0661,-0.34132 -0.005,-0.65087 -0.0106,-1.30175 -0.0397,-1.95262 -0.0212,-0.51859 0.11907,-1.05569 -0.15081,-1.55046 -0.0265,-0.045 -0.0132,-0.13494 0.0159,-0.18256 0.34395,-0.56092 0.0767,-1.12977 0.0159,-1.69069 -0.0688,-0.64029 -0.17198,-1.27529 -0.25929,-1.91558 -0.0106,-0.0847 0.0238,-0.1905 -0.0132,-0.2593 -0.24871,-0.46566 -0.14552,-0.9816 -0.2196,-1.46843 -0.0397,-0.26194 -0.0635,-0.51859 -0.16934,-0.76465 -0.127,-0.28839 -0.18521,-0.57944 -0.15081,-0.90752 0.0661,-0.61119 -0.13758,-1.21179 -0.14552,-1.82298 -0.003,-0.17992 -0.16933,-0.27781 -0.20373,-0.43392 -0.0609,-0.2831 -0.14552,-0.5662 -0.0767,-0.85725 0.0476,-0.20372 0.0265,-0.40481 -0.0265,-0.59531 -0.17727,-0.64558 -0.39423,-1.27 -0.46831,-1.95262 -0.037,-0.34132 -0.17463,-0.75671 -0.1614,-1.06892 0.0212,-0.4789 -0.27252,-0.87312 -0.19843,-1.33615 0.0344,-0.20108 -0.0635,-0.39422 -0.1323,-0.58208 -0.037,-0.10583 -0.0952,-0.22754 -0.0714,-0.32544 0.17198,-0.67998 -0.0688,-1.30175 -0.2249,-1.94204 -0.27517,-1.12448 -0.45773,-2.26219 -0.635,-3.40254 -0.0847,-0.53181 0.0423,-1.15887 -0.40217,-1.6219 -0.15345,-0.15875 -0.18785,-0.43127 -0.17727,-0.59531 0.0317,-0.5371 -0.12435,-1.0451 -0.16668,-1.56898 -0.0397,-0.46302 -0.0688,-0.9525 -0.32809,-1.36789 -0.13229,-0.21167 -0.0212,-0.43921 -0.082,-0.66146 -0.20108,-0.72231 -0.31485,-1.46579 -0.38629,-2.21456 -0.037,-0.35984 0.0132,-0.69321 0.27517,-1.00807 0.83873,-1.0107 1.63777,-2.05052 2.45004,-3.07975 0.32808,-0.41275 0.7276,-0.68527 1.26206,-0.47095 0.48948,0.19579 1.00277,0.21166 1.50548,0.30691 0.52652,0.10054 1.06627,0.14288 1.59808,0.2249 1.0795,0.16404 2.15371,0.34925 3.21469,0.60325 0.635,0.15346 1.26736,0.31485 1.90765,0.43921 1.42875,0.2831 2.79929,0.78581 4.22275,1.08743 0.23812,0.0503 0.31221,0.17463 0.37306,0.39423 0.36512,1.3335 0.4101,2.71727 0.65352,4.06665 0.22754,1.27 0.42333,2.54529 0.62442,3.82058 0.0423,0.25929 0.0609,0.52388 0.09,0.78581 0.0132,0.10055 -0.0317,0.15875 -0.11907,0.20638 -1.27,0.6985 -2.32568,1.69333 -3.51366,2.50296 -0.84138,0.5715 -1.64307,1.25412 -2.69875,1.44198 -0.18521,0.0344 -0.254,0.17991 -0.254,0.33073 -0.003,0.22489 -0.0661,0.48948 0.22489,0.62177 0.78846,0.35983 1.53459,0.79904 2.29129,1.22237 0.78582,0.43921 1.56898,0.88371 2.34686,1.34144 0.82021,0.48419 1.66423,0.93927 2.45533,1.45785 0.8255,0.5424 1.70127,0.99484 2.52677,1.53194 0.84667,0.55033 1.70656,1.08479 2.57704,1.60338 0.9234,0.55033 1.86532,1.07685 2.76755,1.66952 0.55827,0.36512 1.12712,0.70908 1.69862,1.05039 z m -21.00262,-24.0321 c 0.19314,-0.1614 0.32014,-0.34925 0.23547,-0.62442 -0.0847,-0.26987 -0.25929,-0.38629 -0.5371,-0.45244 -0.75406,-0.17991 -1.52665,-0.254 -2.27542,-0.48418 -0.39158,-0.11907 -0.78052,-0.27252 -1.18004,-0.33338 -0.21696,0.0106 -0.35189,0.12965 -0.48419,0.27517 -0.80962,0.87842 -1.50547,1.84679 -2.21985,2.79929 -0.29104,0.38894 -0.19579,0.889 -0.4154,1.29381 -0.0185,0.0291 0.0317,0.0926 0.0371,0.14023 0.0529,0.59267 0.37835,1.10596 0.44979,1.70392 0.0847,0.71702 0.26723,1.42346 0.51858,2.10873 0.11642,0.31485 0.2249,0.66675 0.19579,0.98954 -0.0529,0.62442 0.16934,1.18269 0.26723,1.77006 0.15346,0.91281 0.52388,1.77536 0.64823,2.68288 0.18256,1.34143 0.40746,2.67229 0.69321,3.99521 0.16404,0.76729 0.24342,1.55045 0.42333,2.31775 0.1614,0.67733 0.26194,1.37054 0.39423,2.05581 0.10319,0.5371 0.127,1.09008 0.20373,1.63248 0.0556,0.40481 0.32279,0.51064 0.70379,0.35983 0.39159,-0.15346 0.62971,-0.49212 0.96838,-0.69321 0.30691,-0.18521 0.34131,-0.43391 0.34396,-0.73025 0.005,-0.68791 -0.15611,-1.35996 -0.1958,-2.04258 -0.045,-0.75406 -0.21166,-1.48961 -0.30427,-2.23573 -0.11377,-0.89165 -0.037,-1.80181 -0.24077,-2.68817 -0.0423,-0.18256 -0.13493,-0.37306 -0.11377,-0.54768 0.0953,-0.78317 -0.21166,-1.50813 -0.32808,-2.25161 -0.20373,-1.28852 -0.42069,-2.5691 -0.51594,-3.87085 -0.0265,-0.35984 -0.0238,-0.72496 -0.0847,-1.0795 -0.11112,-0.61913 -0.15875,-1.2409 -0.1561,-1.86796 0.003,-0.25665 -0.0159,-0.49742 -0.14817,-0.72761 -0.13493,-0.23018 -0.0952,-0.4445 0.0661,-0.6641 0.37835,-0.51329 0.9234,-0.8599 1.32556,-1.35996 0.47361,-0.59002 1.143,-0.98689 1.72509,-1.47108 z"
         id="path289-0"
         style="fill:#43a6c3;stroke-width:0px" />
      <path
         class="cls-1"
         d="m 165.74939,116.30646 c 0.29368,0.127 0.39952,0.34131 0.30691,0.635 -0.25664,0.81491 -0.55298,1.61395 -1.05569,2.3151 -0.20637,0.2884 -0.34131,0.0688 -0.43656,-0.11112 -0.48683,-0.91546 -1.11919,-1.72244 -1.82827,-2.46857 -0.30162,-0.3175 -0.64294,-0.59796 -0.98954,-0.86254 -0.46038,-0.35189 -0.64029,-0.889 -0.90752,-1.35996 -0.19579,-0.34131 -0.0344,-0.53975 0.35983,-0.61383 0.38365,-0.0741 0.762,-0.15875 1.25942,-0.15346 0.43127,-0.0132 0.85725,0.12965 1.24619,0.57415 0.47095,0.54504 0.93662,1.09537 1.42081,1.62983 0.17462,0.19315 0.39423,0.31485 0.62442,0.4154 z m -0.56357,1.10066 c 0.0582,-0.16933 0.0212,-0.28839 -0.14552,-0.37306 -0.46566,-0.23548 -0.76994,-0.64558 -1.0451,-1.06098 -0.30956,-0.46831 -0.75406,-0.80169 -1.11654,-1.21444 -0.1323,-0.15081 -0.32015,-0.19579 -0.48948,-0.14816 -0.12965,0.005 -0.23284,0.003 -0.33073,0.0159 -0.14552,0.0212 -0.16669,0.10584 -0.0741,0.20638 0.1905,0.21696 0.36513,0.45508 0.58738,0.63235 0.49742,0.40217 0.93927,0.85196 1.35202,1.33879 0.27781,0.32279 0.42863,0.74084 0.77523,1.01071 0.045,0.037 0.0741,0.14288 0.13229,0.10583 0.18521,-0.11641 0.28575,-0.30427 0.35454,-0.51329 z"
         id="path290-1"
         style="stroke-width:0px" />
      <path
         class="cls-1"
         d="m 145.33345,108.02235 c 0.0847,0.27517 -0.0423,0.46302 -0.23548,0.62442 -0.58208,0.48419 -1.25148,0.88106 -1.72508,1.47108 -0.40217,0.50006 -0.94721,0.84667 -1.32557,1.35996 -0.16139,0.2196 -0.20108,0.43392 -0.0661,0.6641 0.13229,0.23019 0.15081,0.47096 0.14816,0.72761 0,0.62706 0.045,1.24883 0.15611,1.86796 0.0608,0.35454 0.0582,0.71966 0.0847,1.0795 0.0953,1.30175 0.31221,2.58233 0.51594,3.87085 0.11642,0.74348 0.42334,1.46844 0.32809,2.25161 -0.0212,0.17462 0.0714,0.36512 0.11377,0.54768 0.20373,0.88636 0.127,1.79652 0.24077,2.68817 0.0926,0.74612 0.25929,1.48167 0.30427,2.23573 0.0397,0.68262 0.20108,1.35467 0.19579,2.04258 -0.003,0.29634 -0.037,0.54504 -0.34396,0.73025 -0.33867,0.20109 -0.57679,0.53975 -0.96837,0.69321 -0.381,0.15081 -0.64823,0.045 -0.7038,-0.35983 -0.0767,-0.5424 -0.10054,-1.09538 -0.20372,-1.63248 -0.1323,-0.68527 -0.23284,-1.37848 -0.39423,-2.05581 -0.17992,-0.7673 -0.2593,-1.55046 -0.42334,-2.31775 -0.28575,-1.32292 -0.51064,-2.65378 -0.69321,-3.99521 -0.12435,-0.90752 -0.49477,-1.77007 -0.64822,-2.68288 -0.0979,-0.58737 -0.32015,-1.14564 -0.26723,-1.77006 0.0291,-0.32279 -0.0794,-0.67469 -0.1958,-0.98954 -0.25135,-0.68527 -0.43391,-1.39171 -0.51858,-2.10873 -0.0714,-0.59796 -0.39687,-1.11125 -0.44979,-1.70392 -0.005,-0.0476 -0.0556,-0.11112 -0.037,-0.14023 0.2196,-0.40481 0.12435,-0.90487 0.41539,-1.29381 0.71438,-0.9525 1.41023,-1.92087 2.21986,-2.79929 0.13229,-0.14552 0.26723,-0.26458 0.48419,-0.27517 0.39952,0.0609 0.78845,0.21431 1.18004,0.33338 0.74877,0.23018 1.52135,0.30427 2.27541,0.48418 0.27782,0.0661 0.45244,0.18257 0.53711,0.45244 z m -1.51606,0.38365 c 0.0556,-0.045 0.127,-0.0952 0.10847,-0.18256 -0.0106,-0.0582 -0.0688,-0.0741 -0.11906,-0.0688 -0.58208,0.0661 -1.0451,-0.31485 -1.59014,-0.41275 -0.51065,-0.0873 -0.61648,-0.0899 -0.94721,0.33073 -0.51329,0.64823 -1.00013,1.31763 -1.50548,1.97115 -0.5424,0.6985 -0.67733,1.39964 -0.25929,2.19075 0.0291,0.0529 0.0556,0.11906 0.0529,0.17727 -0.0238,0.61383 0.17463,1.20915 0.1323,1.82562 -0.005,0.0529 0.0318,0.11907 0.0661,0.16669 0.41275,0.6059 0.44186,1.32292 0.52917,2.00554 0.0741,0.56621 -0.037,1.15888 0.24606,1.69334 0.21431,0.4101 0.15081,0.87577 0.27517,1.31233 0.10848,0.38365 0.37571,0.72231 0.39952,1.10331 0.0423,0.68792 0.17727,1.35996 0.24606,2.04259 0.0265,0.27252 0.20902,0.47095 0.22225,0.74348 0.0556,0.98954 0.24342,1.96056 0.41804,2.93158 0.13494,0.75671 0.24342,1.524 0.53446,2.24631 0.0953,0.23283 0.11642,0.48948 0.10583,0.74348 -0.003,0.037 -0.005,0.0741 -0.0106,0.11113 -0.0106,0.127 -0.0476,0.26722 0.11642,0.32014 0.1561,0.0503 0.16668,-0.11112 0.23812,-0.18785 0.14288,-0.15611 0.13229,-0.33338 0.11906,-0.52917 -0.0582,-0.78317 -0.14816,-1.56369 -0.22489,-2.34685 -0.0714,-0.72232 -0.18256,-1.43934 -0.27252,-2.159 -0.082,-0.65352 -0.17992,-1.31234 -0.25136,-1.96586 -0.10583,-0.95514 -0.23548,-1.91294 -0.39158,-2.8575 -0.22754,-1.39171 -0.38365,-2.79664 -0.65352,-4.18041 -0.0794,-0.40217 0.0185,-0.80434 -0.0529,-1.19592 -0.16139,-0.89958 -0.2196,-1.80711 -0.29898,-2.71198 -0.0212,-0.25135 0.0688,-0.51594 0.26194,-0.68527 0.52917,-0.46302 0.97896,-1.00277 1.49754,-1.47638 0.33867,-0.3122 0.64823,-0.66145 1.00807,-0.95514 z"
         id="path291-8"
         style="stroke-width:0px" />
      <path
         class="cls-1"
         d="m 137.50247,125.28906 c 0.0979,0.81227 0.0476,1.05304 -1.02394,1.03981 -0.65087,0 -1.28587,-0.13493 -1.94733,-0.10054 -1.00806,0.0529 -2.02671,0.037 -3.03742,0.0423 -0.58473,0.003 -1.19327,-0.10847 -1.78329,0.0714 -0.18785,0.0556 -0.23548,0.10319 -0.17198,0.27252 0.008,0.0238 0.0212,0.045 0.0265,0.0688 0.27517,1.2409 0.63235,2.45798 0.99748,3.67771 0.16139,0.53975 0.16933,1.12713 0.45773,1.64042 0.0476,0.0847 0.0185,0.22225 0.003,0.33073 -0.045,0.33867 0.0185,0.61648 0.25929,0.89694 0.23813,0.27781 0.39688,0.65087 0.40482,1.02393 0.0106,0.5424 0.0238,1.12448 0.19843,1.59015 0.23813,0.63235 0.26723,1.2991 0.51594,1.91294 0.11113,0.27781 0.0926,0.56621 0.14288,0.84931 0.0979,0.55033 0.37835,1.04775 0.44979,1.61131 0.0318,0.25929 0.0953,0.51594 0.0979,0.78052 0,0.1905 -0.003,0.381 0.0847,0.55298 0.26458,0.54504 0.23019,1.14565 0.33073,1.71979 0.0582,0.33867 0.24077,0.6403 0.25929,0.97632 0.0397,0.6985 0.49742,1.29645 0.46567,2.00818 -0.005,0.12171 0.0556,0.21432 0.11642,0.31221 0.16139,0.26194 0,0.48684 -0.12171,0.6985 -0.11642,0.20902 -0.32809,0.16669 -0.50536,0.10848 -0.78316,-0.24871 -1.58485,-0.43656 -2.37066,-0.67469 -1.12184,-0.33866 -2.19605,-0.85989 -3.36286,-1.02393 -1.16152,-0.1614 -2.24896,-0.60325 -3.39196,-0.82286 -0.39952,-0.0767 -0.59002,-0.35719 -0.63764,-0.74612 -0.0635,-0.52388 -0.127,-1.04775 -0.19579,-1.56898 -0.15346,-1.14565 -0.4445,-2.26748 -0.60061,-3.41048 -0.22489,-1.65629 -0.75141,-3.24644 -1.01071,-4.89479 -0.12964,-0.82815 -0.41539,-1.62984 -0.59002,-2.45004 -0.26458,-1.23825 -0.50535,-2.4818 -0.73025,-3.72534 -0.16933,-0.93927 -0.17198,-1.89971 -0.35189,-2.83633 -0.17727,-0.93663 -0.37042,-1.87061 -0.508,-2.81252 -0.0847,-0.58209 -0.0661,-1.1774 -0.254,-1.74625 -0.045,-0.12965 -0.0106,-0.26988 0.0767,-0.39423 0.7911,-1.11919 1.43933,-2.3204 2.04523,-3.54806 0.56091,-1.13507 1.16945,-2.25425 1.68804,-3.40519 0.54504,-1.20915 1.25941,-2.31246 1.89177,-3.46869 0.80433,-1.47108 1.64835,-2.92364 2.59291,-4.31535 0.16669,-0.24607 0.25665,-0.5424 0.53446,-0.71702 0.21961,-0.13759 0.40746,-0.14023 0.62707,-0.005 0.6932,0.42069 1.25412,1.00278 1.8706,1.51607 0.4154,0.34396 0.83079,0.68262 1.26471,1.00541 0.69321,0.5133 1.38641,1.03188 1.98173,1.66688 0.0423,0.045 0.0741,0.10848 0.12435,0.13758 1.01071,0.59796 1.09273,1.61925 1.26736,2.62996 0.16668,0.96308 0.1852,1.94469 0.41275,2.89719 0.0847,0.34925 -0.005,0.70644 0.0556,1.07421 0.12171,0.73554 0.3466,1.44727 0.33337,2.22514 -0.008,0.42863 0.14023,0.92604 0.24342,1.38906 0.0714,0.33073 0.15875,0.66675 0.1614,1.00013 0.005,0.86254 0.23812,1.6854 0.39158,2.52148 0.0238,0.13229 0.037,0.27252 0.0318,0.4101 -0.037,0.67998 0.10848,1.33879 0.1905,2.00819 z m -1.79917,-0.32808 c 0.29104,-0.0265 0.42598,-0.10054 0.32544,-0.4154 -0.0476,-0.14023 -0.0476,-0.29633 -0.0661,-0.4445 0.008,-0.003 0.0159,-0.003 0.0238,-0.003 0,-0.0635 0.0106,-0.127 -0.003,-0.18786 -0.35983,-1.78594 -0.34131,-3.61685 -0.6694,-5.41337 -0.20637,-1.13771 -0.39952,-2.286 -0.56356,-3.43694 -0.16933,-1.17475 -0.37306,-2.34421 -0.58473,-3.51367 -0.14816,-0.81491 -0.381,-1.51341 -1.08479,-1.99496 -0.1561,-0.10583 -0.32544,-0.19843 -0.45508,-0.33073 -0.96573,-0.9525 -2.08492,-1.71714 -3.13267,-2.5691 -0.29369,-0.23812 -0.40746,-0.22225 -0.55827,0.13229 -0.58208,1.35467 -1.34673,2.60879 -2.10079,3.86292 -0.88371,1.47108 -1.68011,2.98979 -2.48179,4.50321 -0.34925,0.65616 -0.67998,1.32821 -1.03188,1.98173 -0.39423,0.73818 -0.79639,1.46579 -1.15094,2.22514 -0.21431,0.46038 -0.39952,0.93927 -0.71966,1.35731 -0.33073,0.43657 -0.45773,0.92075 -0.24077,1.51078 0.17727,0.49212 0.38629,1.00806 0.37041,1.55839 -0.0159,0.56092 0.27252,1.0795 0.23019,1.63513 -0.0291,0.39158 0.0662,0.75935 0.19844,1.10066 0.21431,0.54769 0.24342,1.12713 0.3466,1.69069 0.0529,0.29104 0.0794,0.57415 0.18521,0.86254 0.13758,0.36513 0.21961,0.762 0.24342,1.15094 0.0132,0.21696 0.0344,0.4101 0.11906,0.61119 0.0794,0.19579 0.19579,0.41539 0.17198,0.60854 -0.0688,0.58473 -0.0926,1.13771 0.36777,1.59014 0.0132,0.0159 0.005,0.0503 0.008,0.0741 0.0476,0.70644 0.25929,1.37848 0.40746,2.06375 0.13229,0.61119 0.0397,1.23825 0.24077,1.85208 0.25135,0.76465 0.31485,1.58221 0.52916,2.36273 0.0609,0.2196 0.20373,0.44979 0.0847,0.69321 -0.10583,0.21431 -0.0661,0.47096 0.0317,0.61648 0.23548,0.35189 0.23019,0.762 0.37571,1.13241 0.0873,0.21961 0.15081,0.45244 0.11377,0.70115 -0.0979,0.67998 0.0661,0.92869 0.73025,1.12183 0.82285,0.24342 1.66687,0.44186 2.46592,0.74877 1.11654,0.42598 2.30452,0.58209 3.4237,0.98161 0.11907,0.0423 0.27517,0.16669 0.3863,0.037 0.12435,-0.14287 0.003,-0.30956 -0.0556,-0.45508 -0.25135,-0.61913 -0.27781,-1.29117 -0.44185,-1.93146 -0.11642,-0.45773 -0.0926,-0.94721 -0.17198,-1.41552 -0.10583,-0.61119 -0.25665,-1.21444 -0.381,-1.82298 -0.1614,-0.7964 -0.26987,-1.60867 -0.48683,-2.38919 -0.24871,-0.889 -0.41804,-1.79652 -0.67204,-2.68817 -0.3175,-1.11389 -0.51065,-2.26747 -0.80698,-3.3946 -0.28046,-1.05569 -0.52917,-2.1246 -0.69321,-3.20146 -0.127,-0.84666 -0.43127,-1.651 -0.53975,-2.49766 -0.0529,-0.4154 0.1561,-0.68263 0.57944,-0.68792 0.90222,-0.0132 1.8071,0.003 2.71197,-0.0106 1.47373,-0.0212 2.94482,0.17462 4.42119,0.037 z"
         id="path292-5"
         style="stroke-width:0px" />
      <path
         class="cls-9"
         d="m 136.02874,124.54558 c 0.10054,0.31486 -0.0344,0.38894 -0.32544,0.4154 -1.47637,0.13758 -2.94746,-0.0582 -4.42119,-0.037 -0.90487,0.0132 -1.80975,-0.003 -2.71197,0.0106 -0.42334,0.005 -0.63236,0.27252 -0.57944,0.68792 0.10848,0.84666 0.41275,1.651 0.53975,2.49766 0.16404,1.07686 0.41275,2.14577 0.69321,3.20146 0.29633,1.12713 0.48948,2.28071 0.80698,3.3946 0.254,0.89165 0.42333,1.79917 0.67204,2.68817 0.21696,0.78052 0.32543,1.59279 0.48683,2.38919 0.12435,0.60854 0.27517,1.21179 0.381,1.82298 0.0794,0.46831 0.0556,0.95779 0.17198,1.41552 0.16404,0.64029 0.1905,1.31233 0.44185,1.93146 0.0582,0.14552 0.17992,0.31221 0.0556,0.45508 -0.11113,0.12965 -0.26723,0.005 -0.3863,-0.037 -1.11918,-0.39952 -2.30716,-0.55563 -3.4237,-0.98161 -0.79905,-0.30691 -1.64307,-0.50535 -2.46592,-0.74877 -0.6641,-0.19314 -0.82815,-0.44185 -0.73025,-1.12183 0.037,-0.24871 -0.0265,-0.48154 -0.11377,-0.70115 -0.14552,-0.37041 -0.14023,-0.78052 -0.37571,-1.13241 -0.0979,-0.14552 -0.13758,-0.40217 -0.0317,-0.61648 0.11906,-0.24342 -0.0238,-0.47361 -0.0847,-0.69321 -0.21431,-0.78052 -0.27781,-1.59808 -0.52916,-2.36273 -0.20109,-0.61383 -0.10848,-1.24089 -0.24077,-1.85208 -0.14817,-0.68527 -0.35984,-1.35731 -0.40746,-2.06375 -0.003,-0.0238 0.005,-0.0582 -0.008,-0.0741 -0.46037,-0.45243 -0.43656,-1.00541 -0.36777,-1.59014 0.0238,-0.19315 -0.0926,-0.41275 -0.17198,-0.60854 -0.0847,-0.20109 -0.10583,-0.39423 -0.11906,-0.61119 -0.0238,-0.38894 -0.10584,-0.78581 -0.24342,-1.15094 -0.10583,-0.28839 -0.13229,-0.5715 -0.18521,-0.86254 -0.10318,-0.56356 -0.13229,-1.143 -0.3466,-1.69069 -0.13229,-0.34131 -0.22754,-0.70908 -0.19844,-1.10066 0.0423,-0.55563 -0.24606,-1.07421 -0.23019,-1.63513 0.0159,-0.55033 -0.19314,-1.06627 -0.37041,-1.55839 -0.21696,-0.59003 -0.09,-1.07421 0.24077,-1.51078 0.32014,-0.41804 0.50535,-0.89693 0.71966,-1.35731 0.35455,-0.75935 0.75671,-1.48696 1.15094,-2.22514 0.3519,-0.65352 0.68263,-1.32557 1.03188,-1.98173 0.80168,-1.51342 1.59808,-3.03213 2.48179,-4.50321 0.75406,-1.25413 1.51871,-2.50825 2.10079,-3.86292 0.15081,-0.35454 0.26458,-0.37041 0.55827,-0.13229 1.04775,0.85196 2.16694,1.6166 3.13267,2.5691 0.12964,0.1323 0.29898,0.2249 0.45508,0.33073 0.70379,0.48155 0.93663,1.18005 1.08479,1.99496 0.21167,1.16946 0.4154,2.33892 0.58473,3.51367 0.16404,1.15094 0.35719,2.29923 0.56356,3.43694 0.32809,1.79652 0.30957,3.62743 0.6694,5.41337 0.0132,0.0609 0.003,0.12436 0.003,0.18786 -0.008,0 -0.0159,0 -0.0238,0.003 0.0185,0.14817 0.0185,0.30427 0.0661,0.4445 z m -3.85498,-12.10998 c 0.12171,-0.14287 0.16404,-0.28046 0.0556,-0.4736 -0.16933,-0.29898 -0.23283,-0.65881 -0.59796,-0.82021 -0.0344,-0.0159 -0.0582,-0.0423 -0.0741,-0.0741 -0.0291,-0.0556 -0.037,-0.127 -0.0503,-0.1905 -0.0238,-0.12436 -0.0953,-0.21961 -0.19579,-0.30957 -0.6059,-0.52387 -1.14036,-1.11125 -1.51077,-1.82827 -0.09,-0.17727 -0.22225,-0.33337 -0.42069,-0.32279 -0.18785,0.008 -0.32279,0.16933 -0.37042,0.33867 -0.10583,0.39423 -0.33073,0.73554 -0.46037,1.11125 -0.40746,1.19062 -1.00542,2.29658 -1.51871,3.43694 -0.50006,1.1086 -1.06627,2.18545 -1.69069,3.23056 -0.51064,0.85196 -0.93927,1.74889 -1.4261,2.61408 -0.35983,0.64294 -0.71173,1.29646 -0.99219,1.98438 -0.23812,0.59531 -0.35719,1.18533 -0.21431,1.82827 0.16669,0.74612 0.35189,1.50018 0.37306,2.26218 0.0212,0.85725 0.28046,1.66688 0.39688,2.50296 0.11112,0.80169 0.0317,1.62454 0.26987,2.2569 -0.005,0.71437 0.29898,1.20914 0.33867,1.76212 0.0106,0.14288 0.17198,0.17727 0.29104,0.20373 0.25665,0.0556 0.51329,0.10054 0.76994,0.14817 0.24341,0.0503 0.48683,0.10319 0.7276,0.17462 0.20373,0.0635 0.42863,-0.0212 0.36777,-0.26987 -0.0741,-0.31485 -0.0291,-0.62177 -0.0609,-0.92869 -0.15346,-1.40494 -0.32544,-2.80458 -0.60325,-4.19364 -0.0767,-0.38894 -0.18521,-0.77788 -0.23019,-1.16946 -0.10054,-0.88106 -0.22225,-1.75684 -0.43656,-2.61938 -0.0688,-0.28839 -0.11113,-0.56621 0.0979,-0.87577 0.52388,-0.78052 0.94457,-1.62983 1.47373,-2.40506 0.36248,-0.52917 0.61648,-1.143 1.11919,-1.57956 0.0926,-0.0794 0.1561,-0.19315 0.22754,-0.29634 0.29898,-0.4445 0.57679,-0.90487 0.89694,-1.33614 0.52917,-0.71173 1.03187,-1.44463 1.68275,-2.05846 0.14817,-0.13758 0.22225,-0.33073 0.35719,-0.48419 0.48154,-0.52916 0.94191,-1.07685 1.40758,-1.61925 z"
         id="path293-9"
         style="fill:#43a6c3;stroke-width:0px" />
      <path
         class="cls-1"
         d="m 132.22932,111.962 c 0.10848,0.19314 0.0661,0.33073 -0.0556,0.4736 -0.46567,0.5424 -0.92604,1.09009 -1.40758,1.61925 -0.13494,0.15346 -0.20902,0.34661 -0.35719,0.48419 -0.65088,0.61383 -1.15358,1.34673 -1.68275,2.05846 -0.32015,0.43127 -0.59796,0.89164 -0.89694,1.33614 -0.0714,0.10319 -0.13494,0.21696 -0.22754,0.29634 -0.50271,0.43656 -0.75671,1.05039 -1.11919,1.57956 -0.52916,0.77523 -0.94985,1.62454 -1.47373,2.40506 -0.20902,0.30956 -0.16668,0.58738 -0.0979,0.87577 0.21431,0.86254 0.33602,1.73832 0.43656,2.61938 0.045,0.39158 0.15346,0.78052 0.23019,1.16946 0.27781,1.38906 0.44979,2.7887 0.60325,4.19364 0.0317,0.30692 -0.0132,0.61384 0.0609,0.92869 0.0609,0.24871 -0.16404,0.33337 -0.36777,0.26987 -0.24077,-0.0714 -0.48419,-0.12435 -0.7276,-0.17462 l 0.11112,-0.52388 c 0.037,0 0.0741,-0.0106 0.11113,-0.0344 0.10318,-0.0741 0.0344,-0.18786 0.0212,-0.28046 -0.18256,-1.20915 -0.39687,-2.413 -0.53445,-3.62479 -0.11907,-1.03452 -0.34925,-2.04788 -0.48419,-3.07975 -0.0714,-0.53975 -0.0979,-1.08744 -0.33073,-1.61396 -0.17727,-0.40746 -0.21696,-0.86783 0.20373,-1.24619 0.21696,-0.19579 0.37571,-0.47096 0.52123,-0.73289 0.66939,-1.20386 1.46843,-2.31511 2.27012,-3.43165 0.889,-1.24619 1.80181,-2.47121 2.77019,-3.65919 0.42862,-0.52387 0.88371,-1.02393 1.32556,-1.53723 0.10054,-0.11641 0.24077,-0.24077 0.10584,-0.42862 -0.12171,-0.16933 -0.24078,-0.33602 -0.36248,-0.50271 l 0.68262,-0.33337 c 0.0159,0.0317 0.0397,0.0582 0.0741,0.0741 0.36513,0.1614 0.42863,0.52123 0.59796,0.82021 z"
         id="path294-3"
         style="stroke-width:0px" />
      <path
         class="cls-1"
         d="m 131.55728,111.06771 -0.68262,0.33337 c -0.36513,-0.50006 -0.74877,-0.98689 -1.19857,-1.41817 -0.14023,-0.13229 -0.24606,-0.10583 -0.3122,0.0688 -0.10055,0.25664 -0.20109,0.51329 -0.29634,0.77523 -0.4736,1.31497 -1.18533,2.53206 -1.65894,3.84968 -0.10583,0.29104 -0.24077,0.58473 -0.42597,0.83079 -0.79905,1.07157 -1.31498,2.30188 -1.94998,3.46075 -0.46038,0.83873 -0.96044,1.6563 -1.34673,2.53736 -0.254,0.57679 -0.26988,1.16152 -0.1905,1.71714 0.10054,0.6985 0.29104,1.39436 0.46566,2.08492 0.17463,0.69056 0.15611,1.40494 0.30163,2.10344 0.19314,0.92075 0.26458,1.86531 0.38629,2.80194 0.0132,0.0873 0.003,0.17727 0.003,0.24341 -0.0503,0.43127 0.0318,0.79111 0.39687,1.03717 0.0609,0.0397 0.13494,0.0794 0.20902,0.0794 l -0.11112,0.52388 c -0.25665,-0.0476 -0.51329,-0.0926 -0.76994,-0.14817 -0.11906,-0.0265 -0.28046,-0.0609 -0.29104,-0.20373 -0.0397,-0.55298 -0.34396,-1.04775 -0.33867,-1.76212 -0.23812,-0.63236 -0.15875,-1.45521 -0.26987,-2.2569 -0.11642,-0.83608 -0.37571,-1.64571 -0.39688,-2.50296 -0.0212,-0.762 -0.20637,-1.51606 -0.37306,-2.26218 -0.14288,-0.64294 -0.0238,-1.23296 0.21431,-1.82827 0.28046,-0.68792 0.63236,-1.34144 0.99219,-1.98438 0.48683,-0.86519 0.91546,-1.76212 1.4261,-2.61408 0.62442,-1.04511 1.19063,-2.12196 1.69069,-3.23056 0.51329,-1.14036 1.11125,-2.24632 1.51871,-3.43694 0.12964,-0.37571 0.35454,-0.71702 0.46037,-1.11125 0.0476,-0.16934 0.18257,-0.33073 0.37042,-0.33867 0.19844,-0.0106 0.33073,0.14552 0.42069,0.32279 0.37041,0.71702 0.90487,1.3044 1.51077,1.82827 0.10054,0.09 0.17198,0.18521 0.19579,0.30957 0.0132,0.0635 0.0212,0.13493 0.0503,0.1905 z"
         id="path295-3"
         style="stroke-width:0px" />
      <path
         class="cls-1"
         d="m 122.40534,109.92206 c 0.4445,0.24871 0.57415,0.49742 0.40217,0.96838 -0.19844,0.53181 -0.32808,1.07685 -0.7276,1.54516 -0.26194,0.30692 -0.30957,0.80698 -0.43127,1.22502 -0.21432,0.74084 -0.60061,1.40229 -1.00278,2.03994 -0.44185,0.70379 -0.86518,1.41023 -1.14035,2.1934 -0.14287,0.4101 -0.43921,0.72495 -0.60325,1.12183 -0.51594,1.26735 -1.24619,2.42623 -1.91558,3.61685 -0.24606,0.43921 -0.70644,0.46038 -1.13242,0.4154 -0.87048,-0.0979 -1.72773,0.0317 -2.58762,0.0847 -0.31486,0.0185 -0.62971,0.0212 -0.94457,0.0159 -0.28045,-0.008 -0.5027,0.0185 -0.36248,0.39423 -0.16933,0.762 0.23284,1.44463 0.30163,2.17752 0.0185,0.19844 0.0688,0.39423 0.0635,0.59531 -0.0159,0.53975 0.2831,1.01071 0.32544,1.53988 0.0238,0.32014 0.14287,0.64029 -0.003,0.96044 -0.0397,0.082 0,0.13758 0.0503,0.20108 0.17198,0.2196 0.21961,0.47625 0.17463,0.74612 -0.037,0.22755 0.0476,0.3519 0.26193,0.42863 0.69586,0.254 1.39965,0.49212 2.07698,0.78317 0.67469,0.29104 1.30705,0.67733 1.98702,0.95779 1.11919,0.46302 2.14313,1.14035 3.32052,1.47637 0.46038,0.12965 0.7329,0.42069 0.84138,0.90752 0.17727,0.7964 0.19315,1.60867 0.30956,2.40771 0.0714,0.47361 0.11113,0.95515 0.20902,1.42875 0.09,0.44715 0.23813,0.89165 0.13229,1.3679 -0.0556,0.254 -0.0291,0.52387 0.0503,0.78316 0.0847,0.27782 0.1217,0.55034 0.0476,0.85196 -0.0767,0.29898 0.0714,0.6059 0.0873,0.91546 0.0265,0.58208 0.13229,1.15888 0.21696,1.73831 0.037,0.23019 -0.0265,0.42863 -0.16669,0.59532 -0.6006,0.70908 -1.04775,1.53458 -1.73037,2.18016 -0.17198,0.1614 -0.18786,0.42069 -0.32279,0.62442 -0.92075,1.40229 -1.92617,2.74373 -2.93423,4.08517 -0.37836,0.50006 -0.71438,1.03452 -1.03717,1.57162 -0.13758,0.22754 -0.36777,0.24077 -0.54769,0.36513 -0.2487,0.17198 -0.36777,-0.0344 -0.55562,-0.11642 -0.53975,-0.23813 -1.09802,-0.43127 -1.65365,-0.62706 -0.96308,-0.33338 -1.96056,-0.52917 -2.89718,-0.99219 -0.61648,-0.30427 -1.32821,-0.51065 -2.02142,-0.67469 -0.89958,-0.21431 -1.70656,-0.67469 -2.58763,-0.93662 -1.09537,-0.32809 -2.16958,-0.72232 -3.2967,-0.92869 -0.34396,-0.0609 -0.52123,-0.23283 -0.56092,-0.59796 -0.0847,-0.76994 -0.10583,-0.78052 0.56356,-1.143 0.46038,-0.24606 0.96309,-0.40217 1.46315,-0.51858 0.75141,-0.17727 1.46844,-0.44186 2.16429,-0.762 0.21167,-0.0953 0.43127,-0.12171 0.65352,-0.16934 0.45508,-0.0953 0.79375,-0.26722 0.889,-0.81491 0.17463,-1.04511 0.15081,-2.11402 0.39423,-3.13796 0.18256,-0.76994 -0.11113,-1.22502 -0.71702,-1.5584 -0.64558,-0.35718 -1.14829,-0.90752 -1.83886,-1.22502 -0.46831,-0.21166 -0.8546,-0.64293 -0.92339,-1.24883 -0.11906,-1.0451 -0.38629,-2.0664 -0.4445,-3.12473 -0.0291,-0.52917 -0.23283,-1.04775 -0.32808,-1.57956 -0.24607,-1.35731 -0.49478,-2.71463 -0.89165,-4.03754 -0.26194,-0.87313 -0.27252,-1.778 -0.44715,-2.65907 -0.25664,-1.31762 -0.4445,-2.64583 -0.635,-3.97139 -0.25929,-1.79388 -0.51593,-3.5904 -0.66675,-5.40015 -0.0608,-0.71437 -0.10054,-1.42875 -0.0873,-2.13519 0.008,-0.58737 0.37042,-1.06891 0.81227,-1.47372 0.59002,-0.54505 1.25677,-1.00013 1.80181,-1.59544 0.55828,-0.61119 1.14565,-1.19592 1.69069,-1.82034 0.64559,-0.73818 1.38906,-1.37583 2.10873,-2.03729 0.72231,-0.66146 1.34938,-1.41287 2.032,-2.11402 0.381,-0.39423 0.80963,-0.75406 1.26471,-1.06098 0.38365,-0.25664 0.80962,-0.31485 1.28058,-0.0661 0.60325,0.31485 1.26471,0.52652 1.88648,0.80962 1.40229,0.64294 2.71992,1.44198 4.05077,2.21192 0.85461,0.49742 1.68011,1.03452 2.59027,1.44198 0.54769,0.24341 1.11125,0.45773 1.63777,0.75406 z m -1.0451,1.34408 c 0.11112,-0.23018 0.0847,-0.40216 -0.16404,-0.52387 -0.44979,-0.21961 -0.889,-0.46302 -1.33879,-0.67733 -0.98161,-0.47096 -2.03465,-0.78846 -2.91307,-1.4605 -0.0476,-0.0371 -0.10847,-0.0635 -0.16933,-0.082 -0.61648,-0.20108 -1.143,-0.5715 -1.69069,-0.90222 -0.44979,-0.27253 -0.91281,-0.52917 -1.38377,-0.762 -0.56885,-0.28311 -1.18798,-0.47096 -1.72508,-0.82021 -0.28046,-0.18257 -0.49477,-0.14023 -0.65352,0.14287 -0.09,0.15875 -0.20638,0.27517 -0.35983,0.37306 -0.26194,0.16669 -0.48684,0.38365 -0.75407,0.55298 -0.20902,0.12965 -0.26458,0.49213 -0.50535,0.62442 -0.56621,0.30956 -0.92869,0.83079 -1.34144,1.28852 -0.68527,0.75406 -1.45785,1.40229 -2.22514,2.06375 -0.4154,0.35983 -0.84667,0.70379 -1.24884,1.06892 -0.44979,0.40746 -0.89694,0.82814 -1.31498,1.27529 -0.44979,0.48419 -0.9181,0.95779 -1.37583,1.43669 -0.11113,0.11641 -0.16933,0.25135 -0.10848,0.41275 0.20108,0.53181 0.2884,1.08214 0.37042,1.64306 0.0688,0.4789 0.0741,0.97896 0.23548,1.43933 0.17991,0.508 0.0953,1.05834 0.34395,1.57163 0.18521,0.38629 0.1614,0.87312 0.2249,1.31762 0.10583,0.75142 0.0873,1.51342 0.15081,2.27013 0.0529,0.62706 0.082,1.24089 0.28046,1.84414 0.0714,0.20902 0.11377,0.43921 0.17992,0.64823 0.22489,0.72232 -0.045,1.50284 0.30691,2.20663 0.09,0.17727 -0.0635,0.43656 0.09,0.61648 0.19579,0.23018 0.20638,0.51064 0.23813,0.78052 0.0344,0.28575 0.0926,0.56885 0.11377,0.85196 0.0265,0.3175 0.26987,0.60325 0.21167,0.87841 -0.11113,0.51859 0.0503,0.97632 0.18256,1.43934 0.13229,0.46302 -0.0661,0.9525 0.24871,1.33879 0.19579,0.24341 0.20637,0.49741 0.21166,0.77258 0.0132,0.87577 0.11377,1.73567 0.41011,2.5744 0.11641,0.33073 0.3466,0.50535 0.6006,0.67733 0.0926,0.0609 0.22754,0.0767 0.28575,0.17198 0.26723,0.44715 0.83079,0.53975 1.13242,0.94721 0.0423,0.0556 0.12171,0.10054 0.1905,0.11641 0.53975,0.1323 0.89164,0.56621 1.34673,0.83873 0.22225,0.1323 0.38893,0.4498 0.28046,0.68263 -0.28575,0.61383 -0.27782,1.23296 -0.20373,1.87589 0.11112,0.9578 -0.27517,1.88384 -0.20373,2.84428 0.0291,0.41275 -0.15611,0.65881 -0.58473,0.83872 -0.40746,0.17198 -0.74348,0.50536 -1.23825,0.33603 -0.0291,-0.0106 -0.0714,0.0185 -0.10848,0.0291 -0.77258,0.24342 -1.59279,0.30427 -2.35215,0.61119 -0.41539,0.16668 -0.84931,0.26987 -1.30439,0.29104 0.003,0.0317 0.005,0.0635 0.0106,0.0953 0.67469,0.24871 1.35202,0.50271 2.02935,0.74612 0.47096,0.17198 0.93928,0.34661 1.43934,0.4154 0.25929,0.0344 0.50535,0.14023 0.75671,0.22225 0.89429,0.2884 1.77535,0.62177 2.66964,0.89694 0.99219,0.30691 1.97115,0.64558 2.96069,0.95779 0.52652,0.16404 1.0795,0.23283 1.57956,0.48948 0.0847,0.045 0.23019,0.0529 0.27781,-0.0423 0.14288,-0.2831 0.45244,-0.381 0.63765,-0.62706 0.52123,-0.69321 0.95779,-1.44727 1.4949,-2.11931 0.6985,-0.87842 1.24618,-1.84415 1.86266,-2.77019 0.4789,-0.71966 0.85725,-1.50283 1.4314,-2.159 0.16933,-0.19314 0.23283,-0.41539 0.13494,-0.6641 -0.12171,-0.30692 -0.14553,-0.635 -0.17728,-0.95779 -0.11906,-1.2065 -0.26722,-2.40771 -0.51858,-3.5904 -0.0503,-0.23283 -0.0159,-0.46831 -0.10054,-0.70379 -0.20108,-0.55563 -0.31221,-1.13242 -0.3466,-1.72508 -0.0185,-0.34661 -0.11113,-0.65088 -0.47096,-0.83609 -0.39952,-0.20637 -0.77259,-0.46566 -1.15623,-0.70644 -0.44715,-0.2831 -0.87313,-0.59531 -1.33615,-0.84666 -0.66146,-0.35719 -1.32027,-0.72496 -1.95527,-1.11654 -0.58208,-0.35984 -1.14829,-0.75407 -1.73831,-1.10861 -0.17992,-0.10583 -0.4154,-0.31485 -0.57679,-0.18521 -0.40481,0.3175 -0.34925,-0.0265 -0.41804,-0.23283 -0.045,-0.14287 -0.0714,-0.32544 -0.17198,-0.4101 -0.37307,-0.31221 -0.34925,-0.76465 -0.46302,-1.16682 -0.045,-0.15345 -0.0503,-0.32014 -0.0661,-0.48154 -0.0661,-0.69056 -0.29633,-1.34673 -0.41275,-2.02671 -0.11642,-0.67998 -0.23548,-1.35731 -0.40217,-2.0267 -0.18256,-0.72761 -0.27252,-1.47903 -0.31485,-2.23044 -0.0132,-0.25665 0.10583,-0.37571 0.37306,-0.47096 0.889,-0.31485 1.82298,-0.33602 2.73315,-0.49477 0.71702,-0.12436 1.43669,-0.24342 2.159,-0.29104 0.52652,-0.0344 0.89164,-0.0794 1.16681,-0.67204 0.71173,-1.51871 1.61131,-2.94746 2.25425,-4.50586 0.48683,-1.18269 1.07685,-2.32039 1.52929,-3.51896 0.20638,-0.55033 0.50006,-1.06891 0.75671,-1.60073 z"
         id="path296-1"
         style="stroke-width:0px" />
      <path
         class="cls-9"
         d="m 121.1962,110.74227 c 0.24871,0.12171 0.27516,0.29369 0.16404,0.52387 -0.25665,0.53182 -0.55033,1.0504 -0.75671,1.60073 -0.45244,1.19857 -1.04246,2.33627 -1.52929,3.51896 -0.64294,1.5584 -1.54252,2.98715 -2.25425,4.50586 -0.27517,0.59266 -0.64029,0.63764 -1.16681,0.67204 -0.72231,0.0476 -1.44198,0.16668 -2.159,0.29104 -0.91017,0.15875 -1.84415,0.17992 -2.73315,0.49477 -0.26723,0.0953 -0.38629,0.21431 -0.37306,0.47096 0.0423,0.75141 0.13229,1.50283 0.31485,2.23044 0.16669,0.66939 0.28575,1.34672 0.40217,2.0267 0.11642,0.67998 0.3466,1.33615 0.41275,2.02671 0.0159,0.1614 0.0212,0.32809 0.0661,0.48154 0.11377,0.40217 0.0899,0.85461 0.46302,1.16682 0.10054,0.0847 0.127,0.26723 0.17198,0.4101 0.0688,0.20638 0.0132,0.55033 0.41804,0.23283 0.16139,-0.12964 0.39687,0.0794 0.57679,0.18521 0.59002,0.35454 1.15623,0.74877 1.73831,1.10861 0.635,0.39158 1.29381,0.75935 1.95527,1.11654 0.46302,0.25135 0.889,0.56356 1.33615,0.84666 0.38364,0.24078 0.75671,0.50007 1.15623,0.70644 0.35983,0.18521 0.45243,0.48948 0.47096,0.83609 0.0344,0.59266 0.14552,1.16945 0.3466,1.72508 0.0847,0.23548 0.0503,0.47096 0.10054,0.70379 0.25136,1.18269 0.39952,2.3839 0.51858,3.5904 0.0317,0.32279 0.0556,0.65087 0.17728,0.95779 0.0979,0.24871 0.0344,0.47096 -0.13494,0.6641 -0.57415,0.65617 -0.9525,1.43934 -1.4314,2.159 -0.61648,0.92604 -1.16416,1.89177 -1.86266,2.77019 -0.53711,0.67204 -0.97367,1.4261 -1.4949,2.11931 -0.18521,0.24606 -0.49477,0.34396 -0.63765,0.62706 -0.0476,0.0953 -0.19314,0.0873 -0.27781,0.0423 -0.50006,-0.25665 -1.05304,-0.32544 -1.57956,-0.48948 -0.98954,-0.31221 -1.9685,-0.65088 -2.96069,-0.95779 -0.89429,-0.27517 -1.77535,-0.60854 -2.66964,-0.89694 -0.25136,-0.082 -0.49742,-0.18785 -0.75671,-0.22225 -0.50006,-0.0688 -0.96838,-0.24342 -1.43934,-0.4154 -0.67733,-0.24341 -1.35466,-0.49741 -2.02935,-0.74612 -0.005,-0.0317 -0.008,-0.0635 -0.0106,-0.0953 0.45508,-0.0212 0.889,-0.12436 1.30439,-0.29104 0.75936,-0.30692 1.57957,-0.36777 2.35215,-0.61119 0.037,-0.0106 0.0794,-0.0397 0.10848,-0.0291 0.49477,0.16933 0.83079,-0.16405 1.23825,-0.33603 0.42862,-0.17991 0.61383,-0.42597 0.58473,-0.83872 -0.0714,-0.96044 0.31485,-1.88648 0.20373,-2.84428 -0.0741,-0.64293 -0.082,-1.26206 0.20373,-1.87589 0.10847,-0.23283 -0.0582,-0.55033 -0.28046,-0.68263 -0.45509,-0.27252 -0.80698,-0.70643 -1.34673,-0.83873 -0.0688,-0.0159 -0.14817,-0.0609 -0.1905,-0.11641 -0.30163,-0.40746 -0.86519,-0.50006 -1.13242,-0.94721 -0.0582,-0.0953 -0.19314,-0.11113 -0.28575,-0.17198 -0.254,-0.17198 -0.48419,-0.3466 -0.6006,-0.67733 -0.29634,-0.83873 -0.39688,-1.69863 -0.41011,-2.5744 -0.005,-0.27517 -0.0159,-0.52917 -0.21166,-0.77258 -0.31486,-0.38629 -0.12171,-0.89429 -0.24871,-1.33879 -0.127,-0.4445 -0.29369,-0.92075 -0.18256,-1.43934 0.0582,-0.27516 -0.18521,-0.56091 -0.21167,-0.87841 -0.0212,-0.28311 -0.0794,-0.56621 -0.11377,-0.85196 -0.0317,-0.26988 -0.0423,-0.55034 -0.23813,-0.78052 -0.15346,-0.17992 0,-0.43921 -0.09,-0.61648 -0.35189,-0.70379 -0.082,-1.48431 -0.30691,-2.20663 -0.0661,-0.20902 -0.10848,-0.43921 -0.17992,-0.64823 -0.19844,-0.60325 -0.22754,-1.21708 -0.28046,-1.84414 -0.0635,-0.75671 -0.045,-1.51871 -0.15081,-2.27013 -0.0635,-0.4445 -0.0397,-0.93133 -0.2249,-1.31762 -0.2487,-0.51329 -0.16404,-1.06363 -0.34395,-1.57163 -0.1614,-0.46037 -0.16669,-0.96043 -0.23548,-1.43933 -0.082,-0.56092 -0.16934,-1.11125 -0.37042,-1.64306 -0.0608,-0.1614 0,-0.29634 0.10848,-0.41275 0.45773,-0.4789 0.92604,-0.9525 1.37583,-1.43669 0.41804,-0.44715 0.86519,-0.86783 1.31498,-1.27529 0.40217,-0.36513 0.83344,-0.70909 1.24884,-1.06892 0.76729,-0.66146 1.53987,-1.30969 2.22514,-2.06375 0.41275,-0.45773 0.77523,-0.97896 1.34144,-1.28852 0.24077,-0.13229 0.29633,-0.49477 0.50535,-0.62442 0.26723,-0.16933 0.49213,-0.38629 0.75407,-0.55298 0.15345,-0.0979 0.26987,-0.21431 0.35983,-0.37306 0.15875,-0.2831 0.37306,-0.32544 0.65352,-0.14287 0.5371,0.34925 1.15623,0.5371 1.72508,0.82021 0.47096,0.23283 0.93398,0.48947 1.38377,0.762 0.54769,0.33072 1.07421,0.70114 1.69069,0.90222 0.0609,0.0185 0.12171,0.045 0.16933,0.082 0.87842,0.67204 1.93146,0.98954 2.91307,1.4605 0.44979,0.21431 0.889,0.45772 1.33879,0.67733 z m -8.87677,2.18017 c 0.4101,-0.082 0.45508,-0.3863 0.35983,-0.69057 -0.1561,-0.49741 -0.20637,-1.01071 -0.23812,-1.51871 -0.0397,-0.61647 -0.24871,-1.20385 -0.26194,-1.85737 0.14817,-0.3466 -0.0556,-0.56885 -0.36248,-0.7276 -0.29633,-0.15346 -0.50271,0.045 -0.70644,0.20902 -0.127,0.10054 -0.24871,0.21166 -0.34925,0.34131 -0.54239,0.69585 -1.20914,1.27529 -1.85208,1.86796 -1.11125,1.02923 -2.286,1.98966 -3.42371,2.99243 -0.60854,0.53711 -1.19592,1.09538 -1.78329,1.65365 -0.10319,0.0953 -0.30692,0.19579 -0.21961,0.35719 0.18521,0.33866 0.0714,0.69321 0.10319,1.03716 0.0476,0.508 0.13494,1.01071 0.20373,1.51607 0.0873,0.64558 0.0688,1.31233 0.26194,1.9341 0.26723,0.86783 0.42598,1.75683 0.61383,2.6379 0.18521,0.87048 0.27781,1.75948 0.45509,2.6326 0.20372,0.99483 0.45772,1.97908 0.68262,2.96863 0.21431,0.94191 0.29104,1.91558 0.6641,2.82045 0.0609,0.15082 0.0661,0.39423 0.33073,0.29898 0.18786,-0.0688 0.4445,-0.11112 0.32544,-0.42862 -0.0291,-0.0847 -0.008,-0.17992 0.0582,-0.24606 0.24606,-0.24342 0.1905,-0.53711 0.19579,-0.84402 0.0132,-0.73819 -0.35454,-1.4658 -0.0608,-2.20928 0.0212,-0.0529 0.0185,-0.13493 -0.008,-0.1852 -0.18785,-0.33073 -0.0714,-0.65088 0,-0.98425 0.0635,-0.30427 0.10583,-0.61913 0.0979,-0.92869 -0.0265,-0.96308 0.10847,-1.91294 0.14287,-2.87073 0.008,-0.19579 -0.0926,-0.39952 -0.0635,-0.58738 0.11642,-0.79904 0.0688,-1.60337 0.0476,-2.39447 -0.0265,-0.96838 -0.008,-1.92353 0.10847,-2.88132 0.0265,-0.20902 0.11113,-0.39952 0.2884,-0.508 0.69321,-0.41539 1.28852,-0.95514 1.90235,-1.47637 0.74084,-0.62971 1.66159,-1.03981 2.29923,-1.80711 0.045,-0.0556 0.11907,-0.10848 0.18786,-0.1217 z"
         id="path297-8"
         style="fill:#43a6c3;stroke-width:0px" />
      <path
         class="cls-1"
         d="m 112.67926,112.23187 c 0.0953,0.30427 0.0503,0.60854 -0.35983,0.69057 -0.0688,0.0132 -0.14288,0.0661 -0.18786,0.1217 -0.63764,0.7673 -1.55839,1.1774 -2.29923,1.80711 -0.61383,0.52123 -1.20914,1.06098 -1.90235,1.47637 -0.17727,0.10848 -0.26194,0.29898 -0.2884,0.508 -0.11641,0.95779 -0.13493,1.91294 -0.10847,2.88132 0.0212,0.7911 0.0688,1.59543 -0.0476,2.39447 -0.0291,0.18786 0.0714,0.39159 0.0635,0.58738 -0.0344,0.95779 -0.16933,1.90765 -0.14287,2.87073 0.008,0.30956 -0.0344,0.62442 -0.0979,0.92869 -0.0714,0.33337 -0.18785,0.65352 0,0.98425 0.0265,0.0503 0.0291,0.13229 0.008,0.1852 -0.29369,0.74348 0.0741,1.47109 0.0608,2.20928 -0.005,0.30691 0.0503,0.6006 -0.19579,0.84402 -0.0661,0.0661 -0.0873,0.16139 -0.0582,0.24606 0.11906,0.3175 -0.13758,0.35983 -0.32544,0.42862 -0.26458,0.0953 -0.26987,-0.14816 -0.33073,-0.29898 -0.37306,-0.90487 -0.44979,-1.87854 -0.6641,-2.82045 -0.2249,-0.98955 -0.4789,-1.9738 -0.68262,-2.96863 -0.17728,-0.87312 -0.26988,-1.76212 -0.45509,-2.6326 -0.18785,-0.88107 -0.3466,-1.77007 -0.61383,-2.6379 -0.19315,-0.62177 -0.17463,-1.28852 -0.26194,-1.9341 -0.0688,-0.50536 -0.1561,-1.00807 -0.20373,-1.51607 -0.0317,-0.34395 0.082,-0.6985 -0.10319,-1.03716 -0.0873,-0.1614 0.11642,-0.26194 0.21961,-0.35719 0.58737,-0.55827 1.17475,-1.11654 1.78329,-1.65365 1.13771,-1.00277 2.31246,-1.9632 3.42371,-2.99243 0.64294,-0.59267 1.30969,-1.17211 1.85208,-1.86796 0.10054,-0.12965 0.22225,-0.24077 0.34925,-0.34131 0.20373,-0.16405 0.41011,-0.36248 0.70644,-0.20902 0.30692,0.15875 0.51065,0.381 0.36248,0.7276 0.0132,0.65352 0.22225,1.2409 0.26194,1.85737 0.0317,0.508 0.082,1.0213 0.23812,1.51871 z m -0.93398,0.0609 c 0.0635,-0.0556 0.0397,-0.14023 0.0317,-0.21432 -0.10848,-0.94191 -0.21166,-1.88383 -0.32544,-2.90247 -0.39952,0.45772 -0.78845,0.83343 -1.15622,1.23295 -0.49742,0.53975 -1.03717,1.04775 -1.61661,1.51077 -1.29381,1.03188 -2.54529,2.11667 -3.75444,3.24644 -0.33602,0.31221 -0.53181,0.61648 -0.41804,1.10067 0.20109,0.86519 0.13759,1.778 0.42069,2.62996 0.20373,0.60854 0.21696,1.24883 0.37571,1.8706 0.17198,0.6694 0.13229,1.38906 0.30162,2.08227 0.21167,0.87313 0.28575,1.77536 0.44715,2.65906 0.0556,0.30692 0.13494,0.66411 0.36248,1.01865 0.037,-0.11377 0.0582,-0.14817 0.0582,-0.18256 -0.0476,-0.83079 -0.0238,-1.65629 0.037,-2.48973 0.045,-0.61648 0.0953,-1.24883 0.0767,-1.86002 -0.0265,-0.93927 0.037,-1.8759 0.0185,-2.81517 -0.0159,-0.91281 0.0582,-1.82562 0.082,-2.73844 0.005,-0.23812 0.0979,-0.38629 0.29369,-0.52387 0.63235,-0.4445 1.29116,-0.85725 1.88648,-1.36261 0.51593,-0.43656 1.03187,-0.89693 1.64835,-1.18533 0.52652,-0.24871 0.81492,-0.72496 1.23031,-1.07685 z"
         id="path298-2"
         style="stroke-width:0px" />
      <path
         class="cls-1"
         d="m 104.52216,139.2326 c 0.22225,0.40217 0.003,0.96838 -0.4154,1.15623 -0.62971,0.28311 -1.3335,0.34131 -1.95527,0.62442 -0.55033,0.24871 -1.12183,0.41539 -1.69333,0.55033 -0.58473,0.13494 -1.12977,0.43127 -1.74096,0.44715 -0.14288,0 -0.27517,0.0317 -0.39952,0.0952 -0.09,0.0423 -0.19315,0.12171 -0.27781,0.10848 -0.65617,-0.0926 -1.09009,0.40216 -1.62719,0.61118 -0.54769,0.21167 -1.05569,0.29634 -1.64571,0.10848 -0.23283,-0.0767 -0.4789,-0.0979 -0.72231,-0.0609 l -0.14552,-0.69056 c 0.0344,0 0.0714,-0.008 0.11641,-0.0265 0.18257,-0.082 0.33338,-0.18256 0.29634,-0.41804 -0.0106,-0.0873 -0.0185,-0.17727 -0.0476,-0.2593 -0.254,-0.70643 -0.26723,-1.4605 -0.46831,-2.18281 -0.21696,-0.76994 -0.26194,-1.57956 -0.4445,-2.36008 -0.10054,-0.42598 -0.31221,-0.75936 -0.59531,-1.06627 -0.0767,-0.0847 -0.15611,-0.23548 -0.30163,-0.16669 -0.12171,0.0582 -0.12964,0.20373 -0.127,0.33338 0.008,0.54504 0.11377,1.0742 0.30956,1.57691 0.2593,0.6694 0.40217,1.35467 0.45773,2.06111 -0.008,0.16404 -0.0635,0.34395 0.0344,0.48418 l -0.73554,0.12171 c -0.0132,-0.0423 -0.0291,-0.082 -0.0476,-0.12171 -0.11906,-0.26987 -0.26723,-0.55827 -0.19579,-0.87048 0.0635,-0.27516 0.005,-0.51858 -0.11112,-0.762 -0.30692,-0.64029 -0.37836,-1.35202 -0.5768,-2.02406 -0.0476,-0.16669 -0.0212,-0.34925 -0.25929,-0.34925 l 0.0503,-0.76729 c 0.16669,0.008 0.25929,-0.045 0.34661,-0.19579 0.31221,-0.53181 0.58208,-0.63236 1.16416,-0.39688 0.24342,0.10055 0.41805,0.0767 0.55827,-0.1217 0.3519,-0.49478 0.84667,-0.36513 1.29117,-0.254 0.31221,0.0794 0.56621,0.082 0.8599,-0.0423 1.14564,-0.47889 2.28071,-0.98954 3.45281,-1.38906 0.762,-0.25929 1.51342,-0.51594 2.24896,-0.84667 0.4736,-0.21166 1.02658,-0.31485 1.49225,0.0979 0.42069,0.37306 0.46302,1.25148 -0.19844,1.75419 -0.508,0.38629 -1.02658,0.80698 -1.69862,0.91016 -0.2249,0.037 -0.43921,0.10848 -0.62971,0.24342 -0.0582,0.045 -0.14023,0.11112 -0.19579,0.0979 -0.77523,-0.16934 -1.37319,0.41804 -2.0955,0.48683 -0.23813,0.0238 -0.49213,0.082 -0.7329,0.15081 -0.46567,0.13494 -0.83873,0.47625 -1.33085,0.56886 -0.20638,0.0397 -0.24078,0.27781 -0.1958,0.47625 0.11907,0.52387 0.37571,1.00277 0.46832,1.53987 0.037,0.2196 0.21431,0.35719 0.48154,0.30956 0.14552,-0.0265 0.29898,-0.008 0.44979,-0.0212 0.4101,-0.0291 0.71967,-0.1905 0.84137,-0.62177 0.13759,-0.48419 0.4789,-0.71173 0.97367,-0.7329 0.20373,-0.008 0.33602,0.0529 0.47096,0.23019 0.3175,0.41275 0.58208,0.84666 0.78846,1.32027 0.0794,0.17727 0.20373,0.24077 0.39687,0.17462 0.99219,-0.33602 2.03465,-0.53446 2.96863,-1.03452 0.25929,-0.13758 0.39952,-0.10848 0.53181,0.1614 0.16669,0.33866 0.37835,0.65352 0.56092,0.9816 z m -1.25148,0.43921 c 0.15875,-0.0529 0.38364,-0.13758 0.30427,-0.35454 -0.0767,-0.20373 -0.26988,-0.0661 -0.42598,-0.0529 -0.57944,0.0423 -1.03717,0.41275 -1.57692,0.55563 -0.33866,0.09 -0.6985,0.127 -1.016,0.26723 -0.89693,0.39687 -1.88118,0.46037 -2.80193,0.76993 -0.26988,0.09 -0.56357,0.11113 -0.84403,0.17727 -0.15345,0.037 -0.22754,0.14553 -0.20902,0.30957 0.0159,0.14287 0.0979,0.19579 0.29898,0.16404 0.0106,-0.008 0.0476,-0.0159 0.082,-0.0212 0.508,-0.0423 0.94192,-0.32808 1.44198,-0.41539 0.53711,-0.0952 1.06627,-0.2593 1.59279,-0.41011 0.51594,-0.15081 1.02394,-0.32808 1.53723,-0.48683 0.53975,-0.16933 1.08215,-0.32544 1.61661,-0.50271 z m -1.17211,-6.43996 c 0.0767,-0.0556 0.16405,-0.14023 0.10319,-0.254 -0.0503,-0.0952 -0.17198,-0.16669 -0.25135,-0.12964 -0.30163,0.12964 -0.6694,0.0794 -0.92604,0.28575 -0.76994,0.62177 -1.8415,0.47095 -2.62732,1.03981 -0.008,0.005 -0.0238,0.003 -0.037,0.005 -0.18521,0.0344 -0.35189,0.13494 -0.52123,0.18521 -0.56621,0.16139 -1.03981,0.64558 -1.59279,0.53181 -0.39158,-0.0635 -0.59267,0.127 -0.82285,0.24871 -0.0688,0.037 -0.14023,0.0847 -0.11377,0.17198 0.0291,0.10848 0.12435,0.10583 0.21695,0.0926 0.46832,-0.0688 0.93398,-0.10848 1.38642,-0.29898 0.65881,-0.27781 1.34408,-0.508 2.03994,-0.66939 0.78846,-0.18256 1.53458,-0.46567 2.28864,-0.73819 0.30957,-0.11112 0.59532,-0.27252 0.85725,-0.47096 z m -2.83104,6.09865 c 0.15611,-0.17727 -0.11112,-0.38894 -0.0317,-0.59002 0.0291,-0.29634 -0.0212,-0.64559 -0.32014,-0.6694 -0.34396,-0.0265 -0.3863,0.35983 -0.45244,0.63765 -0.0106,0.0476 -0.008,0.10054 -0.0132,0.14816 -0.0265,0.24077 -0.13494,0.41011 -0.34396,0.55034 -0.40746,0.27252 -0.86254,0.3175 -1.32556,0.35454 -0.12436,0.0106 -0.22225,0.0397 -0.25929,0.17198 -0.0212,0.0767 -0.0265,0.14816 0.0291,0.21431 0.0926,0.10583 0.17992,0.0159 0.27517,-0.003 0.55298,-0.10847 1.04246,-0.41275 1.61925,-0.47625 0.26987,-0.0291 0.61383,-0.10318 0.82285,-0.33866 z m -3.85762,1.43139 c 0.24606,-0.23018 0.15081,-0.47625 0.09,-0.73025 -0.38894,-1.6457 -0.81492,-3.27818 -1.45786,-4.85775 0.008,0.33602 -0.10583,0.68527 0.0529,1.01071 0.35189,0.72761 0.37041,1.52665 0.49741,2.29923 0.14553,0.87313 0.0714,1.78329 0.4789,2.60879 0.0582,0.11907 0.0529,0.24077 0.0106,0.36513 -0.0344,0.10054 -0.12964,0.2196 0.0238,0.29369 0.12435,0.0609 0.2487,0.0159 0.35189,-0.0635 0.21431,-0.16934 0.14817,-0.35719 0.0106,-0.52653 -0.10584,-0.12964 -0.1905,-0.27516 -0.0582,-0.39952 z"
         id="path299-7"
         style="stroke-width:0px" />
      <path
         class="cls-2"
         d="m 103.57495,139.31727 c 0.0794,0.21696 -0.14552,0.30162 -0.30427,0.35454 -0.53446,0.17727 -1.07686,0.33338 -1.61661,0.50271 -0.51329,0.15875 -1.02129,0.33602 -1.53723,0.48683 -0.52652,0.15081 -1.05568,0.31486 -1.59279,0.41011 -0.50006,0.0873 -0.93398,0.37306 -1.44198,0.41539 -0.0344,0.005 -0.0714,0.0132 -0.082,0.0212 -0.20108,0.0318 -0.2831,-0.0212 -0.29898,-0.16404 -0.0185,-0.16404 0.0556,-0.27252 0.20902,-0.30957 0.28046,-0.0661 0.57415,-0.0873 0.84403,-0.17727 0.92075,-0.30956 1.905,-0.37306 2.80193,-0.76993 0.3175,-0.14023 0.67734,-0.17727 1.016,-0.26723 0.53975,-0.14288 0.99748,-0.51329 1.57692,-0.55563 0.1561,-0.0132 0.34925,-0.15081 0.42598,0.0529 z"
         id="path300"
         style="fill:#f2e70f;stroke-width:0px" />
      <path
         class="cls-1"
         d="m 102.27584,130.10183 c 0.0767,0.33338 -0.0529,0.74877 -0.33072,0.8255 -0.7038,0.18786 -1.25678,0.66411 -1.89707,0.97102 -0.80433,0.38365 -1.651,0.6694 -2.45268,1.05569 -0.58738,0.2831 -1.24355,0.37835 -1.82298,0.67998 -0.3863,0.20108 -0.73555,0.16139 -1.143,-0.0317 -0.52123,-0.24871 -1.0848,-0.18521 -1.56105,0.17727 -0.15875,0.11906 -0.28839,0.15346 -0.47889,0.12435 -0.90752,-0.14552 -1.65365,0.17727 -2.25954,0.83609 -0.3519,0.381 -0.51594,0.39952 -0.98161,0.18256 -0.91546,-0.42863 -1.66158,-1.07421 -2.33891,-1.79917 -0.38365,-0.40746 -0.77523,-0.84402 -1.016,-1.33879 -0.24871,-0.51064 -0.35719,-1.09802 -0.46038,-1.66423 -0.12171,-0.65087 -0.26458,-1.30439 -0.18256,-1.95262 -0.0397,-1.16682 0.2196,-2.24896 0.52387,-3.34698 0.30427,-1.09273 0.91282,-1.98438 1.47638,-2.92629 0.29633,-0.49477 0.66675,-0.93927 0.91281,-1.4658 0.13758,-0.29368 0.44979,-0.42862 0.66675,-0.65616 0.66411,-0.70115 1.30175,-1.42875 2.15371,-1.92617 0.75671,-0.43921 1.52665,-0.81227 2.413,-0.889 0.96573,-0.0847 1.9341,-0.19579 2.88131,0.0979 0.92604,0.28575 1.81769,0.66146 2.70404,1.05039 0.19844,0.0873 0.39423,0.1614 0.60855,0.1905 0.84402,0.11642 0.98954,0.24871 1.15622,1.07686 0.16669,0.82021 0.39688,1.62983 0.46038,2.46856 0.0741,1.00012 0.40217,1.9685 0.33602,2.9845 -0.0132,0.21696 0.12171,0.44185 0.11377,0.66146 -0.0212,0.65352 0.12965,1.30704 -0.005,1.96585 -0.045,0.21431 0.22225,0.37571 0.20373,0.62706 -0.0503,0.69586 0.16669,1.35467 0.32014,2.02142 z m -1.39435,0.13758 c 0.34925,-0.18256 0.41275,-0.381 0.35454,-0.74347 -0.18785,-1.12448 -0.39423,-2.24632 -0.43921,-3.39461 -0.037,-0.90752 -0.0132,-1.83621 -0.36777,-2.70933 -0.037,-0.0873 -0.0317,-0.19315 -0.0397,-0.24077 0.0476,-0.17727 0.0185,-0.29898 0.005,-0.42334 -0.0873,-0.92868 -0.39423,-1.81239 -0.508,-2.73579 -0.0529,-0.41804 -0.2249,-0.77787 -0.73819,-0.87048 -0.30163,-0.0556 -0.57944,-0.23283 -0.87577,-0.33866 -0.68527,-0.24342 -1.32027,-0.63236 -2.04523,-0.75407 -1.49225,-0.254 -2.93423,-0.0767 -4.26773,0.66146 -0.8255,0.45509 -1.54781,1.0504 -2.14577,1.79917 -0.4445,0.55827 -0.81756,1.16946 -1.28852,1.70127 -0.70115,0.78581 -1.15358,1.71979 -1.58221,2.65906 -0.65087,1.42346 -0.80698,2.93688 -0.67733,4.48998 0.0265,0.32544 0.082,0.61913 0.32543,0.85196 0.24078,0.23019 0.30957,0.5371 0.35719,0.85196 0.0159,0.11112 0.0238,0.22225 0.0926,0.32014 0.64558,0.89959 1.32027,1.77007 2.30452,2.34157 0.29104,0.16668 0.48683,0.16404 0.75141,-0.0873 0.54505,-0.51329 1.18798,-0.8202 1.97909,-0.73554 0.254,0.0265 0.51329,-0.0556 0.78052,-0.15081 0.49477,-0.17727 1.03452,-0.38365 1.59279,-0.10319 0.30427,0.15346 0.62442,0.15875 0.97896,0.045 0.79375,-0.25135 1.53723,-0.61383 2.30716,-0.91281 1.08744,-0.42333 2.11138,-0.98425 3.1459,-1.52136 z"
         id="path301-2"
         style="stroke-width:0px" />
      <path
         class="cls-2"
         d="m 102.20176,132.97785 c 0.0609,0.11377 -0.0265,0.19844 -0.10319,0.254 -0.26193,0.19844 -0.54768,0.35984 -0.85725,0.47096 -0.75406,0.27252 -1.50018,0.55563 -2.28864,0.73819 -0.69586,0.16139 -1.38113,0.39158 -2.03994,0.66939 -0.45244,0.1905 -0.9181,0.23019 -1.38642,0.29898 -0.0926,0.0132 -0.18785,0.0159 -0.21695,-0.0926 -0.0265,-0.0873 0.045,-0.13494 0.11377,-0.17198 0.23018,-0.12171 0.43127,-0.31221 0.82285,-0.24871 0.55298,0.11377 1.02658,-0.37042 1.59279,-0.53181 0.16934,-0.0503 0.33602,-0.15081 0.52123,-0.18521 0.0132,-0.003 0.0291,0 0.037,-0.005 0.78582,-0.56886 1.85738,-0.41804 2.62732,-1.03981 0.25664,-0.20638 0.62441,-0.15611 0.92604,-0.28575 0.0794,-0.037 0.20108,0.0344 0.25135,0.12964 z"
         id="path302"
         style="fill:#f2e70f;stroke-width:0px" />
      <path
         class="cls-2"
         d="m 101.23603,129.49594 c 0.0582,0.36247 -0.005,0.56091 -0.35454,0.74347 -1.03452,0.53711 -2.05846,1.09803 -3.1459,1.52136 -0.76993,0.29898 -1.51341,0.66146 -2.30716,0.91281 -0.35454,0.11377 -0.67469,0.10848 -0.97896,-0.045 -0.55827,-0.28046 -1.09802,-0.0741 -1.59279,0.10319 -0.26723,0.0953 -0.52652,0.17727 -0.78052,0.15081 -0.79111,-0.0847 -1.43404,0.22225 -1.97909,0.73554 -0.26458,0.25136 -0.46037,0.254 -0.75141,0.0873 -0.98425,-0.5715 -1.65894,-1.44198 -2.30452,-2.34157 -0.0688,-0.0979 -0.0767,-0.20902 -0.0926,-0.32014 -0.0476,-0.31486 -0.11641,-0.62177 -0.35719,-0.85196 -0.24341,-0.23283 -0.29897,-0.52652 -0.32543,-0.85196 -0.12965,-1.5531 0.0265,-3.06652 0.67733,-4.48998 0.42863,-0.93927 0.88106,-1.87325 1.58221,-2.65906 0.47096,-0.53181 0.84402,-1.143 1.28852,-1.70127 0.59796,-0.74877 1.32027,-1.34408 2.14577,-1.79917 1.3335,-0.73819 2.77548,-0.91546 4.26773,-0.66146 0.72496,0.12171 1.35996,0.51065 2.04523,0.75407 0.29633,0.10583 0.57414,0.2831 0.87577,0.33866 0.51329,0.0926 0.68527,0.45244 0.73819,0.87048 0.11377,0.9234 0.42068,1.80711 0.508,2.73579 0.0132,0.12436 0.0423,0.24607 -0.005,0.42334 0.008,0.0476 0.003,0.15346 0.0397,0.24077 0.35454,0.87312 0.33073,1.80181 0.36777,2.70933 0.045,1.14829 0.25136,2.27013 0.43921,3.39461 z m -1.05569,-3.2094 c 0.0291,-0.58208 -0.21431,-1.08215 -0.46566,-1.57427 -0.10319,-0.20638 -0.14817,-0.47096 -0.38629,-0.58473 -0.30427,-0.14552 -0.51594,-0.38894 -0.73819,-0.62971 -0.10319,-0.10848 -0.21431,-0.20902 -0.35454,-0.27517 -0.62707,-0.29104 -1.22502,-0.65881 -1.87854,-0.86518 -0.87313,-0.27517 -1.76478,-0.68263 -2.7014,-0.0953 -0.34131,0.21431 -0.6694,0.44185 -1.00277,0.6641 -0.92075,0.61648 -1.43933,1.52929 -1.69069,2.56117 -0.21696,0.89694 -0.25929,1.83621 0.0317,2.73844 0.14288,0.4392 0.24077,0.9181 0.53181,1.28587 0.34925,0.43921 0.762,0.82021 1.22238,1.16152 1.25677,0.93927 2.62467,0.92075 4.00579,0.46567 0.81492,-0.26723 1.47638,-0.86519 2.06904,-1.47109 0.90752,-0.92604 1.22238,-2.12725 1.35731,-3.38137 z"
         id="path303"
         style="fill:#f2e70f;stroke-width:0px" />
      <path
         class="cls-1"
         d="m 99.71468,124.71227 c 0.25135,0.49212 0.49477,0.99219 0.46566,1.57427 -0.13493,1.25412 -0.44979,2.45533 -1.35731,3.38137 -0.59266,0.6059 -1.25412,1.20386 -2.06904,1.47109 -1.38112,0.45508 -2.74902,0.4736 -4.00579,-0.46567 -0.46038,-0.34131 -0.87313,-0.72231 -1.22238,-1.16152 -0.29104,-0.36777 -0.38893,-0.84667 -0.53181,-1.28587 -0.29104,-0.90223 -0.24871,-1.8415 -0.0317,-2.73844 0.25136,-1.03188 0.76994,-1.94469 1.69069,-2.56117 0.33337,-0.22225 0.66146,-0.44979 1.00277,-0.6641 0.93662,-0.58738 1.82827,-0.17992 2.7014,0.0953 0.65352,0.20637 1.25147,0.57414 1.87854,0.86518 0.14023,0.0661 0.25135,0.16669 0.35454,0.27517 0.22225,0.24077 0.43392,0.48419 0.73819,0.62971 0.23812,0.11377 0.2831,0.37835 0.38629,0.58473 z m -0.57679,1.66423 c 0.0608,-0.70115 -0.045,-1.32821 -0.57415,-1.72773 -1.01865,-0.77523 -2.15371,-1.34408 -3.43694,-1.52665 -0.34925,-0.0503 -0.79639,-0.0476 -1.06891,0.0979 -0.7329,0.39158 -1.4314,0.85989 -1.84415,1.65629 -0.20637,0.39952 -0.26987,0.83344 -0.43127,1.2356 -0.4154,1.03453 -0.0608,2.88925 0.96308,3.56659 0.95779,0.62971 1.92617,0.90752 3.05329,0.71702 0.82286,-0.13758 1.4658,-0.59796 2.05317,-1.11919 0.49742,-0.44185 0.98425,-0.92604 1.16946,-1.61925 0.11906,-0.44185 0.12171,-0.88635 0.11642,-1.28058 z"
         id="path304-1"
         style="stroke-width:0px" />
      <path
         class="cls-2"
         d="m 99.23578,138.74048 c -0.0794,0.20108 0.18786,0.41275 0.0317,0.59002 -0.20902,0.23548 -0.55298,0.30956 -0.82285,0.33866 -0.57679,0.0635 -1.06627,0.36778 -1.61925,0.47625 -0.0952,0.0185 -0.18256,0.10848 -0.27517,0.003 -0.0556,-0.0661 -0.0503,-0.13758 -0.0291,-0.21431 0.037,-0.13229 0.13493,-0.1614 0.25929,-0.17198 0.46302,-0.037 0.9181,-0.082 1.32556,-0.35454 0.20902,-0.14023 0.3175,-0.30957 0.34396,-0.55034 0.005,-0.0476 0.003,-0.10054 0.0132,-0.14816 0.0661,-0.27782 0.10848,-0.66411 0.45244,-0.63765 0.29898,0.0238 0.34925,0.37306 0.32014,0.6694 z"
         id="path305"
         style="fill:#f2e70f;stroke-width:0px" />
      <path
         class="cls-2"
         d="m 98.56374,124.64877 c 0.52917,0.39952 0.635,1.02658 0.57415,1.72773 0.005,0.39423 0.003,0.83873 -0.11642,1.28058 -0.18521,0.69321 -0.67204,1.1774 -1.16946,1.61925 -0.58737,0.52123 -1.23031,0.98161 -2.05317,1.11919 -1.12712,0.1905 -2.0955,-0.0873 -3.05329,-0.71702 -1.02393,-0.67734 -1.37848,-2.53206 -0.96308,-3.56659 0.1614,-0.40216 0.2249,-0.83608 0.43127,-1.2356 0.41275,-0.7964 1.11125,-1.26471 1.84415,-1.65629 0.27252,-0.14552 0.71966,-0.14817 1.06891,-0.0979 1.28323,0.18257 2.41829,0.75142 3.43694,1.52665 z m -3.00302,3.65389 c 0.73819,-0.005 1.33615,-0.53445 1.22767,-1.16152 -0.12436,-0.69585 -0.4789,-1.2647 -1.19327,-1.52135 -0.37307,-0.13229 -1.09009,0.0132 -1.2118,0.2831 -0.17462,0.37571 -0.41275,0.72496 -0.28045,1.2118 0.17197,0.64293 0.78052,1.19327 1.45785,1.18797 z"
         id="path306"
         style="fill:#f2e70f;stroke-width:0px" />
      <path
         class="cls-1"
         d="m 96.78839,127.14114 c 0.10848,0.62707 -0.48948,1.15623 -1.22767,1.16152 -0.67733,0.005 -1.28588,-0.54504 -1.45785,-1.18797 -0.1323,-0.48684 0.10583,-0.83609 0.28045,-1.2118 0.12171,-0.26987 0.83873,-0.41539 1.2118,-0.2831 0.71437,0.25665 1.06891,0.8255 1.19327,1.52135 z m -0.78582,-0.16139 c 0.0767,-0.20109 -0.35983,-0.50271 -0.67733,-0.50271 -0.3175,0 -0.57415,0.21167 -0.57679,0.50271 -0.003,0.24077 0.32014,0.4445 0.67998,0.44979 0.32014,0.005 0.48683,-0.21167 0.57414,-0.44979 z"
         id="path307-1"
         style="stroke-width:0px" />
      <path
         class="cls-2"
         d="m 95.49987,140.03164 c 0.0609,0.254 0.1561,0.50007 -0.09,0.73025 -0.13229,0.12436 -0.0476,0.26988 0.0582,0.39952 0.13758,0.16934 0.20372,0.35719 -0.0106,0.52653 -0.10319,0.0794 -0.22754,0.12435 -0.35189,0.0635 -0.15346,-0.0741 -0.0582,-0.19315 -0.0238,-0.29369 0.0423,-0.12436 0.0476,-0.24606 -0.0106,-0.36513 -0.40746,-0.8255 -0.33337,-1.73566 -0.4789,-2.60879 -0.127,-0.77258 -0.14552,-1.57162 -0.49741,-2.29923 -0.15875,-0.32544 -0.045,-0.67469 -0.0529,-1.01071 0.64294,1.57957 1.06892,3.21205 1.45786,4.85775 z"
         id="path308"
         style="fill:#f2e70f;stroke-width:0px" />
      <path
         class="cls-2"
         d="m 94.31189,141.73821 c 0.037,0.23548 -0.11377,0.33602 -0.29634,0.41804 -0.045,0.0185 -0.082,0.0265 -0.11641,0.0265 -0.13759,0 -0.20109,-0.13759 -0.2593,-0.23813 -0.16139,-0.28839 -0.21166,-0.61648 -0.2487,-0.93662 -0.0371,-0.30427 -0.0847,-0.59002 -0.26194,-0.84932 -0.0979,-0.14023 -0.0423,-0.32014 -0.0344,-0.48418 -0.0556,-0.70644 -0.19843,-1.39171 -0.45773,-2.06111 -0.19579,-0.50271 -0.30162,-1.03187 -0.30956,-1.57691 -0.003,-0.12965 0.005,-0.27517 0.127,-0.33338 0.14552,-0.0688 0.2249,0.082 0.30163,0.16669 0.2831,0.30691 0.49477,0.64029 0.59531,1.06627 0.18256,0.78052 0.22754,1.59014 0.4445,2.36008 0.20108,0.72231 0.21431,1.47638 0.46831,2.18281 0.0291,0.082 0.037,0.17198 0.0476,0.2593 z"
         id="path309"
         style="fill:#f2e70f;stroke-width:0px" />
      <path
         class="cls-1"
         d="m 93.89914,142.18271 0.14552,0.69056 c -0.23284,0.0344 -0.46302,0.12171 -0.68263,0.26723 -0.41275,0.27252 -0.90223,0.3466 -1.36789,0.14023 -0.32015,-0.14288 -0.5715,-0.15082 -0.91811,-0.037 -1.12712,0.36777 -2.23044,0.80168 -3.41312,1.03716 -0.95779,0.1905 -1.92617,0.33867 -2.88396,0.54769 -0.78317,0.16933 -1.45256,-0.1561 -1.84679,-0.83608 -0.037,-0.0609 -0.0423,-0.14288 -0.0503,-0.21432 -0.008,-0.082 -0.0212,-0.16404 -0.0344,-0.24341 l 0.42598,-0.082 c 0.0661,0.44185 0.31485,0.63235 0.77787,0.65616 0.75671,0.0397 1.44992,-0.25929 2.17223,-0.39158 0.93398,-0.17198 1.8124,-0.54769 2.75432,-0.70379 0.68262,-0.11377 1.30439,-0.46302 2.01877,-0.77788 -0.12965,-0.0291 -0.16669,-0.0476 -0.19579,-0.0423 -0.59796,0.14817 -1.19328,0.30956 -1.82034,0.20373 -0.0582,-0.008 -0.127,0.0106 -0.18256,0.037 -0.50006,0.25665 -1.03452,0.38894 -1.59544,0.38629 -0.89958,0 -1.22237,-0.22489 -1.05039,-1.16681 0.0476,-0.26988 0.0529,-0.5424 0.13229,-0.81227 0.0212,-0.0688 0.0423,-0.1614 0.0423,-0.24606 h 0.58473 c 0,0.0423 0.003,0.0873 0.005,0.13229 0.0159,0.27252 0.008,0.55298 -0.045,0.81756 -0.0873,0.43392 -0.008,0.52123 0.45244,0.47625 0.50006,-0.0503 0.96838,-0.2884 1.46315,-0.30162 0.52387,-0.0132 1.016,-0.11378 1.51606,-0.24871 0.30956,-0.0873 0.45508,-0.24077 0.41539,-0.47096 -0.0185,-0.58473 -0.21166,-1.04246 -0.30427,-1.52136 -0.005,-0.0238 -0.0106,-0.045 -0.0159,-0.0635 l 0.65617,-0.1905 c 0.0503,0.18786 0.10847,0.37307 0.17197,0.55828 0.0979,0.29104 0.21696,0.57943 0.19315,0.90222 0.38629,0.50271 0.22225,1.15888 0.49742,1.69334 0.13758,0.26723 0.36512,0.15875 0.56621,0.13494 0.20372,-0.0265 0.2831,-0.19315 0.23812,-0.36248 -0.1561,-0.61384 -0.10319,-1.26736 -0.32808,-1.87061 l 0.73554,-0.12171 c 0.17727,0.2593 0.22489,0.54505 0.26194,0.84932 0.037,0.32014 0.0873,0.64823 0.2487,0.93662 0.0582,0.10054 0.12171,0.23813 0.2593,0.23813 z"
         id="path310-5"
         style="stroke-width:0px" />
      <path
         class="cls-2"
         d="m 92.72174,142.15096 c 0.045,0.16933 -0.0344,0.33602 -0.23812,0.36248 -0.20109,0.0238 -0.42863,0.13229 -0.56621,-0.13494 -0.27517,-0.53446 -0.11113,-1.19063 -0.49742,-1.69334 0.0238,-0.32279 -0.0952,-0.61118 -0.19315,-0.90222 -0.0635,-0.18521 -0.1217,-0.37042 -0.17197,-0.55828 -0.13494,-0.4736 -0.23019,-0.94985 -0.26988,-1.43668 -0.037,-0.41011 -0.0317,-0.8255 0.0212,-1.24884 0.0291,-0.23018 0.12435,-0.3757 0.37571,-0.38629 h 0.0212 c 0.23813,0 0.21167,0.18256 0.25929,0.34925 0.19844,0.67204 0.26988,1.38377 0.5768,2.02406 0.11641,0.24342 0.17462,0.48684 0.11112,0.762 -0.0714,0.31221 0.0767,0.60061 0.19579,0.87048 0.0185,0.0397 0.0344,0.0794 0.0476,0.12171 0.22489,0.60325 0.17198,1.25677 0.32808,1.87061 z"
         id="path311"
         style="fill:#f2e70f;stroke-width:0px" />
      <path
         class="cls-1"
         d="m 91.2533,135.38556 -0.0503,0.76729 h -0.0212 c -0.25136,0.0106 -0.34661,0.15611 -0.37571,0.38629 -0.0529,0.42334 -0.0582,0.83873 -0.0212,1.24884 l -0.66675,0.0556 c -0.0159,-0.0979 -0.0476,-0.20108 -0.0609,-0.29898 -0.037,-0.28575 -0.24342,-0.15875 -0.41011,-0.14552 -0.23019,0.0185 -0.43391,0.11642 -0.65087,0.17198 -0.86254,0.2196 -1.73832,0.37042 -2.62202,0.46831 -0.80698,0.0873 -1.6219,0.27252 -2.43417,0.0979 -1.37583,-0.29634 -2.78342,-0.47361 -4.14073,-1.00013 0.73025,1.63248 1.34673,3.27025 1.19592,5.09852 l 0.57943,0.42863 c -0.44185,0.46831 -0.78581,1.01071 -1.18004,1.51606 -0.57943,0.73554 -1.21973,1.49225 -2.32039,1.57427 -0.97632,0.0741 -1.91823,0.0529 -2.68023,-0.60325 -0.82815,-0.71173 -1.61925,-1.51077 -2.00025,-2.54794 -0.53181,-1.43139 -0.81492,-2.90777 -0.37571,-4.45293 0.19844,-0.70644 0.44979,-1.38377 0.77787,-2.02407 0.2884,-0.5662 0.7673,-0.95514 1.43405,-1.04245 0.0609,-0.008 0.13493,0 0.17991,-0.0344 0.73819,-0.53446 1.4314,-0.22754 2.11402,0.11112 0.52388,0.25665 1.10332,0.32809 1.63513,0.55828 0.81492,0.35454 1.62454,0.762 2.51089,0.889 0.92605,0.12964 1.80182,0.42862 2.7014,0.63235 0.55563,0.127 1.19592,-0.0582 1.78858,-0.1614 1.03452,-0.17991 2.1008,-0.20108 3.10357,-0.56356 0.12435,-0.0423 0.27516,-0.0132 0.41275,-0.0212 0.18785,-0.008 0.29104,-0.10318 0.33866,-0.29104 0.23284,-0.88371 0.26723,-0.91281 1.18798,-0.82021 0.0185,0.003 0.0344,0.003 0.0503,0.003 z m -11.38502,7.72848 c 0.46831,-1.50548 0.22754,-2.9554 -0.32014,-4.37356 -0.23548,-0.60854 -0.74084,-1.0795 -0.92605,-1.70657 -0.0899,-0.29633 -0.24077,-0.45243 -0.51593,-0.51858 -0.3519,-0.082 -0.6985,-0.17727 -1.04246,-0.32279 1.7145,1.9976 2.56646,4.33387 2.80458,6.9215 z m -1.31233,0.8599 c 0.15346,-0.38894 0.254,-0.78582 0.19844,-1.2118 -0.10848,-0.86783 -0.14552,-1.72773 -0.5715,-2.54793 -0.43127,-0.8308 -0.72496,-1.73302 -1.28852,-2.50032 -0.39423,-0.5371 -0.80698,-1.05304 -1.34673,-1.45785 -0.19315,-0.14552 -0.39688,-0.18256 -0.59532,-0.0635 -0.23812,0.14023 -0.45243,0.30956 -0.63235,0.52917 -0.51329,0.63235 -0.6641,1.397 -0.80698,2.159 -0.17727,0.94985 0.0794,1.8706 0.32544,2.77283 0.21166,0.77787 0.76464,1.36525 1.24089,2.00025 0.60325,0.80169 1.41023,1.02394 2.1643,1.03452 0.90752,-0.0556 1.09802,-0.16933 1.31233,-0.71437 z"
         id="path312-7"
         style="stroke-width:0px" />
      <path
         class="cls-1"
         d="m 91.05487,139.22466 -0.65617,0.1905 c -0.0556,-0.1852 -0.17727,-0.21431 -0.35983,-0.16668 -0.87313,0.22754 -1.7489,0.44979 -2.61673,0.69321 -0.3863,0.10847 -0.51065,0.29104 -0.51065,0.65352 h -0.58473 c 0,-0.1323 -0.0503,-0.25136 -0.23283,-0.27517 -0.29898,-0.0397 -0.30692,0.24342 -0.33602,0.44979 -0.0159,0.10848 0.0265,0.22225 0.0265,0.33602 0,0.64029 0.12964,1.3044 -0.47361,1.80446 -0.381,0.3175 -0.92604,0.23548 -1.05039,-0.24606 -0.11907,-0.47625 -0.35719,-0.9234 -0.36248,-1.42611 0,-0.1905 -0.0847,-0.23812 -0.26988,-0.16404 -0.35189,0.14023 -0.42862,0.43656 -0.44714,0.762 -0.0291,0.5424 0.0132,1.0795 0.0926,1.61661 l -0.42598,0.082 c -0.0952,-0.53182 -0.29633,-1.03982 -0.33867,-1.60338 -0.36777,0.20109 -0.66939,0.45244 -0.93398,0.7329 l -0.57943,-0.42863 c 0.39158,-0.42068 0.79904,-0.80168 1.14035,-1.24089 0.19844,-0.254 0.43392,-0.49477 0.72496,-0.65088 0.86783,-0.45244 1.78858,-0.77523 2.7305,-1.03452 0.57944,-0.15875 1.17475,-0.26987 1.75683,-0.41539 0.508,-0.127 1.00542,-0.28311 1.51342,-0.41011 0.33867,-0.0873 0.70115,-0.0688 1.02923,-0.21696 0.23019,-0.10318 0.25135,-0.25929 0.22754,-0.42333 l 0.66675,-0.0556 c 0.0397,0.48683 0.13494,0.96308 0.26988,1.43668 z m -6.01663,2.75696 c 0.0741,-0.26458 0.18521,-0.52387 0.13494,-0.82814 0,-0.0688 0,-0.15611 0,-0.24342 -0.005,-0.12965 -0.0265,-0.27517 -0.18256,-0.2831 -0.15875,-0.0106 -0.32809,0.0106 -0.42598,0.17462 -0.19315,0.32544 -0.10584,0.98425 0.16668,1.23825 0.12171,0.11113 0.24607,0.15081 0.30692,-0.0582 z"
         id="path313-9"
         style="stroke-width:0px" />
      <path
         class="cls-2"
         d="m 90.80087,142.19329 c 0.0291,-0.005 0.0661,0.0132 0.19579,0.0423 -0.71438,0.31486 -1.33615,0.66411 -2.01877,0.77788 -0.94192,0.1561 -1.82034,0.53181 -2.75432,0.70379 -0.72231,0.13229 -1.41552,0.43127 -2.17223,0.39158 -0.46302,-0.0238 -0.71172,-0.21431 -0.77787,-0.65616 -0.0794,-0.53711 -0.12171,-1.07421 -0.0926,-1.61661 0.0185,-0.32544 0.0952,-0.62177 0.44714,-0.762 0.18521,-0.0741 0.26723,-0.0265 0.26988,0.16404 0.005,0.50271 0.24341,0.94986 0.36248,1.42611 0.12435,0.48154 0.66939,0.56356 1.05039,0.24606 0.60325,-0.50006 0.47361,-1.16417 0.47361,-1.80446 0,-0.11377 -0.0423,-0.22754 -0.0265,-0.33602 0.0291,-0.20637 0.037,-0.48948 0.33602,-0.44979 0.18256,0.0238 0.23283,0.14287 0.23283,0.27517 0,0.0847 -0.0212,0.17727 -0.0423,0.24606 -0.0794,0.26987 -0.0847,0.54239 -0.13229,0.81227 -0.17198,0.94192 0.15081,1.16681 1.05039,1.16681 0.56092,0.003 1.09538,-0.12964 1.59544,-0.38629 0.0556,-0.0265 0.12435,-0.045 0.18256,-0.037 0.62706,0.10583 1.22238,-0.0556 1.82034,-0.20373 z"
         id="path314"
         style="fill:#f2e70f;stroke-width:0px" />
      <path
         class="cls-2"
         d="m 90.11824,137.84354 c 0.0238,0.16404 0.003,0.32015 -0.22754,0.42333 -0.32808,0.14817 -0.69056,0.12965 -1.02923,0.21696 -0.508,0.127 -1.00542,0.28311 -1.51342,0.41011 -0.58208,0.14552 -1.17739,0.25664 -1.75683,0.41539 -0.94192,0.25929 -1.86267,0.58208 -2.7305,1.03452 -0.29104,0.15611 -0.52652,0.39688 -0.72496,0.65088 -0.34131,0.43921 -0.74877,0.82021 -1.14035,1.24089 0.15081,-1.82827 -0.46567,-3.46604 -1.19592,-5.09852 1.35731,0.52652 2.7649,0.70379 4.14073,1.00013 0.81227,0.17462 1.62719,-0.0106 2.43417,-0.0979 0.8837,-0.0979 1.75948,-0.24871 2.62202,-0.46831 0.21696,-0.0556 0.42068,-0.15346 0.65087,-0.17198 0.16669,-0.0132 0.37306,-0.14023 0.41011,0.14552 0.0132,0.0979 0.045,0.20108 0.0609,0.29898 z"
         id="path315"
         style="fill:#f2e70f;stroke-width:0px" />
      <path
         class="cls-1"
         d="m 81.10918,124.2175 c 0.33073,0.6641 0,1.49225 -0.69321,1.73302 -0.4154,0.14552 -0.46831,0.24606 -0.3519,0.67204 0.0926,0.34396 0.0767,0.69056 0.0476,1.04246 -0.037,0.43392 -0.15346,0.85989 -0.127,1.30439 0.0212,0.37307 -0.23813,0.65882 -0.59267,0.76994 -0.68262,0.21431 -1.29381,0.19844 -1.90764,-0.26458 -0.40217,-0.30163 -0.889,-0.51594 -1.40759,-0.61913 -0.42333,-0.082 -0.62177,-0.36512 -0.62971,-0.80962 -0.003,-0.1614 -0.005,-0.32544 -0.008,-0.48948 v -0.45244 c -0.005,-0.45244 0.0476,-0.90223 -0.0265,-1.35466 -0.0423,-0.254 0.17992,-0.44186 0.48948,-0.42863 0.50535,0.0185 0.91016,0.32544 1.35996,0.50271 0.25135,0.10054 0.50535,0.38629 0.74348,0.24871 0.20902,-0.11642 0.0847,-0.46567 0.0714,-0.70644 -0.0238,-0.42069 0.008,-0.83873 -0.11112,-1.26206 -0.11113,-0.39423 0.23812,-0.62442 0.52916,-0.77259 0.99219,-0.508 2.11667,-0.11112 2.61409,0.88636 z m -0.62706,0.6641 c 0.10583,-0.20637 0.0317,-0.38629 -0.127,-0.54239 -0.24342,-0.23813 -0.53975,-0.30692 -0.81757,-0.27252 -0.80698,0.003 -1.01071,0.254 -0.86254,1.00806 0.12965,0.65616 0.15081,1.32027 0.12171,1.98437 -0.0238,0.50007 -0.0741,1.00013 -0.12171,1.49754 -0.0212,0.23284 0.10583,0.32544 0.29898,0.35455 0.20638,0.0291 0.30956,-0.0873 0.31485,-0.28046 0.0318,-0.91281 0.11907,-1.82563 -0.005,-2.73844 -0.0847,-0.61912 0.10584,-0.8255 0.70379,-0.75142 0.23284,0.0291 0.39423,-0.0635 0.49478,-0.25929 z m -2.48444,4.0349 c 0.127,0.0556 0.22225,-0.0106 0.19314,-0.1905 -0.008,-0.16404 -0.045,-0.33338 -0.23018,-0.42069 l -1.50019,-0.70644 c -0.14552,-0.0688 -0.25665,-0.0609 -0.33867,0.10584 -0.0661,0.14023 -0.11377,0.29104 0.0397,0.36512 0.6059,0.29633 1.21973,0.57415 1.83621,0.84667 z m 0.127,-1.57427 c 0.0714,-0.16404 -0.0344,-0.2884 -0.19315,-0.3519 -0.30427,-0.12435 -0.5715,-0.31485 -0.84931,-0.48683 -0.24077,-0.14817 -0.508,-0.25929 -0.78317,-0.39688 -0.14023,0.0476 -0.23018,0.13494 -0.16933,0.30163 0.0556,0.14552 0.17198,0.23812 0.30162,0.32544 0.42069,0.28575 0.90223,0.43391 1.3679,0.61912 0.10848,0.0423 0.25135,0.1561 0.32544,-0.0106 z"
         id="path316-7"
         style="stroke-width:0px" />
      <path
         class="cls-2"
         d="m 80.35512,124.33921 c 0.15875,0.1561 0.23283,0.33602 0.127,0.54239 -0.10055,0.19579 -0.26194,0.2884 -0.49478,0.25929 -0.59795,-0.0741 -0.78845,0.1323 -0.70379,0.75142 0.12436,0.91281 0.037,1.82563 0.005,2.73844 -0.005,0.19314 -0.10847,0.30956 -0.31485,0.28046 -0.19315,-0.0291 -0.32015,-0.12171 -0.29898,-0.35455 0.0476,-0.49741 0.0979,-0.99747 0.12171,-1.49754 0.0291,-0.6641 0.008,-1.32821 -0.12171,-1.98437 -0.14817,-0.75406 0.0556,-1.00542 0.86254,-1.00806 0.27782,-0.0344 0.57415,0.0344 0.81757,0.27252 z"
         id="path317"
         style="fill:#f2e70f;stroke-width:0px" />
      <path
         class="cls-2"
         d="m 79.54814,138.74048 c 0.54768,1.41816 0.78845,2.86808 0.32014,4.37356 -0.23812,-2.58763 -1.09008,-4.9239 -2.80458,-6.9215 0.34396,0.14552 0.69056,0.24077 1.04246,0.32279 0.27516,0.0661 0.42598,0.22225 0.51593,0.51858 0.18521,0.62707 0.69057,1.09803 0.92605,1.70657 z"
         id="path318"
         style="fill:#f2e70f;stroke-width:0px" />
      <path
         class="cls-9"
         d="m 78.75439,142.76214 c 0.0556,0.42598 -0.045,0.82286 -0.19844,1.2118 -0.21431,0.54504 -0.40481,0.65881 -1.31233,0.71437 -0.75407,-0.0106 -1.56105,-0.23283 -2.1643,-1.03452 -0.47625,-0.635 -1.02923,-1.22238 -1.24089,-2.00025 -0.24606,-0.90223 -0.50271,-1.82298 -0.32544,-2.77283 0.14288,-0.762 0.29369,-1.52665 0.80698,-2.159 0.17992,-0.21961 0.39423,-0.38894 0.63235,-0.52917 0.19844,-0.11906 0.40217,-0.082 0.59532,0.0635 0.53975,0.40481 0.9525,0.92075 1.34673,1.45785 0.56356,0.7673 0.85725,1.66952 1.28852,2.50032 0.42598,0.8202 0.46302,1.6801 0.5715,2.54793 z"
         id="path319-1"
         style="fill:#43a6c3;stroke-width:0px" />
      <path
         class="cls-2"
         d="m 78.19082,128.726 c 0.0291,0.17991 -0.0661,0.24606 -0.19314,0.1905 -0.61648,-0.27252 -1.23031,-0.55034 -1.83621,-0.84667 -0.15346,-0.0741 -0.10583,-0.22489 -0.0397,-0.36512 0.082,-0.16669 0.19315,-0.17463 0.33867,-0.10584 l 1.50019,0.70644 c 0.1852,0.0873 0.22225,0.25665 0.23018,0.42069 z"
         id="path320"
         style="fill:#f2e70f;stroke-width:0px" />
      <path
         class="cls-2"
         d="m 77.93153,126.99033 c 0.15875,0.0635 0.26459,0.18786 0.19315,0.3519 -0.0741,0.16668 -0.21696,0.0529 -0.32544,0.0106 -0.46567,-0.18521 -0.94721,-0.33337 -1.3679,-0.61912 -0.12964,-0.0873 -0.24606,-0.17992 -0.30162,-0.32544 -0.0609,-0.16669 0.0291,-0.254 0.16933,-0.30163 0.27517,0.13759 0.5424,0.24871 0.78317,0.39688 0.27781,0.17198 0.54504,0.36248 0.84931,0.48683 z"
         id="path321"
         style="fill:#f2e70f;stroke-width:0px" />
    </g>
  </g>
</svg>
