<?xml version="1.0" encoding="UTF-8" standalone="no"?>
<!-- Created with Inkscape (http://www.inkscape.org/) -->

<svg
   width="1000.0001"
   height="1000.0001"
   viewBox="0 0 264.58335 264.58335"
   version="1.1"
   id="svg1"
   inkscape:export-filename="logo_small_color_bg_6.svg"
   inkscape:export-xdpi="96"
   inkscape:export-ydpi="96"
   xmlns:inkscape="http://www.inkscape.org/namespaces/inkscape"
   xmlns:sodipodi="http://sodipodi.sourceforge.net/DTD/sodipodi-0.dtd"
   xmlns="http://www.w3.org/2000/svg"
   xmlns:svg="http://www.w3.org/2000/svg">
  <sodipodi:namedview
     id="namedview1"
     pagecolor="#ffffff"
     bordercolor="#000000"
     borderopacity="0.25"
     inkscape:showpageshadow="2"
     inkscape:pageopacity="0.0"
     inkscape:pagecheckerboard="0"
     inkscape:deskcolor="#d1d1d1"
     inkscape:document-units="px" />
  <defs
     id="defs1" />
  <g
     inkscape:label="Layer 1"
     inkscape:groupmode="layer"
     id="layer1">
    <path
       id="path316"
       style="stroke-width:0px"
       class="cls-1"
       d="m 40.347267,130.26959 c 0.609368,1.2236 0,2.74946 -1.277234,3.19307 -0.765352,0.26812 -0.862857,0.45337 -0.648354,1.23823 0.170615,0.63375 0.141319,1.27235 0.0877,1.92073 -0.06817,0.79949 -0.282748,1.58434 -0.233996,2.40333 0.03906,0.68737 -0.438753,1.21387 -1.09199,1.4186 -1.25774,0.39487 -2.383835,0.36563 -3.51483,-0.48748 -0.740977,-0.55575 -1.637976,-0.95062 -2.593455,-1.14074 -0.779982,-0.15109 -1.145607,-0.67274 -1.160236,-1.49172 -0.0055,-0.29738 -0.0092,-0.59962 -0.01474,-0.90187 v -0.83361 c -0.0092,-0.83362 0.0877,-1.66236 -0.04883,-2.49595 -0.07794,-0.468 0.331501,-0.81413 0.901863,-0.78975 0.931104,0.0341 1.676981,0.59962 2.505716,0.92624 0.46311,0.18524 0.931103,0.71173 1.369856,0.45824 0.385118,-0.2145 0.156059,-0.85799 0.131554,-1.30161 -0.04385,-0.77511 0.01474,-1.54535 -0.204756,-2.32533 -0.204738,-0.72637 0.438752,-1.15049 0.974991,-1.42349 1.828103,-0.93599 3.899948,-0.20474 4.816422,1.63311 z m -1.155353,1.2236 c 0.194991,-0.38024 0.05841,-0.71174 -0.233996,-0.99935 -0.4485,-0.43875 -0.994485,-0.5655 -1.506367,-0.50212 -1.486835,0.006 -1.862206,0.468 -1.589223,1.85735 0.238879,1.20896 0.277885,2.43258 0.22425,3.65618 -0.04385,0.92138 -0.136529,1.84273 -0.22425,2.75921 -0.03906,0.429 0.19501,0.59962 0.550869,0.65325 0.380253,0.0536 0.570361,-0.16085 0.580127,-0.51674 0.05841,-1.68185 0.219367,-3.36371 -0.0092,-5.04556 -0.156059,-1.14072 0.194991,-1.52097 1.296728,-1.38448 0.428987,0.0536 0.726365,-0.117 0.91161,-0.47774 z m -4.577561,7.43427 c 0.233997,0.10244 0.409494,-0.0195 0.355877,-0.351 -0.01474,-0.30224 -0.08291,-0.61425 -0.424123,-0.77511 l -2.764088,-1.30161 c -0.26812,-0.12677 -0.472876,-0.11203 -0.623997,0.19501 -0.121789,0.25837 -0.20962,0.53623 0.07315,0.67273 1.116366,0.54598 2.247343,1.05786 3.383202,1.55998 z m 0.233997,-2.90058 c 0.131553,-0.30224 -0.06338,-0.53138 -0.355878,-0.64837 -0.560615,-0.22912 -1.052984,-0.58011 -1.564847,-0.89698 -0.443617,-0.27301 -0.935986,-0.47774 -1.442985,-0.73125 -0.258354,0.0877 -0.424104,0.24862 -0.311989,0.55575 0.102443,0.26812 0.316872,0.43873 0.555751,0.59962 0.7751,0.52649 1.662352,0.79947 2.520327,1.14072 0.199873,0.0779 0.463129,0.28762 0.599621,-0.0195 z m 23.82377,21.89328 -1.20899,0.351 c -0.10244,-0.34123 -0.32662,-0.39487 -0.66298,-0.30711 -1.60874,0.41924 -3.22234,0.82874 -4.821306,1.27724 -0.711729,0.19985 -0.940869,0.53624 -0.940869,1.2041 h -1.077357 c 0,-0.24376 -0.09268,-0.46313 -0.428988,-0.507 -0.550868,-0.0731 -0.565497,0.4485 -0.619114,0.82874 -0.02929,0.19987 0.04883,0.40949 0.04883,0.61911 0,1.17973 0.238861,2.40335 -0.872622,3.32471 -0.70199,0.58499 -1.706222,0.43387 -1.935336,-0.45337 -0.219367,-0.87749 -0.65812,-1.70136 -0.667866,-2.62759 0,-0.351 -0.15606,-0.43874 -0.497252,-0.30225 -0.648355,0.25838 -0.789729,0.80436 -0.823852,1.40398 -0.05362,0.99937 0.02432,1.98897 0.170615,2.97859 l -0.784865,0.15109 c -0.175405,-0.97988 -0.545986,-1.91586 -0.623997,-2.95422 -0.677613,0.37051 -1.233346,0.83362 -1.720851,1.35036 l -1.067595,-0.78974 c 0.721483,-0.7751 1.472225,-1.47709 2.101086,-2.28633 0.365624,-0.468 0.799494,-0.91161 1.335733,-1.19924 1.59897,-0.83362 3.295445,-1.42836 5.030925,-1.9061 1.067614,-0.29249 2.164466,-0.49723 3.236945,-0.76535 0.93598,-0.234 1.852466,-0.52163 2.788456,-0.75563 0.62398,-0.16085 1.29184,-0.12676 1.89635,-0.39974 0.4241,-0.19011 0.46311,-0.47774 0.41924,-0.77999 l 1.22848,-0.10244 c 0.0731,0.89698 0.24863,1.77447 0.49723,2.64707 z m -11.08559,5.07968 c 0.136529,-0.48749 0.341248,-0.96523 0.248626,-1.52584 0,-0.12676 0,-0.28763 0,-0.4485 -0.0092,-0.23888 -0.04883,-0.507 -0.336366,-0.52161 -0.292495,-0.0195 -0.604503,0.0195 -0.784864,0.32174 -0.355878,0.59962 -0.19501,1.81347 0.307125,2.28146 0.224231,0.20476 0.453363,0.27787 0.565479,-0.10723 z m 11.45119,-12.15319 -0.0927,1.41373 h -0.0391 c -0.46311,0.0195 -0.63861,0.28763 -0.69223,0.71173 -0.0975,0.78 -0.10723,1.54536 -0.0391,2.30098 l -1.22848,0.10244 c -0.0293,-0.18038 -0.0877,-0.37048 -0.11221,-0.55086 -0.0682,-0.5265 -0.4485,-0.2925 -0.75562,-0.26812 -0.42411,0.0341 -0.79948,0.2145 -1.19923,0.31687 -1.589216,0.40461 -3.202815,0.68249 -4.831042,0.86286 -1.486854,0.16085 -2.988338,0.50211 -4.484939,0.18038 -2.534956,-0.54601 -5.12843,-0.87263 -7.629263,-1.84274 1.34548,3.00784 2.481339,6.02541 2.203473,9.39399 l 1.067614,0.78975 c -0.814124,0.86285 -1.447867,1.86222 -2.174233,2.79332 -1.067595,1.35523 -2.247343,2.74946 -4.275301,2.90058 -1.798843,0.13653 -3.534323,0.0975 -4.938302,-1.11148 -1.52586,-1.31136 -2.983454,-2.78358 -3.685444,-4.69456 -0.979855,-2.63732 -1.501483,-5.35754 -0.692242,-8.20449 0.365624,-1.30161 0.828734,-2.54958 1.433238,-3.72933 0.531356,-1.04322 1.413724,-1.75984 2.642205,-1.92071 0.112208,-0.0147 0.248608,0 0.331483,-0.0634 1.360109,-0.98474 2.637343,-0.41924 3.895065,0.20474 0.965245,0.47287 2.032859,0.6045 3.012715,1.02863 1.501483,0.65323 2.993202,1.40397 4.626313,1.63797 1.706222,0.23886 3.319821,0.78973 4.97729,1.1651 1.023744,0.234 2.203474,-0.10723 3.295445,-0.29738 1.90611,-0.33148 3.870705,-0.37049 5.718295,-1.03835 0.22912,-0.0779 0.50698,-0.0243 0.76049,-0.0391 0.34611,-0.0147 0.53624,-0.19011 0.62398,-0.53624 0.42901,-1.62823 0.49237,-1.68185 2.18884,-1.51123 0.0341,0.006 0.0634,0.006 0.0927,0.006 z m -20.976801,14.23967 c 0.862876,-2.77384 0.419259,-5.44531 -0.589856,-8.05825 -0.43387,-1.12123 -1.364991,-1.98897 -1.706221,-3.14435 -0.165824,-0.54598 -0.443617,-0.83359 -0.950615,-0.95548 -0.648373,-0.15108 -1.286981,-0.32661 -1.920725,-0.59473 3.158953,3.68056 4.728683,7.98512 5.167417,12.75281 z m -2.417958,1.58436 c 0.282749,-0.71662 0.467993,-1.44787 0.365624,-2.23274 -0.199873,-1.59897 -0.268119,-3.18333 -1.052984,-4.69454 -0.794612,-1.53074 -1.335733,-3.19307 -2.374088,-4.60682 -0.726366,-0.9896 -1.486854,-1.94022 -2.48134,-2.68608 -0.355877,-0.26811 -0.731248,-0.33636 -1.096854,-0.11699 -0.438752,0.25837 -0.833617,0.57036 -1.165116,0.97499 -0.945733,1.1651 -1.223599,2.57396 -1.486854,3.97794 -0.326619,1.75009 0.146293,3.44656 0.59962,5.10892 0.39,1.43322 1.40886,2.51546 2.286347,3.68544 1.111483,1.47711 2.598319,1.8866 3.987687,1.9061 1.672099,-0.10245 2.023094,-0.31199 2.417958,-1.31622 z m 28.269699,-3.30033 0.26812,1.27235 c -0.42898,0.0634 -0.85311,0.22425 -1.25774,0.49237 -0.76049,0.50211 -1.66235,0.63861 -2.52032,0.25837 -0.58988,-0.26325 -1.05299,-0.27788 -1.69161,-0.0682 -2.07671,0.67761 -4.10955,1.47709 -6.288646,1.91096 -1.764719,0.35099 -3.548953,0.624 -5.313674,1.00911 -1.442985,0.31199 -2.67633,-0.28761 -3.402696,-1.54047 -0.06817,-0.11221 -0.07794,-0.26325 -0.09268,-0.39488 -0.01474,-0.15109 -0.03906,-0.30224 -0.06338,-0.44848 l 0.784865,-0.15109 c 0.121788,0.81411 0.580108,1.1651 1.433219,1.20897 1.394232,0.0731 2.671466,-0.47774 4.002317,-0.72148 1.72085,-0.31687 3.339329,-1.00911 5.074795,-1.29673 1.25774,-0.20962 2.40334,-0.85311 3.71958,-1.43324 -0.23888,-0.0536 -0.30712,-0.0877 -0.36076,-0.0779 -1.10172,0.273 -2.19859,0.57036 -3.35394,0.37537 -0.10723,-0.0147 -0.234,0.0195 -0.33637,0.0682 -0.92135,0.47288 -1.906086,0.71662 -2.939575,0.71174 -1.657473,0 -2.252211,-0.41436 -1.935358,-2.14984 0.0877,-0.49725 0.09747,-0.99937 0.243762,-1.4966 0.03906,-0.12677 0.07794,-0.29738 0.07794,-0.45337 h 1.077356 c 0,0.0779 0.006,0.16085 0.009,0.24375 0.0293,0.50211 0.0147,1.01886 -0.0829,1.50634 -0.16085,0.7995 -0.0147,0.96037 0.833599,0.87749 0.92138,-0.0927 1.784226,-0.53137 2.695836,-0.55573 0.96523,-0.0243 1.87198,-0.20964 2.79333,-0.45825 0.57036,-0.16085 0.83848,-0.44361 0.76537,-0.86774 -0.0341,-1.07736 -0.39,-1.92072 -0.56061,-2.80309 -0.009,-0.0438 -0.0195,-0.0829 -0.0293,-0.117 l 1.20897,-0.35099 c 0.0927,0.34613 0.19988,0.68737 0.31688,1.02862 0.18038,0.53624 0.39974,1.0676 0.35587,1.66234 0.71174,0.92624 0.4095,2.13522 0.91648,3.11996 0.2535,0.49237 0.67275,0.2925 1.04323,0.24863 0.37537,-0.0488 0.52163,-0.35588 0.43876,-0.66787 -0.28763,-1.13099 -0.19013,-2.3351 -0.60451,-3.44658 l 1.35525,-0.22425 c 0.32662,0.47776 0.41436,1.00425 0.4826,1.56486 0.0682,0.58986 0.16085,1.19436 0.45825,1.72572 0.10723,0.18524 0.22425,0.43875 0.47774,0.43875 z m 5.32342,-27.71398 c 0.19988,1.15537 -0.90186,2.13035 -2.26197,2.14009 -1.24797,0.009 -2.3692,-1.00423 -2.68608,-2.18882 -0.24374,-0.897 0.195,-1.54049 0.51675,-2.23273 0.22423,-0.49724 1.54534,-0.76536 2.23271,-0.52161 1.31623,0.47287 1.96946,1.52097 2.19859,2.80307 z m -1.44784,-0.29736 c 0.14131,-0.3705 -0.66301,-0.92624 -1.248,-0.92624 -0.58499,0 -1.05785,0.39 -1.06273,0.92624 -0.006,0.44362 0.58987,0.81899 1.25286,0.82874 0.58987,0.009 0.89698,-0.39 1.05787,-0.82874 z m 6.83952,-4.17781 c 0.46311,0.90673 0.91161,1.8281 0.85799,2.90058 -0.24862,2.31071 -0.82875,4.52393 -2.50085,6.23015 -1.09197,1.11636 -2.31071,2.2181 -3.8122,2.71047 -2.5447,0.83848 -5.06505,0.8726 -7.38063,-0.85799 -0.84823,-0.62887 -1.60872,-1.33086 -2.25221,-2.1401 -0.53626,-0.67761 -0.71662,-1.55998 -0.97988,-2.3692 -0.53623,-1.66235 -0.45824,-3.39295 -0.0584,-5.04556 0.46313,-1.90123 1.41861,-3.58307 3.11508,-4.71893 0.61425,-0.4095 1.21874,-0.82874 1.8476,-1.2236 1.72573,-1.08224 3.36857,-0.3315 4.97731,0.1754 1.2041,0.38024 2.30584,1.05785 3.4612,1.59409 0.25837,0.12179 0.46311,0.30713 0.65323,0.507 0.4095,0.44362 0.7995,0.89212 1.36011,1.16024 0.43874,0.20962 0.52161,0.6971 0.71174,1.07736 z m -1.06273,3.06633 c 0.11221,-1.29186 -0.0829,-2.44722 -1.05787,-3.18333 -1.87684,-1.42835 -3.9682,-2.47646 -6.33254,-2.81284 -0.64349,-0.0927 -1.46734,-0.0877 -1.96946,0.18038 -1.35036,0.72148 -2.63734,1.58434 -3.39783,3.0517 -0.38024,0.73611 -0.49724,1.53561 -0.79461,2.27658 -0.76536,1.90612 -0.11221,5.32342 1.77446,6.57142 1.76474,1.16023 3.54896,1.6721 5.62568,1.3211 1.5161,-0.25349 2.70071,-1.10173 3.78294,-2.0621 0.9165,-0.8141 1.81348,-1.70622 2.15472,-2.98345 0.21937,-0.81411 0.22425,-1.63309 0.21451,-2.35946 z m 5.78166,6.86389 c 0.14132,0.61425 -0.0975,1.3796 -0.60936,1.52098 -1.29673,0.34613 -2.31559,1.22362 -3.49534,1.78909 -1.48197,0.70688 -3.04195,1.23337 -4.51905,1.94511 -1.08224,0.52161 -2.29121,0.6971 -3.35883,1.25285 -0.71173,0.37049 -1.35522,0.29736 -2.10597,-0.0586 -0.96036,-0.45824 -1.99871,-0.34125 -2.8762,0.32662 -0.2925,0.21937 -0.53137,0.28275 -0.88237,0.22911 -1.6721,-0.26811 -3.04684,0.32662 -4.16318,1.54049 -0.64838,0.70199 -0.95062,0.73612 -1.80861,0.33637 -1.68671,-0.78975 -3.061446,-1.97922 -4.309425,-3.31496 -0.70687,-0.75074 -1.428352,-1.5551 -1.871969,-2.46671 -0.458246,-0.94085 -0.65812,-2.02309 -0.848246,-3.06633 -0.22425,-1.19922 -0.487487,-2.40333 -0.336366,-3.59769 -0.07315,-2.14985 0.404612,-4.14369 0.965245,-6.16678 0.560615,-2.01335 1.681846,-3.6562 2.720195,-5.39167 0.54599,-0.91161 1.22849,-1.73059 1.681846,-2.70072 0.25351,-0.5411 0.82873,-0.78973 1.22848,-1.20897 1.22362,-1.29186 2.39847,-2.63246 3.9682,-3.54895 1.39423,-0.80925 2.81284,-1.49661 4.44593,-1.63798 1.77935,-0.15606 3.56358,-0.36074 5.30879,0.18038 1.70624,0.52649 3.34909,1.21873 4.9822,1.93534 0.3656,0.16084 0.72635,0.29737 1.12123,0.35099 1.5551,0.2145 1.82322,0.45825 2.13034,1.98411 0.30711,1.51123 0.73123,3.00295 0.84823,4.5483 0.13653,1.84271 0.741,3.62694 0.61912,5.49892 -0.0243,0.39974 0.22425,0.8141 0.20962,1.21873 -0.0391,1.20411 0.23888,2.40821 -0.009,3.62206 -0.0829,0.39487 0.4095,0.69225 0.37537,1.15536 -0.0927,1.28211 0.30713,2.49597 0.58988,3.72445 z m -2.56909,0.25349 c 0.64349,-0.33636 0.76049,-0.70199 0.65323,-1.36984 -0.34611,-2.07184 -0.72636,-4.13882 -0.80922,-6.25454 -0.0682,-1.6721 -0.0243,-3.3832 -0.67763,-4.99192 -0.0682,-0.16085 -0.0584,-0.35588 -0.0731,-0.44362 0.0877,-0.32661 0.0341,-0.55086 0.009,-0.78 -0.16085,-1.71108 -0.72635,-3.33931 -0.93599,-5.04067 -0.0975,-0.77023 -0.41436,-1.43322 -1.36009,-1.60385 -0.55575,-0.10244 -1.06762,-0.42899 -1.6136,-0.62398 -1.26261,-0.4485 -2.4326,-1.16512 -3.76833,-1.38937 -2.74946,-0.46799 -5.40629,-0.14132 -7.86326,1.21874 -1.52098,0.8385 -2.85183,1.93535 -3.95356,3.31495 -0.81899,1.02861 -1.50637,2.15473 -2.37409,3.13458 -1.291856,1.44785 -2.125476,3.1687 -2.915205,4.8993 -1.199242,2.62271 -1.486855,5.41118 -1.247994,8.27275 0.04883,0.59962 0.151084,1.14074 0.599624,1.56973 0.44361,0.42412 0.57036,0.9896 0.65812,1.56973 0.0293,0.20474 0.0438,0.40949 0.17061,0.58986 1.189479,1.65748 2.432585,3.26134 4.246055,4.31432 0.53624,0.30711 0.89698,0.30224 1.38449,-0.16085 1.00423,-0.94573 2.18884,-1.51121 3.64644,-1.35523 0.46799,0.0488 0.94573,-0.10244 1.4381,-0.27786 0.91161,-0.32662 1.90609,-0.70687 2.9347,-0.19013 0.56062,0.28275 1.15049,0.2925 1.80373,0.0829 1.46248,-0.46311 2.83233,-1.13097 4.25094,-1.68184 2.00361,-0.77998 3.89019,-1.81347 5.79629,-2.8031 z m 6.7079,16.56988 c 0.4095,0.741 0.006,1.78424 -0.76537,2.13035 -1.16023,0.52163 -2.45696,0.62886 -3.60257,1.15049 -1.01398,0.45824 -2.06696,0.76535 -3.11995,1.01398 -1.07736,0.24862 -2.08159,0.79461 -3.2077,0.82387 -0.26324,0 -0.507,0.0584 -0.73611,0.1754 -0.16583,0.0779 -0.35589,0.22425 -0.51187,0.19987 -1.20899,-0.17061 -2.00849,0.74098 -2.99809,1.1261 -1.00911,0.39 -1.9451,0.546 -3.03221,0.19987 -0.42898,-0.14132 -0.88235,-0.18038 -1.33085,-0.11202 l -0.26812,-1.27235 c 0.0634,0 0.13156,-0.0147 0.21449,-0.0488 0.33638,-0.15108 0.61425,-0.33636 0.546,-0.77023 -0.0195,-0.16085 -0.0341,-0.32662 -0.0877,-0.47776 -0.46799,-1.30159 -0.49237,-2.69096 -0.86286,-4.02181 -0.39974,-1.41861 -0.48262,-2.91033 -0.81899,-4.34843 -0.18526,-0.78487 -0.57524,-1.39912 -1.09687,-1.9646 -0.14132,-0.15605 -0.28761,-0.43387 -0.55573,-0.30712 -0.22425,0.10723 -0.23888,0.37537 -0.234,0.61425 0.0147,1.00423 0.20962,1.9792 0.57037,2.90544 0.47773,1.23337 0.74099,2.49597 0.84336,3.79758 -0.0147,0.30225 -0.117,0.63373 0.0634,0.8921 l -1.35523,0.22425 c -0.0243,-0.0779 -0.0536,-0.15108 -0.0877,-0.22425 -0.21937,-0.49723 -0.49237,-1.02861 -0.36074,-1.60385 0.117,-0.50698 0.009,-0.95548 -0.20476,-1.40398 -0.56549,-1.17973 -0.6971,-2.49109 -1.06273,-3.72932 -0.0877,-0.30712 -0.0391,-0.64349 -0.47774,-0.64349 l 0.0927,-1.41372 c 0.30711,0.0147 0.47774,-0.0829 0.63861,-0.36074 0.57524,-0.97986 1.07248,-1.16512 2.14497,-0.73125 0.44848,0.18526 0.77024,0.14132 1.02861,-0.22423 0.64835,-0.91163 1.55998,-0.67275 2.37897,-0.468 0.57523,0.1463 1.04322,0.15109 1.58434,-0.0779 2.11085,-0.88235 4.20219,-1.82322 6.36178,-2.55934 1.40398,-0.47774 2.78847,-0.95061 4.1437,-1.55998 0.87262,-0.38998 1.89148,-0.58011 2.74945,0.18038 0.77512,0.68736 0.85312,2.30584 -0.36562,3.23208 -0.93599,0.71174 -1.89147,1.48686 -3.12969,1.67697 -0.41438,0.0682 -0.80924,0.19987 -1.16024,0.4485 -0.10723,0.0829 -0.25837,0.20473 -0.36074,0.18038 -1.42836,-0.31201 -2.53009,0.77023 -3.86095,0.89698 -0.43875,0.0439 -0.90675,0.15108 -1.35036,0.27786 -0.85798,0.24863 -1.54536,0.87749 -2.45208,1.04812 -0.38026,0.0731 -0.44362,0.51186 -0.36075,0.87749 0.21937,0.96523 0.69225,1.84759 0.86286,2.8372 0.0682,0.40461 0.39487,0.65812 0.88724,0.57036 0.26812,-0.0488 0.55086,-0.0147 0.82873,-0.0391 0.75562,-0.0536 1.32599,-0.351 1.55024,-1.14561 0.25349,-0.89211 0.88235,-1.31135 1.79398,-1.35036 0.37536,-0.0147 0.61912,0.0975 0.86772,0.42412 0.585,0.76049 1.0725,1.55997 1.45274,2.43259 0.14629,0.32662 0.37537,0.44362 0.73124,0.32174 1.82809,-0.61912 3.74881,-0.98474 5.46966,-1.9061 0.47774,-0.25349 0.73612,-0.19987 0.97986,0.29738 0.30712,0.62398 0.69712,1.2041 1.03349,1.80859 z m -2.30584,0.80924 c 0.2925,-0.0975 0.70687,-0.25349 0.56062,-0.65323 -0.14132,-0.37537 -0.49724,-0.12179 -0.78487,-0.0975 -1.06761,0.0779 -1.91098,0.76049 -2.90546,1.02374 -0.62398,0.16583 -1.28698,0.234 -1.87197,0.49237 -1.65259,0.73123 -3.46606,0.84823 -5.16255,1.41859 -0.49725,0.16583 -1.03837,0.20476 -1.5551,0.32662 -0.28274,0.0682 -0.41925,0.26814 -0.38511,0.57038 0.0293,0.26324 0.18038,0.36074 0.55085,0.30224 0.0195,-0.0147 0.0877,-0.0293 0.15108,-0.0391 0.93599,-0.0779 1.73548,-0.60448 2.65685,-0.76535 0.98962,-0.17541 1.96459,-0.47776 2.9347,-0.75562 0.95061,-0.27787 1.8866,-0.60449 2.83233,-0.89698 0.99449,-0.31199 1.99386,-0.59963 2.97859,-0.92624 z m -2.15958,-11.86557 c 0.14131,-0.10244 0.30224,-0.25837 0.1901,-0.46799 -0.0927,-0.17541 -0.31687,-0.30713 -0.46311,-0.23887 -0.55575,0.23887 -1.23336,0.1463 -1.70622,0.5265 -1.41861,1.1456 -3.39295,0.86772 -4.84081,1.91584 -0.0147,0.009 -0.0439,0.006 -0.0682,0.009 -0.34123,0.0634 -0.64836,0.24863 -0.96035,0.34125 -1.04324,0.29736 -1.91586,1.18948 -2.93472,0.97985 -0.72148,-0.11699 -1.09197,0.234 -1.51609,0.45825 -0.12677,0.0682 -0.25838,0.15606 -0.20962,0.31687 0.0536,0.19988 0.22911,0.19499 0.39974,0.17062 0.86286,-0.12677 1.72085,-0.19988 2.55445,-0.55087 1.21387,-0.51186 2.47648,-0.93599 3.75858,-1.23335 1.45273,-0.33636 2.82745,-0.85799 4.21682,-1.36011 0.57036,-0.20473 1.09686,-0.50211 1.57948,-0.86774 z m -5.21619,11.23671 c 0.28763,-0.32662 -0.20474,-0.71662 -0.0584,-1.0871 0.0536,-0.54601 -0.0391,-1.1895 -0.58985,-1.23337 -0.63375,-0.0488 -0.71174,0.66299 -0.83362,1.17487 -0.0195,0.0877 -0.0147,0.18524 -0.0243,0.27298 -0.0488,0.44362 -0.24863,0.75563 -0.63375,1.014 -0.75075,0.50211 -1.58923,0.58499 -2.44234,0.65323 -0.22911,0.0195 -0.40949,0.0731 -0.47774,0.31688 -0.0391,0.14132 -0.0488,0.27298 0.0536,0.39486 0.17061,0.19499 0.3315,0.0293 0.507,-0.006 1.01884,-0.19985 1.9207,-0.76048 2.98346,-0.87748 0.49723,-0.0536 1.13098,-0.19011 1.5161,-0.62398 z m -7.10764,2.63733 c 0.45336,-0.42411 0.27786,-0.87749 0.16582,-1.34548 -0.71662,-3.03219 -1.50148,-6.04002 -2.6861,-8.95037 0.0147,0.61912 -0.19499,1.26261 0.0975,1.86223 0.64838,1.34061 0.6825,2.81284 0.91649,4.23631 0.26812,1.60874 0.13156,3.2857 0.88237,4.80668 0.10724,0.21938 0.0975,0.44361 0.0195,0.67274 -0.0634,0.18525 -0.23887,0.40462 0.0439,0.54113 0.22911,0.1122 0.45822,0.0293 0.64835,-0.117 0.39487,-0.31201 0.273,-0.65812 0.0195,-0.97013 -0.19499,-0.23886 -0.35099,-0.50698 -0.10723,-0.73611 z M 98.5149,108.18616 c 0.17559,0.56061 0.0927,1.12123 -0.66299,1.27237 -0.12676,0.0243 -0.26325,0.12179 -0.34613,0.22423 -1.17485,1.41374 -2.87132,2.16935 -4.23629,3.32959 -1.131,0.96036 -2.22785,1.95484 -3.50509,2.7202 -0.32662,0.19987 -0.48262,0.55086 -0.53135,0.93598 -0.21451,1.76472 -0.24863,3.52458 -0.19988,5.30881 0.0391,1.4576 0.12677,2.93957 -0.0877,4.41179 -0.0536,0.34613 0.13155,0.72151 0.117,1.08225 -0.0634,1.76472 -0.31201,3.51483 -0.26326,5.2893 0.0147,0.57036 -0.0634,1.15048 -0.18038,1.7111 -0.13155,0.61423 -0.34611,1.2041 0,1.81347 0.0488,0.0927 0.0536,0.24375 0.0147,0.34123 -0.54112,1.36986 0.13653,2.71047 0.11221,4.07058 -0.009,0.56548 0.0927,1.1066 -0.36074,1.5551 -0.12179,0.12179 -0.16085,0.29736 -0.10723,0.45337 0.21936,0.58499 -0.25349,0.66298 -0.59962,0.78973 -0.48749,0.1754 -0.49724,-0.27299 -0.60937,-0.55087 -0.68736,-1.66722 -0.82874,-3.4612 -1.2236,-5.19666 -0.41438,-1.82324 -0.88237,-3.63671 -1.25774,-5.46968 -0.32662,-1.60871 -0.49723,-3.24669 -0.83848,-4.85054 -0.34611,-1.62337 -0.63861,-3.26134 -1.13098,-4.86031 -0.35588,-1.14561 -0.32175,-2.37409 -0.48262,-3.56357 -0.12677,-0.93112 -0.28761,-1.85736 -0.37537,-2.79334 -0.0584,-0.63373 0.15108,-1.28698 -0.19013,-1.91096 -0.16085,-0.29738 0.2145,-0.48263 0.40463,-0.65812 1.08222,-1.02861 2.16447,-2.05722 3.2857,-3.04684 2.09622,-1.8476 4.26069,-3.61718 6.30816,-5.51353 1.18459,-1.09199 2.41307,-2.1596 3.41244,-3.4417 0.18524,-0.23888 0.40949,-0.44362 0.64349,-0.62886 0.37537,-0.30226 0.75561,-0.66787 1.30161,-0.38512 0.56548,0.2925 0.94085,0.70199 0.66787,1.3406 0.0243,1.2041 0.40949,2.28635 0.4826,3.42219 0.0584,0.93598 0.15109,1.88173 0.43875,2.79821 z m -1.72085,0.11221 c 0.11699,-0.10245 0.0731,-0.25838 0.0584,-0.39489 -0.19987,-1.73546 -0.38998,-3.47094 -0.5996,-5.34777 -0.73613,0.84334 -1.45273,1.53558 -2.13034,2.2717 -0.9165,0.99448 -1.91098,1.93047 -2.9786,2.78358 -2.38383,1.90123 -4.68967,3.89995 -6.9175,5.98154 -0.61914,0.57524 -0.97988,1.13586 -0.77026,2.02797 0.37051,1.59411 0.25351,3.27596 0.77512,4.84569 0.37537,1.12123 0.39975,2.30095 0.69224,3.44656 0.31687,1.23337 0.24375,2.55933 0.55574,3.83657 0.39,1.60873 0.52649,3.27108 0.82387,4.89929 0.10244,0.5655 0.24862,1.22362 0.66786,1.87686 0.0682,-0.20962 0.10724,-0.273 0.10724,-0.33637 -0.0877,-1.53072 -0.0439,-3.0517 0.0682,-4.5873 0.0829,-1.13586 0.17559,-2.30096 0.14132,-3.42708 -0.0488,-1.73059 0.0682,-3.45633 0.0341,-5.18693 -0.0293,-1.68184 0.10724,-3.36369 0.15109,-5.04555 0.009,-0.43873 0.18038,-0.71174 0.54112,-0.96523 1.1651,-0.81898 2.37895,-1.57947 3.47582,-2.51059 0.9506,-0.80436 1.90122,-1.65259 3.03708,-2.18397 0.9701,-0.45824 1.50148,-1.33573 2.26683,-1.98408 z m 19.64109,-4.36802 c 0.81899,0.45825 1.05785,0.91649 0.74098,1.78423 -0.36563,0.97986 -0.60449,1.98409 -1.3406,2.84695 -0.48262,0.5655 -0.57036,1.48685 -0.79461,2.25709 -0.39488,1.36499 -1.10662,2.58371 -1.8476,3.75857 -0.81412,1.29673 -1.5941,2.59834 -2.1011,4.04133 -0.26324,0.7556 -0.80924,1.33571 -1.11149,2.06696 -0.95061,2.33508 -2.29609,4.47031 -3.52944,6.66402 -0.45336,0.80924 -1.30161,0.84824 -2.08647,0.76537 -1.60385,-0.18038 -3.18333,0.0584 -4.76767,0.15606 -0.58013,0.0341 -1.16024,0.0391 -1.74036,0.0293 -0.51673,-0.0147 -0.92622,0.0341 -0.66785,0.72637 -0.31201,1.40398 0.42899,2.66172 0.55573,4.01206 0.0341,0.36563 0.12676,0.72637 0.117,1.09686 -0.0293,0.99448 0.52161,1.86222 0.59962,2.83721 0.0439,0.58986 0.26324,1.17973 -0.006,1.76961 -0.0731,0.15108 0,0.25349 0.0927,0.37048 0.31687,0.40462 0.40461,0.87749 0.32174,1.37472 -0.0682,0.41926 0.0877,0.64838 0.48262,0.78975 1.2821,0.468 2.57884,0.90673 3.82682,1.44299 1.24311,0.53624 2.40821,1.24797 3.66107,1.76472 2.06209,0.85311 3.9487,2.10108 6.11803,2.7202 0.84824,0.23888 1.35036,0.77512 1.55023,1.6721 0.32662,1.46736 0.35586,2.96396 0.57037,4.43618 0.13155,0.87263 0.20473,1.75986 0.38511,2.63246 0.16583,0.82387 0.43874,1.64286 0.24375,2.52035 -0.10245,0.46799 -0.0536,0.96523 0.0927,1.44296 0.15606,0.51189 0.22425,1.014 0.0877,1.56973 -0.14132,0.55087 0.13155,1.11637 0.16085,1.68673 0.0488,1.07248 0.24374,2.13523 0.39974,3.20282 0.0682,0.42413 -0.0488,0.78975 -0.30712,1.09688 -1.1066,1.30647 -1.93047,2.82745 -3.18819,4.01693 -0.31688,0.29737 -0.34614,0.77511 -0.59474,1.15048 -1.69648,2.58371 -3.54896,5.05531 -5.4063,7.5269 -0.69712,0.92135 -1.31624,1.90609 -1.91098,2.8957 -0.25349,0.41924 -0.67761,0.44361 -1.00911,0.67274 -0.45825,0.31688 -0.67761,-0.0634 -1.02373,-0.2145 -0.99448,-0.43875 -2.02309,-0.79461 -3.04683,-1.15535 -1.77447,-0.61425 -3.61232,-0.97499 -5.33805,-1.8281 -1.13584,-0.56062 -2.4472,-0.94087 -3.72444,-1.24311 -1.65748,-0.39487 -3.14432,-1.24312 -4.76768,-1.72572 -2.01821,-0.6045 -3.99744,-1.33087 -6.07417,-1.7111 -0.63372,-0.11203 -0.96034,-0.42899 -1.03347,-1.10174 -0.15606,-1.41861 -0.19501,-1.4381 1.03836,-2.10597 0.84824,-0.45336 1.77446,-0.74099 2.69584,-0.95548 1.38447,-0.32662 2.70557,-0.81412 3.98769,-1.40398 0.38998,-0.1754 0.79461,-0.22425 1.2041,-0.31201 0.83848,-0.1754 1.46248,-0.49235 1.63798,-1.50146 0.32173,-1.92561 0.27786,-3.89507 0.72636,-5.78167 0.33637,-1.41861 -0.20475,-2.25709 -1.3211,-2.87134 -1.1895,-0.6581 -2.11572,-1.6721 -3.38809,-2.25709 -0.86285,-0.38998 -1.57459,-1.18459 -1.70133,-2.30096 -0.21939,-1.92559 -0.71174,-3.80732 -0.81899,-5.75729 -0.0536,-0.97499 -0.42901,-1.93047 -0.60451,-2.91032 -0.45336,-2.50084 -0.91161,-5.00169 -1.64284,-7.43914 -0.48262,-1.60874 -0.50211,-3.27595 -0.82387,-4.89932 -0.47285,-2.4277 -0.81898,-4.87492 -1.16998,-7.31725 -0.47774,-3.30521 -0.95061,-6.61528 -1.22848,-9.94974 -0.11221,-1.31622 -0.18524,-2.63246 -0.16085,-3.93407 0.0147,-1.08222 0.6825,-1.96945 1.4966,-2.71531 1.08711,-1.00425 2.31559,-1.84274 3.31984,-2.93959 1.02861,-1.12611 2.11083,-2.20347 3.11507,-3.35396 1.18949,-1.36009 2.55935,-2.53496 3.88531,-3.75369 1.33085,-1.218741 2.48623,-2.603201 3.74395,-3.895071 0.70199,-0.72636 1.49174,-1.38935 2.33022,-1.95485 0.70687,-0.47285 1.49173,-0.5801 2.35946,-0.12178 1.11148,0.5801 2.33021,0.9701 3.47582,1.49171 2.58371,1.18462 5.01143,2.65684 7.46351,4.07545 1.57461,0.916491 3.09559,1.906091 4.77255,2.656841 1.00912,0.44848 2.04747,0.84336 3.0176,1.38935 z m -1.92561,2.47646 c 0.20476,-0.42411 0.15606,-0.74098 -0.30224,-0.96523 -0.82873,-0.40463 -1.63797,-0.85311 -2.46671,-1.24797 -1.80861,-0.86774 -3.74883,-1.45273 -5.36729,-2.69096 -0.0877,-0.0682 -0.19987,-0.117 -0.31201,-0.15109 -1.13586,-0.37049 -2.10597,-1.05298 -3.11508,-1.662331 -0.82873,-0.50213 -1.68185,-0.97499 -2.54959,-1.40398 -1.0481,-0.52163 -2.18884,-0.86774 -3.17844,-1.51123 -0.51675,-0.33638 -0.91161,-0.25837 -1.20411,0.26324 -0.16582,0.29249 -0.38025,0.507 -0.66298,0.68736 -0.48262,0.30712 -0.897,0.70687 -1.38937,1.01886 -0.38512,0.23888 -0.48749,0.90674 -0.9311,1.15049 -1.04324,0.570361 -1.71111,1.530721 -2.4716,2.374091 -1.2626,1.38935 -2.68607,2.5837 -4.0998,3.80244 -0.76537,0.66298 -1.55998,1.29673 -2.30098,1.96948 -0.82873,0.75074 -1.65258,1.52584 -2.42284,2.34971 -0.82873,0.89211 -1.69159,1.76472 -2.53495,2.64709 -0.20474,0.21448 -0.31199,0.46311 -0.19988,0.76049 0.37051,0.97985 0.53138,1.99383 0.6825,3.02732 0.12676,0.88237 0.13653,1.80373 0.43387,2.65196 0.33148,0.93598 0.17559,1.94998 0.63374,2.89571 0.34123,0.71174 0.29736,1.60872 0.41436,2.42771 0.19501,1.38448 0.16085,2.78846 0.27787,4.18269 0.0975,1.15536 0.15108,2.28633 0.51674,3.39782 0.13156,0.38511 0.20962,0.80924 0.3315,1.19436 0.41438,1.33086 -0.0829,2.76897 0.5655,4.06569 0.16583,0.32662 -0.117,0.80436 0.16583,1.13586 0.36074,0.42411 0.38023,0.94085 0.43873,1.43811 0.0634,0.52649 0.17062,1.0481 0.20962,1.56973 0.0488,0.58499 0.49725,1.11148 0.39,1.61846 -0.20476,0.9555 0.0927,1.79886 0.33637,2.65197 0.24374,0.85311 -0.12179,1.75498 0.45824,2.46671 0.36074,0.44848 0.38024,0.91648 0.39,1.42347 0.0243,1.6136 0.20962,3.19796 0.75561,4.74332 0.2145,0.60936 0.63861,0.9311 1.1066,1.24797 0.17061,0.11203 0.41926,0.14132 0.52649,0.31687 0.49237,0.82387 1.53074,0.99449 2.08648,1.74523 0.0779,0.10244 0.22425,0.18524 0.35099,0.21448 0.99449,0.24377 1.64286,1.04324 2.48134,1.54536 0.4095,0.24376 0.71662,0.82875 0.51675,1.25774 -0.5265,1.13098 -0.51187,2.27172 -0.37537,3.45631 0.20473,1.76474 -0.507,3.47096 -0.37538,5.24057 0.0536,0.76048 -0.28761,1.21385 -1.07736,1.54533 -0.75074,0.31687 -1.36985,0.93112 -2.28146,0.61913 -0.0536,-0.0195 -0.13156,0.0341 -0.19988,0.0536 -1.42347,0.4485 -2.9347,0.56061 -4.33379,1.12611 -0.76538,0.30711 -1.56487,0.49724 -2.40335,0.53624 0.006,0.0584 0.009,0.117 0.0195,0.17541 1.24311,0.45824 2.49109,0.92624 3.73906,1.37472 0.86774,0.31687 1.7306,0.63862 2.65197,0.76537 0.47774,0.0634 0.93111,0.25837 1.39424,0.40949 1.64772,0.53138 3.27106,1.14561 4.91879,1.65261 1.8281,0.56548 3.63182,1.18947 5.45504,1.76472 0.97011,0.30224 1.98897,0.42898 2.91033,0.90186 0.15606,0.0829 0.42412,0.0975 0.51186,-0.0779 0.26326,-0.52161 0.83362,-0.70199 1.17487,-1.15535 0.96036,-1.27723 1.76472,-2.66658 2.75434,-3.90481 1.28698,-1.61848 2.29608,-3.39783 3.43194,-5.10406 0.88237,-1.32596 1.57947,-2.76895 2.63734,-3.97794 0.31199,-0.35586 0.42899,-0.76535 0.24863,-1.2236 -0.22425,-0.56549 -0.26814,-1.16998 -0.32664,-1.76472 -0.21937,-2.22296 -0.49235,-4.43618 -0.95548,-6.61528 -0.0927,-0.42899 -0.0293,-0.86286 -0.18524,-1.29673 -0.37049,-1.02374 -0.57525,-2.08647 -0.63861,-3.17844 -0.0341,-0.63863 -0.20476,-1.19925 -0.86774,-1.54049 -0.73611,-0.38024 -1.42349,-0.85798 -2.13035,-1.30161 -0.82387,-0.52161 -1.60873,-1.09686 -2.46184,-1.55997 -1.21874,-0.65812 -2.43259,-1.33573 -3.60257,-2.05721 -1.07248,-0.66301 -2.11572,-1.38937 -3.20283,-2.04261 -0.3315,-0.19499 -0.76537,-0.58011 -1.06273,-0.34125 -0.74587,0.58499 -0.64349,-0.0488 -0.77023,-0.42898 -0.0829,-0.26324 -0.13156,-0.59963 -0.31687,-0.75561 -0.68738,-0.57525 -0.64349,-1.40886 -0.85311,-2.14986 -0.0829,-0.28273 -0.0927,-0.58985 -0.12179,-0.88723 -0.12179,-1.27235 -0.54601,-2.48134 -0.76049,-3.7342 -0.2145,-1.25286 -0.43387,-2.50083 -0.741,-3.73418 -0.33636,-1.34061 -0.50211,-2.7251 -0.58012,-4.10957 -0.0243,-0.47287 0.19501,-0.69224 0.68737,-0.86774 1.63798,-0.5801 3.35883,-0.61911 5.03579,-0.91161 1.32111,-0.22913 2.64709,-0.4485 3.97794,-0.53623 0.97011,-0.0634 1.64286,-0.1463 2.14986,-1.23823 1.31134,-2.79821 2.96883,-5.43068 4.15344,-8.30202 0.89698,-2.17909 1.98409,-4.2753 2.8177,-6.48365 0.38024,-1.01398 0.92136,-1.96946 1.39424,-2.94933 z m 18.78797,-0.36561 -1.25772,0.61423 c -0.67275,-0.92135 -1.3796,-1.81833 -2.20834,-2.61296 -0.25837,-0.24375 -0.45338,-0.19499 -0.57524,0.12676 -0.18525,0.47286 -0.37049,0.94573 -0.54599,1.42836 -0.87262,2.42282 -2.18398,4.6653 -3.05658,7.093 -0.19501,0.53624 -0.44362,1.07736 -0.78487,1.53073 -1.47222,1.97436 -2.42284,4.24119 -3.59282,6.3764 -0.84825,1.54535 -1.7696,3.05172 -2.48134,4.67507 -0.46799,1.06273 -0.49725,2.14009 -0.351,3.16381 0.18525,1.28698 0.53624,2.5691 0.858,3.84145 0.32173,1.27235 0.28761,2.58859 0.55573,3.87557 0.35588,1.69648 0.48749,3.43682 0.71174,5.16256 0.0243,0.16085 0.006,0.32662 0.006,0.44848 -0.0927,0.79461 0.0584,1.45761 0.73125,1.91098 0.11221,0.0731 0.24861,0.14629 0.38512,0.14629 l -0.20476,0.96524 c -0.47285,-0.0877 -0.94573,-0.17061 -1.41859,-0.273 -0.21938,-0.0488 -0.51674,-0.11202 -0.53625,-0.37537 -0.0731,-1.01886 -0.63373,-1.93047 -0.62398,-3.24669 -0.43875,-1.16512 -0.2925,-2.68121 -0.49725,-4.15832 -0.21449,-1.54047 -0.69225,-3.03221 -0.73123,-4.61169 -0.0391,-1.40397 -0.38026,-2.79332 -0.68738,-4.16804 -0.26324,-1.18462 -0.0439,-2.27172 0.39488,-3.36858 0.51675,-1.26749 1.1651,-2.47159 1.82809,-3.6562 0.89699,-1.59411 1.68672,-3.2467 2.62759,-4.81642 1.15049,-1.92561 2.19371,-3.9097 3.11507,-5.95229 0.94575,-2.1011 2.04747,-4.13882 2.79821,-6.33253 0.23888,-0.69224 0.65323,-1.32111 0.84824,-2.04747 0.0877,-0.31201 0.33637,-0.60937 0.68248,-0.624 0.36563,-0.0195 0.60937,0.26812 0.77512,0.59474 0.6825,1.3211 1.66723,2.40335 2.78358,3.36857 0.18525,0.16583 0.31687,0.34125 0.36074,0.57038 0.0243,0.117 0.0391,0.24861 0.0927,0.351 z m 1.23825,1.64773 c 0.19987,0.35585 0.12179,0.60936 -0.10245,0.8726 -0.85797,0.99937 -1.70622,2.00848 -2.59345,2.98346 -0.24863,0.28274 -0.38512,0.63862 -0.65812,0.89211 -1.19922,1.13098 -2.12546,2.48134 -3.10045,3.7927 -0.58986,0.79461 -1.10174,1.64284 -1.65259,2.46183 -0.13155,0.19012 -0.24863,0.39974 -0.41926,0.546 -0.92622,0.80436 -1.39421,1.93534 -2.06208,2.91033 -0.97499,1.42835 -1.75011,2.9932 -2.71534,4.4313 -0.38513,0.57036 -0.30712,1.08224 -0.18038,1.6136 0.39487,1.58922 0.61912,3.20284 0.80436,4.82619 0.0829,0.72148 0.28275,1.4381 0.42413,2.15472 0.51186,2.55933 0.82873,5.13816 1.11148,7.72675 0.0584,0.5655 -0.0243,1.13099 0.11221,1.7111 0.1122,0.45825 -0.30226,0.61423 -0.67762,0.49724 -0.44363,-0.13156 -0.89211,-0.22912 -1.34061,-0.32174 l 0.20475,-0.96525 c 0.0682,0 0.13653,-0.0195 0.20474,-0.0634 0.19013,-0.13653 0.0634,-0.34613 0.0391,-0.51674 -0.33636,-2.22785 -0.73123,-4.44594 -0.98474,-6.67865 -0.21936,-1.9061 -0.64349,-3.7732 -0.89211,-5.67442 -0.13156,-0.99448 -0.18038,-2.0036 -0.60935,-2.9737 -0.32664,-0.75075 -0.39975,-1.59897 0.37535,-2.2961 0.39975,-0.36074 0.69224,-0.86774 0.96036,-1.35034 1.23337,-2.21811 2.70559,-4.26558 4.18272,-6.32279 1.63797,-2.2961 3.31982,-4.55319 5.10403,-6.74203 0.78975,-0.96523 1.62823,-1.88658 2.44236,-2.83234 0.18524,-0.21448 0.44361,-0.44361 0.19499,-0.78972 -0.22425,-0.31199 -0.44362,-0.61912 -0.66787,-0.92624 l 1.25772,-0.61424 c 0.0293,0.0586 0.0731,0.10724 0.13653,0.13653 0.67273,0.29738 0.78973,0.96037 1.10174,1.51123 z m 9.71572,24.555 c 0.18038,1.4966 0.0877,1.94022 -1.8866,1.91584 -1.19923,0 -2.36921,-0.24861 -3.58795,-0.18524 -1.85734,0.0975 -3.73419,0.0682 -5.59642,0.0779 -1.07734,0.006 -2.19859,-0.19985 -3.2857,0.13156 -0.34611,0.10244 -0.43387,0.19013 -0.31687,0.50211 0.0147,0.0439 0.0391,0.0829 0.0488,0.12677 0.507,2.28635 1.16512,4.52881 1.83785,6.77615 0.29738,0.99449 0.31199,2.07673 0.84336,3.02246 0.0877,0.15606 0.0341,0.4095 0.006,0.60937 -0.0829,0.624 0.0341,1.13586 0.47774,1.6526 0.43873,0.51187 0.73123,1.19923 0.74586,1.88659 0.0195,0.99936 0.0438,2.07184 0.36562,2.92984 0.43874,1.1651 0.49237,2.39358 0.95062,3.52457 0.20474,0.51187 0.17061,1.04324 0.26323,1.56485 0.18038,1.01398 0.69711,1.93047 0.82874,2.96883 0.0586,0.47774 0.17559,0.95061 0.18038,1.4381 0,0.35099 -0.006,0.70199 0.15606,1.01886 0.4875,1.00423 0.42412,2.11085 0.60937,3.1687 0.10723,0.624 0.44361,1.17975 0.47775,1.79886 0.0731,1.28698 0.91648,2.3887 0.85798,3.70006 -0.009,0.22425 0.10244,0.39488 0.2145,0.57524 0.29736,0.48262 0,0.897 -0.22425,1.28698 -0.2145,0.38512 -0.60448,0.30713 -0.9311,0.19988 -1.44299,-0.45825 -2.92009,-0.80436 -4.36794,-1.24312 -2.06697,-0.62397 -4.04619,-1.58434 -6.19603,-1.88658 -2.14011,-0.29738 -4.14369,-1.11148 -6.24966,-1.51611 -0.73613,-0.14132 -1.08712,-0.65812 -1.17486,-1.37472 -0.117,-0.96525 -0.234,-1.93047 -0.36074,-2.89084 -0.28275,-2.11085 -0.81899,-4.17781 -1.10662,-6.28378 -0.41436,-3.0517 -1.38447,-5.98154 -1.86221,-9.01861 -0.23888,-1.52586 -0.76537,-3.00297 -1.08713,-4.51418 -0.48748,-2.28147 -0.9311,-4.5727 -1.34548,-6.86391 -0.31198,-1.7306 -0.31685,-3.5002 -0.64835,-5.22592 -0.32662,-1.72573 -0.6825,-3.44658 -0.93599,-5.18204 -0.15606,-1.0725 -0.12178,-2.16935 -0.46799,-3.21745 -0.0829,-0.23888 -0.0195,-0.49726 0.14132,-0.72637 1.4576,-2.0621 2.65195,-4.27532 3.76832,-6.53727 1.03347,-2.09136 2.15472,-4.15344 3.1102,-6.27404 1.00423,-2.22785 2.32047,-4.26069 3.48557,-6.39103 1.48197,-2.71046 3.03709,-5.386791 4.77744,-7.951001 0.30712,-0.45338 0.47285,-0.99937 0.98474,-1.32111 0.40461,-0.2535 0.75072,-0.25837 1.15535,-0.009 1.27723,0.77512 2.31071,1.84762 3.44656,2.79335 0.76538,0.63374 1.53073,1.25772 2.33022,1.85246 1.27724,0.945751 2.55447,1.901231 3.65133,3.071211 0.0779,0.0829 0.13652,0.19988 0.22911,0.25349 1.86222,1.10174 2.01335,2.98346 2.3351,4.84568 0.30712,1.77447 0.34125,3.58308 0.76049,5.33805 0.15606,0.64349 -0.009,1.30161 0.10244,1.97923 0.22425,1.35522 0.63863,2.66658 0.61425,4.0998 -0.0147,0.78975 0.25837,1.70622 0.44848,2.55933 0.13156,0.60937 0.2925,1.22848 0.29738,1.84273 0.009,1.58923 0.43873,3.10534 0.72148,4.64581 0.0438,0.24374 0.0682,0.50212 0.0586,0.75561 -0.0682,1.25286 0.19988,2.46671 0.351,3.70007 z m -3.31494,-0.60449 c 0.53624,-0.0488 0.78484,-0.18524 0.5996,-0.76537 -0.0877,-0.25837 -0.0877,-0.54598 -0.12179,-0.81898 0.0147,-0.006 0.0293,-0.006 0.0438,-0.006 0,-0.117 0.0195,-0.234 -0.006,-0.34613 -0.66299,-3.29058 -0.62887,-6.66402 -1.23335,-9.97409 -0.38025,-2.09623 -0.73611,-4.21194 -1.03836,-6.33254 -0.312,-2.16447 -0.68737,-4.31919 -1.07736,-6.47391 -0.273,-1.50146 -0.70199,-2.78845 -1.99873,-3.6757 -0.28761,-0.19499 -0.5996,-0.3656 -0.83848,-0.60936 -1.77935,-1.75498 -3.84145,-3.163821 -5.77192,-4.733551 -0.54111,-0.43874 -0.75073,-0.4095 -1.02861,0.24374 -1.07248,2.495971 -2.48134,4.806681 -3.87069,7.117401 -1.62823,2.71046 -3.09557,5.50867 -4.57268,8.29713 -0.64349,1.20897 -1.25286,2.44722 -1.90123,3.65132 -0.72636,1.36009 -1.46734,2.70071 -2.12058,4.09981 -0.39488,0.84824 -0.73611,1.73059 -1.32599,2.50083 -0.60936,0.80438 -0.84336,1.69647 -0.44361,2.7836 0.32662,0.90673 0.71173,1.85734 0.68249,2.87132 -0.0293,1.03349 0.50212,1.98897 0.42411,3.01272 -0.0536,0.72148 0.12197,1.39909 0.36562,2.02795 0.39487,1.00912 0.4485,2.07673 0.63861,3.11509 0.0975,0.53624 0.14629,1.05786 0.34125,1.58922 0.25351,0.67275 0.40463,1.40398 0.4485,2.1206 0.0243,0.39974 0.0634,0.7556 0.21937,1.12611 0.14629,0.36074 0.36074,0.76535 0.31687,1.12123 -0.12677,1.07736 -0.17062,2.09622 0.67761,2.92982 0.0243,0.0293 0.009,0.0927 0.0147,0.13653 0.0877,1.30161 0.47774,2.53984 0.75074,3.80244 0.24375,1.12612 0.0731,2.28147 0.44362,3.41245 0.46313,1.40886 0.58013,2.91521 0.97499,4.35331 0.11221,0.40461 0.37537,0.82873 0.15606,1.27723 -0.19501,0.39487 -0.12179,0.86774 0.0584,1.13586 0.43387,0.64836 0.42412,1.40398 0.69224,2.08646 0.16085,0.40463 0.27787,0.83361 0.20962,1.29186 -0.18038,1.25286 0.12179,1.7111 1.34548,2.06696 1.51611,0.4485 3.07121,0.81413 4.54344,1.37961 2.05721,0.78486 4.24606,1.07249 6.30816,1.80861 0.21936,0.0779 0.50698,0.30712 0.71173,0.0682 0.22912,-0.26324 0.006,-0.57036 -0.10244,-0.83848 -0.46313,-1.14075 -0.51188,-2.37897 -0.81412,-3.5587 -0.21449,-0.84337 -0.17062,-1.74523 -0.31687,-2.60809 -0.195,-1.12611 -0.47286,-2.23759 -0.70199,-3.35882 -0.29736,-1.46737 -0.49724,-2.96397 -0.89698,-4.40207 -0.45825,-1.63797 -0.77024,-3.31007 -1.23823,-4.95293 -0.58499,-2.05233 -0.94087,-4.1778 -1.48686,-6.25452 -0.51674,-1.94511 -0.97499,-3.91456 -1.27723,-5.89867 -0.234,-1.55996 -0.79461,-3.04195 -0.99449,-4.60192 -0.0975,-0.76537 0.28763,-1.25774 1.06762,-1.26749 1.66235,-0.0243 3.32956,0.006 4.9968,-0.0195 2.71534,-0.0391 5.42579,0.32174 8.14601,0.0682 z m 17.74346,-31.20929 c 0.15606,0.507 -0.0779,0.85311 -0.43387,1.15049 -1.07248,0.89212 -2.30585,1.62335 -3.17845,2.71045 -0.741,0.92136 -1.74523,1.55999 -2.44233,2.50572 -0.29738,0.40461 -0.37051,0.79949 -0.12179,1.2236 0.24374,0.42412 0.27786,0.86774 0.273,1.34061 0,1.15536 0.0829,2.30096 0.28761,3.44171 0.11203,0.65323 0.10724,1.32596 0.15606,1.98897 0.17559,2.39846 0.57525,4.75792 0.9506,7.13201 0.2145,1.36985 0.78,2.70559 0.6045,4.14857 -0.0391,0.32174 0.13156,0.67273 0.20962,1.0091 0.37537,1.63311 0.234,3.31007 0.44362,4.95293 0.17061,1.37472 0.47774,2.72996 0.56061,4.11931 0.0731,1.25773 0.37049,2.49597 0.36075,3.76344 -0.006,0.54601 -0.0682,1.00423 -0.63375,1.34548 -0.62398,0.37051 -1.06273,0.99449 -1.78421,1.27724 -0.70199,0.27786 -1.19436,0.0829 -1.29673,-0.66299 -0.14132,-0.99937 -0.18524,-2.01823 -0.37537,-3.00783 -0.24374,-1.2626 -0.42901,-2.53984 -0.72637,-3.78781 -0.3315,-1.41375 -0.47774,-2.85671 -0.77998,-4.27044 -0.52649,-2.43747 -0.94087,-4.88957 -1.27723,-7.36114 -0.22914,-1.6721 -0.91161,-3.26134 -1.19436,-4.94319 -0.18038,-1.08222 -0.58988,-2.11083 -0.49237,-3.26132 0.0536,-0.59474 -0.14629,-1.24311 -0.36074,-1.82322 -0.46313,-1.2626 -0.7995,-2.56421 -0.9555,-3.88532 -0.13155,-1.10174 -0.73123,-2.04747 -0.82874,-3.13946 -0.009,-0.0877 -0.10244,-0.20474 -0.0682,-0.25837 0.40461,-0.74586 0.22912,-1.66722 0.76537,-2.38384 1.31623,-1.75497 2.59834,-3.53918 4.09006,-5.157671 0.24374,-0.26811 0.49237,-0.48748 0.89212,-0.50699 0.73611,0.1122 1.45273,0.39486 2.17421,0.61425 1.3796,0.4241 2.80308,0.56061 4.19244,0.89209 0.51187,0.12179 0.8336,0.33639 0.98961,0.833621 z m -2.79333,0.70687 c 0.10244,-0.0829 0.23399,-0.1754 0.19987,-0.33636 -0.0195,-0.10724 -0.12676,-0.13653 -0.21938,-0.12677 -1.07248,0.12179 -1.92559,-0.5801 -2.92983,-0.760481 -0.94086,-0.16085 -1.13585,-0.16564 -1.74522,0.609361 -0.94573,1.19436 -1.84272,2.42773 -2.77384,3.63183 -0.99935,1.28698 -1.24797,2.57883 -0.47774,4.03644 0.0536,0.0975 0.10245,0.21937 0.0975,0.32662 -0.0438,1.13098 0.32174,2.22785 0.24374,3.36369 -0.009,0.0975 0.0586,0.21939 0.12179,0.30713 0.76049,1.11636 0.81413,2.43747 0.97499,3.69519 0.13653,1.04324 -0.0682,2.13522 0.45337,3.11996 0.39488,0.75561 0.27788,1.6136 0.507,2.41796 0.19987,0.70687 0.69224,1.33085 0.73611,2.03284 0.0779,1.26749 0.32662,2.50572 0.45336,3.76346 0.0488,0.50211 0.38512,0.86772 0.4095,1.36985 0.10244,1.82322 0.4485,3.61232 0.77023,5.40142 0.24863,1.39423 0.4485,2.80795 0.98474,4.13881 0.17559,0.42898 0.2145,0.90186 0.19501,1.36985 -0.006,0.0682 -0.009,0.13653 -0.0195,0.20476 -0.0195,0.23399 -0.0877,0.49235 0.2145,0.58985 0.28762,0.0927 0.30713,-0.20473 0.43874,-0.34611 0.26325,-0.28763 0.24376,-0.61425 0.21938,-0.97499 -0.10723,-1.44299 -0.273,-2.88109 -0.41437,-4.32405 -0.13156,-1.33087 -0.33637,-2.65198 -0.50212,-3.97794 -0.15108,-1.20411 -0.3315,-2.41798 -0.46311,-3.62209 -0.19501,-1.75983 -0.43387,-3.52457 -0.7215,-5.26492 -0.41924,-2.56421 -0.70686,-5.15278 -1.20411,-7.70237 -0.14629,-0.741 0.0341,-1.48199 -0.0975,-2.20347 -0.29737,-1.65747 -0.40463,-3.32959 -0.55086,-4.99681 -0.0391,-0.46311 0.12676,-0.95061 0.4826,-1.2626 0.97499,-0.85311 1.80373,-1.8476 2.75922,-2.72022 0.62398,-0.57522 1.19434,-1.21872 1.85735,-1.75984 z m 40.40954,14.55654 c 0.54112,0.234 0.73611,0.62886 0.56548,1.16998 -0.47286,1.50147 -1.01885,2.97369 -1.94509,4.26556 -0.38025,0.53137 -0.62888,0.12676 -0.80437,-0.20474 -0.89698,-1.68673 -2.06208,-3.17358 -3.36858,-4.54832 -0.55573,-0.58499 -1.18459,-1.10174 -1.82322,-1.58923 -0.84822,-0.64835 -1.17973,-1.63797 -1.67209,-2.50571 -0.36075,-0.62886 -0.0634,-0.99449 0.66298,-1.13098 0.70687,-0.13653 1.40398,-0.29249 2.32047,-0.28275 0.79461,-0.0243 1.57948,0.23888 2.2961,1.05787 0.86774,1.00423 1.72571,2.01821 2.61783,3.00295 0.32175,0.35588 0.72636,0.58011 1.15049,0.76537 z m -1.03836,2.02796 c 0.10723,-0.31199 0.0391,-0.53136 -0.26814,-0.68736 -0.85797,-0.43387 -1.41859,-1.18948 -1.92559,-1.95485 -0.57036,-0.86286 -1.38934,-1.47711 -2.05721,-2.2376 -0.24374,-0.27786 -0.58988,-0.36074 -0.90186,-0.27298 -0.23888,0.009 -0.42899,0.006 -0.60937,0.0293 -0.26812,0.0391 -0.30713,0.19501 -0.13653,0.38026 0.35099,0.39975 0.67273,0.83848 1.08222,1.1651 0.9165,0.74099 1.7306,1.56973 2.49109,2.46671 0.51188,0.59474 0.78975,1.36499 1.42836,1.86222 0.0829,0.0682 0.13652,0.26326 0.24374,0.19499 0.34125,-0.21448 0.52649,-0.56061 0.65325,-0.94573 z m 5.21129,26.88035 c 0.58013,0.30225 0.63862,0.81411 0.41924,1.30162 -0.20962,0.45336 -0.43387,0.9116 -0.76049,1.31622 -2.44722,3.01757 -5.29416,5.65492 -8.05825,8.36537 -0.49237,0.48749 -1.06761,0.89212 -1.57459,1.36011 -2.2961,2.11083 -4.58245,4.23143 -6.86391,6.35203 -0.77024,0.71174 -1.6721,0.70199 -2.40821,-0.0536 -1.07737,-1.11634 -1.99384,-2.36432 -2.96395,-3.56844 -0.624,-0.77024 -1.36499,-1.4576 -1.92561,-2.26684 -1.05298,-1.52584 -2.33508,-2.86158 -3.47094,-4.31919 -1.02861,-1.31622 -2.17909,-2.5642 -3.21259,-3.89018 -1.23334,-1.58436 -2.56419,-3.08583 -3.87068,-4.6068 -0.22912,-0.26812 -0.468,-0.50212 -0.78487,-0.65326 -0.23886,0.4485 -0.20962,0.91163 -0.15108,1.36986 0.31687,2.47647 0.429,4.96756 0.59473,7.45376 0.0927,1.33087 0.13653,2.65198 0.43876,3.98283 0.28275,1.2626 0.18038,2.60808 0.25837,3.91944 0.0147,0.25349 -0.14629,0.36562 -0.32175,0.49237 -0.58986,0.43387 -1.18948,0.85311 -1.75984,1.31622 -1.83785,1.49173 -3.72445,2.92495 -5.5038,4.48982 -1.33085,1.16998 -2.75921,2.24732 -4.25095,3.2272 -0.46311,0.29736 -0.84334,0.7166 -1.27721,1.06273 -0.70687,0.55573 -1.63311,0.25837 -1.8476,-0.60937 -0.0731,-0.29738 -0.18038,-0.55087 -0.39,-0.77998 -0.13155,-0.14629 -0.22913,-0.34613 -0.2145,-0.57038 0.12197,-1.70622 -0.12179,-3.38807 -0.23886,-5.07966 -0.0586,-0.87749 -0.0293,-1.75497 -0.0586,-2.63246 -0.117,-3.49534 -0.41926,-6.96628 -1.02375,-10.41285 -0.10244,-0.58987 0.16085,-1.15537 0.0341,-1.72573 -0.65324,-2.98345 -0.89212,-6.03029 -1.30647,-9.05273 -0.34614,-2.5106 -0.55087,-5.04068 -0.90675,-7.54639 -0.26812,-1.92073 -0.66298,-3.81707 -1.02373,-5.72317 -0.15606,-0.78975 -0.22913,-1.5941 -0.36562,-2.38872 -0.17062,-1.00423 -0.59962,-1.9451 -0.66787,-2.96882 -0.0586,-0.7995 -0.22911,-1.58923 -0.29249,-2.38872 -0.0975,-1.15049 -0.25349,-2.30096 -0.50212,-3.42219 -0.34125,-1.55998 -0.38023,-3.15409 -0.72148,-4.70919 -0.46799,-2.1206 -0.85311,-4.26069 -1.31624,-6.38129 -0.20962,-0.95059 -0.13653,-1.77446 0.41438,-2.63732 1.49171,-2.330221 3.39294,-4.324071 5.12843,-6.449531 0.67273,-0.82874 1.39909,-1.60872 2.07182,-2.43259 0.273,-0.33637 0.54112,-0.43387 0.96036,-0.32174 1.27237,0.351 2.53984,0.72635 3.83171,0.96523 1.40398,0.26325 2.84696,0.32175 4.2558,0.57524 2.21322,0.39 4.31919,1.17485 6.43004,1.93534 2.29122,0.82387 4.65556,1.38937 6.98576,2.07184 1.5941,0.468 3.18821,0.93599 4.77257,1.438111 0.51672,0.16582 0.91161,0.35587 0.67273,1.14562 -0.17559,0.58499 0.0731,1.3211 0.20475,1.97434 0.28762,1.46734 0.7751,2.90058 0.68736,4.44105 -0.0293,0.45337 0.30225,0.9165 0.36075,1.38935 0.1754,1.49174 0.13653,3.02246 0.49237,4.46057 0.32661,1.31624 0.24862,2.65683 0.52649,3.96331 0.15108,0.69712 0.25837,1.44786 0.273,2.18398 0.009,0.66298 -0.30713,1.17484 -0.897,1.45273 -1.3796,0.65324 -2.68608,1.41859 -3.88532,2.3692 -0.42899,0.33637 -0.8921,0.60937 -1.36985,0.85311 -0.79948,0.39975 -1.64284,0.71662 -2.44234,1.11637 -0.79949,0.39975 -1.49172,0.83362 -2.23271,1.25772 -0.43875,0.24863 -0.20476,0.48751 0.0536,0.6825 0.57038,0.4485 1.2626,0.68249 1.90123,1.00911 1.92072,0.97498 3.75857,2.09134 5.58179,3.23207 3.45145,2.1596 6.99552,4.15343 10.59809,6.05466 1.23823,0.65324 2.49108,1.27724 3.74394,1.90122 1.25286,0.62399 2.50084,1.24311 3.74395,1.8866 1.35522,0.69712 2.60808,1.58436 3.91456,2.37409 0.49236,0.29738 0.99936,0.58012 1.51123,0.84824 z m -3.63181,2.05234 c 0.33636,-0.351 0.30224,-0.55087 -0.10244,-0.79461 -1.05299,-0.62886 -2.10109,-1.26261 -3.1297,-1.93534 -1.66235,-1.09199 -3.39783,-2.0621 -5.09917,-3.07608 -1.60385,-0.95549 -3.18821,-1.94023 -4.74819,-2.95421 -1.52096,-0.9896 -3.13458,-1.82322 -4.65556,-2.82259 -1.45759,-0.95548 -3.01269,-1.79396 -4.52392,-2.68608 -1.43322,-0.84336 -2.87621,-1.66235 -4.32406,-2.47159 -1.39423,-0.77998 -2.76897,-1.58922 -4.22168,-2.25221 -0.53626,-0.24374 -0.41926,-0.73124 -0.41438,-1.1456 0,-0.27789 0.12677,-0.54601 0.468,-0.60937 1.9451,-0.34613 3.42218,-1.60385 4.97242,-2.65684 2.18884,-1.49173 4.13395,-3.3247 6.47391,-4.61168 0.16085,-0.0877 0.24374,-0.19499 0.21937,-0.38025 -0.0536,-0.48261 -0.0877,-0.97011 -0.16583,-1.44785 -0.37048,-2.34972 -0.73123,-4.69943 -1.15049,-7.03939 -0.44848,-2.48622 -0.53135,-5.03581 -1.2041,-7.49277 -0.11221,-0.40461 -0.24861,-0.63375 -0.68736,-0.72637 -2.62272,-0.55573 -5.14792,-1.48197 -7.78039,-2.003581 -1.17972,-0.22913 -2.34484,-0.52649 -3.51483,-0.80924 -1.95482,-0.46799 -3.93405,-0.80924 -5.92302,-1.11148 -0.97987,-0.15109 -1.97436,-0.22914 -2.94447,-0.41438 -0.92622,-0.17541 -1.87197,-0.20474 -2.77383,-0.56548 -0.98472,-0.39488 -1.72083,0.10723 -2.32534,0.86772 -1.4966,1.89635 -2.96882,3.812211 -4.51418,5.674421 -0.48262,0.58012 -0.57524,1.19436 -0.507,1.85736 0.13156,1.3796 0.34125,2.74946 0.71176,4.08031 0.11202,0.40949 -0.0927,0.82873 0.15108,1.21873 0.47774,0.76536 0.53136,1.66722 0.60449,2.52033 0.0779,0.96524 0.36562,1.90123 0.30712,2.89083 -0.0195,0.30224 0.0439,0.80436 0.32662,1.09686 0.81899,0.85313 0.58499,2.00848 0.74098,2.98833 0.32664,2.10109 0.663,4.19731 1.16998,6.26916 0.28763,1.17973 0.73125,2.32533 0.41438,3.57819 -0.0438,0.18038 0.0634,0.40463 0.13155,0.59962 0.12677,0.34613 0.30713,0.70199 0.24374,1.07248 -0.13652,0.85313 0.40462,1.57948 0.36563,2.46185 -0.0243,0.57524 0.22911,1.34059 0.29736,1.96947 0.13653,1.25772 0.53624,2.40821 0.86287,3.59769 0.0975,0.35099 0.13653,0.7215 0.0487,1.09685 -0.12677,0.53626 0.0293,1.05787 0.14132,1.57948 0.0634,0.28763 0.3705,0.46799 0.37537,0.79949 0.0147,1.12612 0.39,2.23272 0.26812,3.35883 -0.0634,0.60449 0.0438,1.14074 0.27788,1.6721 0.19499,0.45336 0.23886,0.92624 0.31199,1.40886 0.13653,0.89698 -0.0536,1.8476 0.40461,2.70557 0.0682,0.12677 0.006,0.32176 0.0243,0.47776 0.16085,1.17973 0.351,2.34971 0.47774,3.52944 0.11221,1.03349 0.60451,2.08159 -0.0293,3.11508 -0.0536,0.0877 -0.0779,0.25349 -0.0293,0.33637 0.49725,0.91161 0.23888,1.90121 0.27789,2.85671 0.0536,1.19922 0.0634,2.39846 0.0731,3.59769 0.006,0.22425 -0.13155,0.46799 0.12198,0.62888 0.22911,0.13653 0.38511,-0.0731 0.57036,-0.15109 0.21936,-0.0877 0.41437,-0.19985 0.57036,-0.38512 0.39488,-0.46311 0.90674,-0.76048 1.41374,-1.09197 1.27235,-0.82873 2.53008,-1.68186 3.66107,-2.71533 1.05785,-0.96036 2.04259,-2.01823 3.25158,-2.8031 0.46311,-0.30224 0.58011,-0.65323 0.51186,-1.1651 -0.0927,-0.68736 -0.20474,-1.3796 -0.19499,-2.06696 0.0438,-2.66172 -0.24863,-5.30393 -0.36563,-7.95102 -0.0438,-1.08222 -0.24862,-2.15472 -0.39974,-3.2272 -0.13156,-0.97985 -0.39975,-1.94021 -0.34611,-2.94445 0,-0.29737 -0.0341,-0.6045 0.006,-0.90186 0.10245,-0.78486 0.54112,-1.41372 1.19436,-1.78423 0.56062,-0.31199 1.18461,-0.0195 1.56485,0.41924 0.5655,0.64349 1.24799,1.16998 1.80373,1.80373 1.18949,1.35036 2.53983,2.57396 3.35882,4.21682 0.0731,0.15605 0.24374,0.273 0.39,0.38511 1.16998,0.89698 2.08648,2.0231 2.88595,3.2467 0.34125,0.51674 0.55575,1.19435 1.01886,1.54535 1.20899,0.92137 2.11572,2.1206 3.15409,3.18821 1.3991,1.43322 2.26684,3.31982 3.79756,4.66044 0.26324,0.22911 0.56062,0.5411 0.58499,0.92622 0.0341,0.61911 0.57037,0.52649 0.90673,0.68249 0.3315,0.15109 0.39,-0.23399 0.56064,-0.39486 0.23397,-0.22425 0.45336,-0.46313 0.70197,-0.663 0.84336,-0.68736 1.78911,-1.27235 2.53009,-2.04747 1.53072,-1.60384 3.33933,-2.88595 4.78718,-4.6068 1.76472,-2.10109 3.68056,-4.0852 5.58668,-6.07417 z m 8.60912,-52.668711 c 0.0243,0.0779 0.0438,0.15606 0.0634,0.234 l -1.08223,0.30224 c -0.0927,-0.34125 -0.20475,-0.67761 -0.3315,-1.01398 -0.40461,-1.06761 -0.9896,-2.01335 -2.02797,-2.53009 -1.17485,-0.58499 -2.53496,-0.54599 -3.65619,-0.15606 -1.63309,0.57038 -2.8762,1.79886 -3.60745,3.45145 -0.73611,1.67212 -1.27724,3.41246 -1.92073,5.11868 -0.18524,0.50212 -0.54598,0.926241 -0.67761,1.433221 -0.51186,1.95485 -1.92559,3.25646 -3.50018,4.20219 -1.89149,1.12611 -4.04132,1.80373 -6.24966,2.14986 -0.2925,0.0439 -0.43387,0.12676 -0.43387,0.39486 l -1.40398,0.0391 c -0.009,-0.117 -0.009,-0.23886 -0.009,-0.36074 0.0147,-1.17973 0.16085,-1.42835 1.31622,-1.64284 1.6721,-0.31687 3.27108,-0.84336 4.8408,-1.47711 1.92072,-0.77511 3.2662,-2.21322 4.08519,-4.05107 0.77512,-1.754971 1.38448,-3.583071 2.05235,-5.381911 0.48262,-1.30162 1.03347,-2.53496 2.04259,-3.48069 0.88237,-0.82387 1.69161,-1.80373 2.98833,-2.03773 0.16085,-0.0293 0.31688,-0.11699 0.47286,-0.10723 1.21874,0.0682 2.44722,0 3.64158,0.36074 0.29738,0.0927 0.53624,0.234 0.77512,0.43387 1.31135,1.09686 2.14983,2.46671 2.62271,4.11932 z m 7.73163,41.573391 c 0.50211,0.50698 0.54112,0.95059 0.0195,1.41372 -0.58986,0.52649 -0.68736,1.27235 -0.85798,1.93047 -0.28763,1.08223 -0.65325,2.16447 -0.67275,3.31008 -0.006,0.42412 -0.22425,0.79949 -0.35587,1.19436 -0.57036,1.75497 -1.1261,3.51481 -1.74035,5.25517 -0.37049,1.06273 -0.83361,2.09134 -1.27235,3.12969 -0.15606,0.37051 -0.48262,0.624 -0.77512,0.87749 -0.28761,0.24863 -0.74097,-0.0488 -0.85797,-0.57524 -0.0829,-0.38512 -0.117,-0.77998 -0.1463,-1.16999 -0.0341,-0.48748 -0.15108,-0.99934 -0.0341,-1.45271 0.34125,-1.31624 -0.19499,-2.61297 -0.006,-3.92432 0.0439,-0.30713 0.0682,-0.71662 -0.31687,-0.83362 -0.34611,-0.10723 -0.61423,0.0391 -0.77998,0.4485 -0.0877,0.2145 -0.38512,0.38024 -0.55574,0.59962 -0.32175,0.42411 -0.93112,0.53624 -1.23824,0.38024 -0.29736,-0.15109 -0.69223,-0.69711 -0.56548,-1.15049 0.19012,-0.67273 -0.0243,-1.26747 -0.0975,-1.90122 -0.15108,-1.35036 -0.22911,-2.70558 -0.32174,-4.06081 -0.12178,-1.74035 -0.0829,-3.49532 -0.51674,-5.20154 -0.0731,-0.28763 0.0488,-0.57525 0.10723,-0.86774 0.38512,-1.92073 2.09134,-2.67147 3.33932,-3.79758 0.95549,-0.85798 1.96459,-1.69159 3.15895,-2.22783 0.78,-0.351 0.84336,-0.14132 1.30649,0.53624 0.62886,0.9311 0.26324,1.89146 0.45823,3.07119 -0.16564,1.45762 -0.35586,3.15409 -0.54599,4.84568 -0.0195,0.17559 -0.17559,0.39489 0,0.52163 0.17541,0.13156 0.33637,-0.0682 0.49237,-0.15606 0.25838,-0.14629 0.52161,-0.29738 0.78487,-0.4485 1.06761,-0.60936 1.1456,-0.5996 1.98897,0.25351 z m -2.03772,2.13034 c 0.0586,-0.12676 0.0975,-0.28275 -0.0439,-0.38025 -0.12676,-0.0927 -0.26812,-0.009 -0.39,0.0488 -0.29249,0.14132 -0.59473,0.26812 -0.86774,0.43874 -0.47774,0.29249 -0.9311,0.0975 -1.30159,-0.13156 -0.36562,-0.22913 -0.2145,-0.663 -0.12676,-1.0286 0.0536,-0.19988 0.13653,-0.40463 0.12676,-0.60937 -0.0682,-1.85736 0.69711,-3.66595 0.33637,-5.54767 -0.0877,-0.48262 -0.009,-0.99937 -0.009,-1.64772 -0.96036,0.87748 -1.7501,1.74034 -2.70072,2.43258 -0.81899,0.59474 -1.28698,1.54536 -2.14984,2.11572 -0.41924,0.27786 -0.62886,0.75074 -0.53136,1.2821 0.43874,2.47647 0.33637,5.01143 0.81899,7.48302 0.0779,0.39487 -0.12179,0.98474 0.20962,1.15535 0.38024,0.19013 0.79461,-0.273 1.17973,-0.46311 1.00423,-0.49237 1.62823,-0.22425 1.83785,0.88235 0.20474,1.09199 0.16085,2.20834 0.234,3.31496 0.0341,0.507 -0.0682,1.04324 0.28761,1.52098 0.34613,-1.34062 0.83362,-2.63734 0.92624,-4.01695 0.0391,-0.57524 0.19499,-1.10173 0.42899,-1.59897 0.79949,-1.68184 0.98962,-3.55382 1.73548,-5.25029 z m 9.03324,-23.19003 c 0.28275,3.13458 -2.0231,6.17165 -5.34292,6.4349 -1.03349,0.0779 -2.04747,0.38512 -3.09559,0.31199 -2.76895,0.0829 -5.5379,0.28275 -7.96074,1.78424 -1.95485,1.2041 -4.03158,2.30096 -5.33319,4.32893 -0.64835,1.00423 -1.30647,2.00847 -1.96946,3.00295 -1.35522,2.04747 -2.23759,4.32894 -3.29058,6.52753 -0.20962,0.43873 -0.46311,0.85799 -0.74586,1.25285 -0.24374,0.33637 -0.49237,0.47286 -0.8385,0.32662 -0.0975,-0.0438 -0.19985,-0.10723 -0.31199,-0.19012 -1.67698,-1.25286 -3.2662,-2.6617 -5.13817,-3.60744 -1.48686,-0.74588 -2.88107,-1.65748 -4.37767,-2.35947 -0.80924,-0.38024 -1.66724,-0.69711 -2.45696,-1.11149 -1.67212,-0.87748 -3.43196,-1.59897 -4.96757,-2.72508 -0.42898,-0.31199 -0.9311,-0.49723 -1.34548,-0.84823 -0.59473,-0.51188 -0.60448,-1.12611 0.009,-1.62823 0.29738,-0.24374 0.65323,-0.35099 0.97987,-0.52163 0.19986,-0.10723 0.39487,-0.20962 0.59474,-0.31687 1.63797,-0.86285 3.28081,-1.72083 4.90418,-2.61295 0.68248,-0.38025 1.30647,-0.86774 1.95483,-1.30649 0.29249,-0.19499 0.28763,-0.50211 0.30226,-0.80436 0.0682,-1.23823 -0.27789,-2.43745 -0.35588,-3.66107 -0.13653,-2.16933 -0.30712,-4.3338 -0.49237,-6.49826 -0.0731,-0.88726 -0.24862,-1.76961 -0.27786,-2.66661 l 1.40397,-0.0391 c 0,0.0391 0,0.0877 0.009,0.14132 0.19499,1.46248 0.48748,2.91033 0.58011,4.38744 0.0682,1.15047 0.312,2.29121 0.40949,3.4417 0.14629,1.72571 0.17541,3.46606 0.37537,5.18205 0.10244,0.88235 -0.22911,1.40884 -0.87749,1.86708 -1.87683,1.32599 -3.9828,2.25223 -5.97177,3.38321 -0.46799,0.26812 -1.35523,0.51186 -1.26749,0.88723 0.117,0.51186 0.86774,0.82874 1.45273,1.0481 1.62335,0.61914 3.08096,1.55999 4.62632,2.33022 1.34059,0.66787 2.6032,1.49174 3.94868,2.16447 1.74523,0.86774 3.35394,1.93535 4.92367,3.09559 1.38935,1.02372 0.93599,1.21385 1.8866,-0.39 1.00912,-1.68673 1.48686,-3.64644 2.65196,-5.25518 0.24374,-0.33636 0.53624,-0.65323 0.69712,-1.0286 0.69223,-1.5746 1.82809,-2.82746 2.9542,-4.08031 1.07736,-1.18948 2.50572,-1.95973 3.76832,-2.92496 0.92624,-0.70687 2.01823,-1.25286 3.14921,-1.55998 2.25709,-0.61424 4.57756,-0.81411 6.92239,-0.73123 0.82387,0.0877 1.60385,-0.20962 2.40334,-0.27789 2.0231,-0.17061 3.95843,-1.86221 4.16807,-4.16805 0.0975,-1.04812 -0.0243,-2.03286 -0.36562,-2.92009 l 1.11148,-0.38512 c 0.31687,0.87263 0.50698,1.77449 0.59474,2.72022 z M 239.5368,83.840789 c 0.0536,0.86774 -0.29738,1.60874 -0.94573,2.1401 -1.36011,1.11636 -2.43747,2.51059 -3.76832,3.64643 -0.95548,0.81899 -1.05299,2.03284 -1.50149,3.08095 -0.43387,1.02374 -0.80436,2.09622 -1.70622,2.80795 -1.4576,1.15049 -3.09071,1.35523 -4.82617,0.6825 -0.49237,-0.19013 -0.87749,-0.22913 -1.30649,0.20474 -0.61912,0.61911 -1.3796,1.06761 -2.1206,1.54535 -1.99872,1.29187 -4.01206,2.559351 -5.97177,3.909701 -1.66236,1.15049 -3.21259,2.40821 -4.75793,3.69032 -0.52163,0.42899 -0.35588,0.58986 0.12677,0.73612 1.22359,0.37048 2.35457,0.94573 3.49531,1.4966 1.06274,0.51674 1.89147,1.21873 2.51547,2.27658 0.3315,0.56062 0.59962,1.13586 0.80924,1.72085 l -1.11149,0.38512 c -0.34124,-0.8921 -0.89699,-1.68673 -1.67209,-2.35946 -1.00424,-0.86774 -2.33022,-1.36986 -3.6367,-1.81347 -0.63374,-0.2145 -1.32598,-0.24863 -1.92072,-0.56062 -0.54112,-0.28275 -0.9555,-0.15606 -1.37474,0.21937 -0.86774,0.77024 -1.73546,1.53072 -2.62271,2.27172 -1.53073,1.26749 -3.20769,2.33996 -4.88467,3.39295 -2.56422,1.60872 -1.73548,1.2821 -3.98769,-0.20476 -0.117,-0.0779 -0.20962,-0.18524 -0.31201,-0.27786 -0.21448,-0.18525 -0.39486,-0.39487 -0.46311,-0.67762 -0.10244,-0.39974 -0.37049,-0.68249 -0.62886,-0.98474 -0.507,-0.5996 -1.09687,-1.11634 -1.66235,-1.65746 -0.84825,-0.81899 -0.75562,-1.85248 0.22911,-2.51547 1.70136,-1.1456 3.41246,-2.25222 4.95294,-3.63183 1.22359,-1.10171 2.57882,-2.07184 3.96819,-2.96882 0.49723,-0.31687 0.69224,-0.736111 0.64349,-1.340601 -0.12197,-1.53072 -0.25351,-3.05658 -0.66787,-4.53369 l 1.08223,-0.30224 c 0.18524,0.64837 0.34613,1.30647 0.55575,1.9451 0.20474,0.64349 0.36562,1.29184 0.21937,1.97434 -0.0341,0.18524 -0.0536,0.38512 0.12178,0.51186 0.195,0.13653 0.36075,-0.009 0.50212,-0.12179 0.78487,-0.6045 1.56973,-1.21387 2.34483,-1.83785 0.95062,-0.77023 1.99872,-1.40398 2.96884,-2.13522 0.75561,-0.57037 1.52098,-1.13098 2.25709,-1.71109 1.47709,-1.16512 3.05171,-2.16935 4.68968,-3.08096 0.25349,-0.14132 0.59962,-0.2925 0.85798,-0.22913 1.03349,0.23399 1.52586,-0.5996 2.20347,-1.04809 0.54599,-0.36074 0.89212,-0.75074 0.24374,-1.4186 -0.35099,-0.36075 -0.19499,-0.98474 -0.10244,-1.46248 0.0927,-0.468 0.82387,-0.56549 1.21385,-0.19499 0.21939,0.20473 0.39975,0.45336 0.58013,0.69224 0.17559,0.234 0.38023,0.25837 0.60448,0.0975 0.22912,-0.16085 0.26812,-0.42899 0.0829,-0.60449 -0.42413,-0.40461 -0.351,-0.93599 -0.4095,-1.42348 -0.0682,-0.61425 0.234,-0.80435 0.82874,-0.65323 0.48748,0.12179 0.91161,0.29249 1.17486,0.7556 0.0536,0.0975 0.16583,0.16583 0.26324,0.22425 0.23888,0.15109 0.53137,0.16583 0.70199,-0.0391 0.17061,-0.20474 -0.0829,-0.37537 -0.22425,-0.50698 -0.38512,-0.35099 -0.57036,-0.78975 -0.55573,-1.29675 0.0293,-0.77509 0.39486,-0.9896 1.09685,-0.6581 0.3315,0.16085 0.63863,0.36074 0.97499,0.51673 1.1651,0.54112 2.09622,-0.0877 3.0712,-0.53624 1.24311,-0.57036 2.51546,-1.05785 3.88532,-1.2236 1.88171,-0.22425 3.75369,1.27235 3.87557,3.08583 z m -2.33997,0.99448 c 0.34125,-0.35586 0.80924,-0.65323 0.66787,-1.19922 -0.14629,-0.58013 -0.77998,-0.57525 -1.23336,-0.77025 -0.0391,-0.0195 -0.0927,-0.009 -0.13653,-0.0195 -2.03284,-0.46311 -3.66107,0.63374 -5.37218,1.40886 -0.31687,0.14629 -0.33636,0.43387 -0.29736,0.77023 0.0975,0.88236 -0.44363,1.25773 -1.24799,0.90187 -0.12676,-0.0584 -0.23886,-0.14132 -0.36074,-0.20475 -0.34611,-0.17062 -0.58499,0.0779 -0.81411,0.24374 -0.22425,0.16085 -0.0584,0.38025 0.0536,0.55087 0.22425,0.32662 0.25349,0.69712 0.22911,1.06275 -0.0147,0.25349 -0.0877,0.51672 -0.38998,0.5996 -0.30224,0.0877 -0.52649,0 -0.70687,-0.27298 -0.12676,-0.19013 -0.29736,-0.35588 -0.46799,-0.51189 -0.28275,-0.25349 -0.57525,-0.20473 -0.89698,-0.0341 -0.351,0.18524 -0.234,0.42412 -0.16583,0.70199 0.0682,0.26812 0.10724,0.55087 0.0927,0.82385 -0.0391,0.57524 -0.58499,0.8726 -1.10174,0.62886 -1.02372,-0.48262 -1.0481,-0.49237 -1.80859,0.36074 -0.23888,0.26326 -0.54598,0.41924 -0.80436,0.64838 -0.32661,0.29249 -0.36076,0.57036 -0.009,0.86285 0.76537,0.64349 1.31624,1.47711 1.89635,2.2766 0.273,0.37049 0.49725,0.51187 0.97011,0.42411 0.63374,-0.117 1.28212,-0.0975 1.90123,0.19501 0.53137,0.25349 1.11637,0.28761 1.63309,0.34123 0.73612,0.0195 1.32599,-0.17062 1.82324,-0.6581 0.84823,-0.8385 1.3796,-1.83785 1.57948,-3.02246 0.14132,-0.81899 0.53624,-1.5551 1.10172,-2.13033 1.29186,-1.3211 2.58859,-2.63733 3.86582,-3.97795 z m -13.41093,10.84671 c 0.27301,-0.17541 0.32176,-0.34612 0.0975,-0.60937 -0.49237,-0.58499 -0.95548,-1.18461 -1.44785,-1.76961 -0.24862,-0.30224 -0.53625,-0.57522 -0.78974,-0.8726 -0.94574,-1.12123 -1.63798,-1.27235 -2.85183,-0.48749 -1.39423,0.89698 -2.8031,1.76472 -4.08519,2.84695 -1.92073,1.6136 -3.96332,3.08096 -5.90842,4.67506 -1.98408,1.623351 -4.06081,3.134581 -6.11315,4.665311 -1.6526,1.22848 -3.33933,2.40821 -5.00168,3.62694 -0.76537,0.56062 -0.78487,0.83362 -0.18524,1.5746 0.71661,0.87748 1.52584,1.67209 2.14497,2.62759 0.14629,0.22912 0.39973,0.38512 0.73611,0.4095 0.12179,-0.0391 0.28273,-0.0779 0.42899,-0.1463 1.44785,-0.68248 2.63734,-1.77447 3.94382,-2.66658 2.43747,-1.66235 4.48494,-3.83169 6.91752,-5.5233 1.05299,-0.73611 1.93047,-1.74034 3.00295,-2.43745 2.14984,-1.39423 4.25094,-2.861591 6.46415,-4.153441 0.91162,-0.53137 1.76474,-1.17486 2.64709,-1.75985 z" />
  </g>
</svg>
