<?xml version="1.0" standalone="no"?>
<!DOCTYPE svg PUBLIC "-//W3C//DTD SVG 20010904//EN"
 "http://www.w3.org/TR/2001/REC-SVG-20010904/DTD/svg10.dtd">
<svg version="1.0" xmlns="http://www.w3.org/2000/svg"
 width="827.000000pt" height="591.000000pt" viewBox="0 0 827.000000 591.000000"
 preserveAspectRatio="xMidYMid meet">

<g transform="translate(0.000000,591.000000) scale(0.100000,-0.100000)"
fill="#000000" stroke="none">
<path d="M1205 4908 c-38 -210 -230 -1484 -224 -1489 5 -3 54 -11 109 -18
l100 -12 57 61 c111 120 241 193 402 225 103 21 314 16 406 -9 221 -62 388
-224 466 -456 58 -172 51 -416 -16 -583 -54 -136 -164 -269 -277 -335 -133
-79 -306 -112 -475 -92 -326 39 -533 211 -605 503 l-21 87 -134 0 -133 0 2
-907 3 -908 115 0 115 0 3 623 2 624 49 -41 c170 -142 459 -220 776 -208 165
6 256 27 390 91 249 118 430 354 491 640 8 39 19 145 24 236 9 175 31 272 87
385 142 283 416 413 731 349 93 -19 220 -79 283 -133 145 -126 217 -332 191
-546 -14 -112 -38 -180 -93 -266 -86 -132 -194 -219 -484 -391 -351 -208 -541
-345 -709 -507 -198 -193 -277 -312 -321 -485 -22 -89 -45 -258 -45 -336 l0
-40 2466 2 2465 3 0 1955 c0 1075 -1 1967 -1 1983 l0 27 -3095 0 -3094 0 -6
-32z m5975 -1948 l0 -1760 -2214 0 -2214 0 5 43 c16 144 80 264 213 398 149
151 208 191 635 433 433 246 616 405 725 631 68 141 84 217 84 395 0 140 -3
164 -28 245 -38 124 -87 213 -165 297 -115 125 -274 211 -461 251 -125 27
-358 28 -474 3 -235 -51 -421 -164 -542 -329 -24 -32 -46 -58 -49 -58 -3 0
-25 26 -49 58 -196 264 -526 387 -921 343 -127 -14 -211 -42 -353 -116 -89
-46 -122 -59 -118 -46 3 9 44 226 91 482 47 256 87 470 90 477 3 9 680 12
2874 12 l2871 1 0 -1760z"/>
<path d="M4960 3927 c-136 -31 -210 -115 -210 -239 0 -143 54 -194 250 -238
149 -34 200 -52 221 -78 33 -43 19 -96 -34 -128 -24 -14 -52 -19 -112 -19
-101 0 -139 18 -166 81 l-20 44 -79 0 c-90 0 -88 2 -65 -76 30 -103 117 -165
256 -184 178 -25 326 35 380 155 24 52 24 138 0 190 -36 79 -90 108 -276 150
-185 42 -225 72 -196 143 18 44 66 66 142 66 92 0 139 -31 163 -107 5 -15 16
-17 83 -15 l78 3 -3 35 c-5 52 -39 116 -80 150 -77 63 -221 92 -332 67z"/>
<path d="M5450 3840 l0 -70 125 0 125 0 0 -330 0 -330 85 0 85 0 0 330 0 330
120 0 120 0 0 70 0 70 -330 0 -330 0 0 -70z"/>
<path d="M6210 3617 c0 -338 5 -371 72 -443 56 -61 126 -86 243 -87 153 0 238
39 290 134 l30 54 3 318 3 317 -85 0 -86 0 0 -285 c0 -304 -3 -329 -49 -370
-34 -30 -145 -33 -189 -5 -58 36 -62 58 -62 375 l0 285 -85 0 -85 0 0 -293z"/>
<path d="M6360 2836 c-124 -33 -214 -138 -246 -285 -25 -122 -11 -269 36 -361
33 -64 96 -126 159 -157 52 -26 65 -28 176 -28 116 0 123 1 187 33 112 55 179
160 198 308 31 241 -68 434 -250 488 -63 19 -195 20 -260 2z m215 -145 c51
-23 78 -53 106 -116 19 -41 23 -68 23 -150 0 -107 -20 -172 -67 -224 -78 -84
-225 -78 -304 12 -85 97 -85 327 0 424 61 69 160 92 242 54z"/>
<path d="M4730 2426 l0 -406 203 0 c255 0 286 7 367 88 66 66 95 132 112 254
23 159 -20 309 -111 390 -73 66 -96 71 -348 75 l-223 5 0 -406z m394 253 c84
-23 121 -102 120 -254 -1 -70 -6 -101 -23 -140 -45 -102 -87 -125 -226 -125
l-95 0 0 265 0 265 93 0 c50 0 110 -5 131 -11z"/>
<path d="M5700 2425 l0 -405 85 0 85 0 0 405 0 405 -85 0 -85 0 0 -405z"/>
<path d="M1502 1313 l3 -338 115 0 115 0 3 338 2 337 -120 0 -120 0 2 -337z"/>
<path d="M1830 1170 l0 -200 115 0 115 0 0 200 0 200 -115 0 -115 0 0 -200z"/>
<path d="M2160 1110 l0 -140 115 0 115 0 0 140 0 140 -115 0 -115 0 0 -140z"/>
<path d="M1180 1085 l0 -115 115 0 115 0 0 115 0 115 -115 0 -115 0 0 -115z"/>
</g>
</svg>
