<?xml version="1.0" encoding="utf-8"?>
<!-- Generator: Adobe Illustrator 25.0.0, SVG Export Plug-In . SVG Version: 6.00 Build 0)  -->
<!DOCTYPE svg PUBLIC "-//W3C//DTD SVG 1.1//EN" "http://www.w3.org/Graphics/SVG/1.1/DTD/svg11.dtd" [
	<!ENTITY ns_extend "http://ns.adobe.com/Extensibility/1.0/">
	<!ENTITY ns_ai "http://ns.adobe.com/AdobeIllustrator/10.0/">
	<!ENTITY ns_graphs "http://ns.adobe.com/Graphs/1.0/">
	<!ENTITY ns_vars "http://ns.adobe.com/Variables/1.0/">
	<!ENTITY ns_imrep "http://ns.adobe.com/ImageReplacement/1.0/">
	<!ENTITY ns_sfw "http://ns.adobe.com/SaveForWeb/1.0/">
	<!ENTITY ns_custom "http://ns.adobe.com/GenericCustomNamespace/1.0/">
	<!ENTITY ns_adobe_xpath "http://ns.adobe.com/XPath/1.0/">
]>
<svg version="1.1" id="Layer_1" xmlns:x="&ns_extend;" xmlns:i="&ns_ai;" xmlns:graph="&ns_graphs;"
	 xmlns="http://www.w3.org/2000/svg" xmlns:xlink="http://www.w3.org/1999/xlink" x="0px" y="0px" viewBox="0 0 170.1 56.7"
	 style="enable-background:new 0 0 170.1 56.7;" xml:space="preserve">
<style type="text/css">
	.st0{fill:#002E65;}
	.st1{fill:#EA2C38;}
	.st2{fill:#FFFFFF;}
</style>
<metadata><?xpacket begin="﻿" id="W5M0MpCehiHzreSzNTczkc9d"?>
<x:xmpmeta xmlns:x="adobe:ns:meta/" x:xmptk="Adobe XMP Core 6.0-c002 79.164519, 2020/08/25-17:54:00        ">
   <rdf:RDF xmlns:rdf="http://www.w3.org/1999/02/22-rdf-syntax-ns#">
      <rdf:Description rdf:about=""
            xmlns:dc="http://purl.org/dc/elements/1.1/"
            xmlns:xmp="http://ns.adobe.com/xap/1.0/"
            xmlns:xmpGImg="http://ns.adobe.com/xap/1.0/g/img/"
            xmlns:xmpMM="http://ns.adobe.com/xap/1.0/mm/"
            xmlns:stRef="http://ns.adobe.com/xap/1.0/sType/ResourceRef#"
            xmlns:stEvt="http://ns.adobe.com/xap/1.0/sType/ResourceEvent#"
            xmlns:illustrator="http://ns.adobe.com/illustrator/1.0/"
            xmlns:xmpTPg="http://ns.adobe.com/xap/1.0/t/pg/"
            xmlns:stDim="http://ns.adobe.com/xap/1.0/sType/Dimensions#"
            xmlns:xmpG="http://ns.adobe.com/xap/1.0/g/"
            xmlns:pdf="http://ns.adobe.com/pdf/1.3/">
         <dc:format>image/svg+xml</dc:format>
         <dc:title>
            <rdf:Alt>
               <rdf:li xml:lang="x-default">Print</rdf:li>
            </rdf:Alt>
         </dc:title>
         <xmp:MetadataDate>2020-11-11T15:38:53+01:00</xmp:MetadataDate>
         <xmp:ModifyDate>2020-11-11T15:38:53+01:00</xmp:ModifyDate>
         <xmp:CreateDate>2020-11-11T15:38:53+01:00</xmp:CreateDate>
         <xmp:CreatorTool>Adobe Illustrator 25.0 (Macintosh)</xmp:CreatorTool>
         <xmp:Thumbnails>
            <rdf:Alt>
               <rdf:li rdf:parseType="Resource">
                  <xmpGImg:width>256</xmpGImg:width>
                  <xmpGImg:height>76</xmpGImg:height>
                  <xmpGImg:format>JPEG</xmpGImg:format>
                  <xmpGImg:image>/9j/4AAQSkZJRgABAgEASABIAAD/7QAsUGhvdG9zaG9wIDMuMAA4QklNA+0AAAAAABAASAAAAAEA&#xA;AQBIAAAAAQAB/+4ADkFkb2JlAGTAAAAAAf/bAIQABgQEBAUEBgUFBgkGBQYJCwgGBggLDAoKCwoK&#xA;DBAMDAwMDAwQDA4PEA8ODBMTFBQTExwbGxscHx8fHx8fHx8fHwEHBwcNDA0YEBAYGhURFRofHx8f&#xA;Hx8fHx8fHx8fHx8fHx8fHx8fHx8fHx8fHx8fHx8fHx8fHx8fHx8fHx8fHx8f/8AAEQgATAEAAwER&#xA;AAIRAQMRAf/EAaIAAAAHAQEBAQEAAAAAAAAAAAQFAwIGAQAHCAkKCwEAAgIDAQEBAQEAAAAAAAAA&#xA;AQACAwQFBgcICQoLEAACAQMDAgQCBgcDBAIGAnMBAgMRBAAFIRIxQVEGE2EicYEUMpGhBxWxQiPB&#xA;UtHhMxZi8CRygvElQzRTkqKyY3PCNUQnk6OzNhdUZHTD0uIIJoMJChgZhJRFRqS0VtNVKBry4/PE&#xA;1OT0ZXWFlaW1xdXl9WZ2hpamtsbW5vY3R1dnd4eXp7fH1+f3OEhYaHiImKi4yNjo+Ck5SVlpeYmZ&#xA;qbnJ2en5KjpKWmp6ipqqusra6voRAAICAQIDBQUEBQYECAMDbQEAAhEDBCESMUEFURNhIgZxgZEy&#xA;obHwFMHR4SNCFVJicvEzJDRDghaSUyWiY7LCB3PSNeJEgxdUkwgJChgZJjZFGidkdFU38qOzwygp&#xA;0+PzhJSktMTU5PRldYWVpbXF1eX1RlZmdoaWprbG1ub2R1dnd4eXp7fH1+f3OEhYaHiImKi4yNjo&#xA;+DlJWWl5iZmpucnZ6fkqOkpaanqKmqq6ytrq+v/aAAwDAQACEQMRAD8ALL29u767lu7uVprmZi8s&#xA;rmpJOaMkk2X1PHjjCIjEUAoYGbsVdirsVdirsVdirsVYr59+xYfOb/mXnRdhcp/D9Lw3th9WP3S/&#xA;QxHN88Y7FXYq7FXYq7FXYq7FXYq7FXYq7FXYq7FXYq7FXYq7FXYq7FXYqitL1TUNK1CDUdOne2vb&#xA;ZxJBPGeLKy4JRBFFQaenZwD7YqwW1xcOUt4nmcCpWNSxp0rQYQCWMpiO5NK/6H1b/liuP+RT/wBM&#xA;PAe5r8fH/OHzQeRbnYq7FUWuk6qwDLZTlSKgiJ6EfdkuA9zV48P5w+aFIINDsRkW1rFWK+ffsWHz&#xA;m/5l50XYXKfw/S8N7YfVj90v0MRzfPGKtra3F3dQ2tshluLh1ihiXqzuQqqPmTiTSpj5i8q+YvLd&#xA;1Fa67YS6fcTJ6sUUwALJUryFCe4OQhkjLkUyiRzVtN8j+bNT0S512w0ua40izEjXN6gHpoIU5yV3&#xA;/ZXc4nLEGid0iBItI8mxdirMvKX5WeYPNHlfWvMdhNbR2eiIzzxzOyySenH6rhAFYbIP2iBX6aU5&#xA;M4jIRPVnHGSCe5huXMHYq7FXYq7FXYqi9J0y51XVbLS7Xj9av54raDmeK+pM4ReTdhVtzglKhagW&#xA;aT38xPy+1jyJryaNqs0E80tul1FLbMzIY3Zk/bVGB5Rt2yvDlGQWGc4GJosXy1g7FXYqzHz1+Vvm&#xA;HyXp2j32qy20kWsxtJCtu7OyFQrFXqqjpIN1JGU4s4mSB0ZzxmNX1YdlzB2KuxV6xnn77Y9K/IX/&#xA;AJTC8/7Z8n/J+HMvR/Wfc8/7Sf4vH+uPuk95zZPEvjzNE+rOxV2KvrbRP+ONYf8AMND/AMQGbuPI&#xA;Pl2o/vJe8/e+T7v/AHqm/wCMjfrOaWXN9Ox/SPco4GbFfPv2LD5zf8y86LsLlP4fpeG9sPqx+6X6&#xA;GI5vnjE78kf8ppoH/bStP+T6ZDL9J9zKHMPWP+ctf+U00f8A7Zo/5PyZiaD6T727VfUGR/lD/wCs&#xA;2+b/APjDq/8A1BDK9R/fR+H3s8X92fiwj8rfyf8AKnmv8vdY8za1qtzpkmn3M0CzJwNvHHFBFKZJ&#xA;UKM709U7Ky9Muz6iUJiIF2148QlEkshh/JD8rPM3k/Ur/wAia9d3+p6YjcnnFI3lRS/B4mhidRJS&#xA;isP+Gocr/M5IyAmNiy8GJHpKQflR+W+m+Yfy281a1calqNpLZCdfqtnOkVvMILb1kE6GNy/xMe/T&#xA;LM+YxnEUGOPGDElZaflH5X1f8lZ/O+jXV6+uWKM1/ZyPE0CtA49cBViVx+5PqLVzt1wnUSGXhPJR&#xA;iBhxDmhvK/5WeWpvyh1Tz75iubyGSJpU0q3tniRJSpEUfPnFIx5XBKnidgMM88vEEIojjHAZFNLX&#xA;8pPy/wDKvlTTNc/MnU7yC71mjWel2AXkiFQx58lcsUVgXpSlabnIHPOUiIDky8KMRcuqT/ml+Uml&#xA;+Wl0PWfL9/JqHlfXygtppePrRmQB1qQqBg6Gq/CCKEH3ngzmVgj1BjkxCNEci9E1n/nH38nfLt/b&#xA;DXvNFxY290hSCC6uLaKSSUH4pA/pALGoI6r16t2OPHV5JDYNpwQHMsX8g/kt5M1Hy3qvnLzFqd1D&#xA;5atbi4WyW2AaRraB+AmlZY5Ca9OKIOlfbLcupkJCMR6mEMQIs8mN6v5Y/Ky785+VdN8matfXlhq9&#xA;7Dban6w4TW4lnjjHpF4Y/i4uxBIbplkZ5BGRkBswMY2ACyXzr+WXlXTfzq8v+W9U1bUrrTdXt7d5&#xA;7q8kFxdPNLNLBFCJFROKMY0WpHw7/RVjzSOIyAFhnPGBMAp7+eflr8mdPuntru8vdN16y0gR6Npd&#xA;mg+qHgJTbhz6Mh+OWvM+oPH3yGlnlPmL3ZZowHvpinl/8pvJmkeSLTzl+Y2o3Vpbanx/RemWIX1n&#xA;V1LIzFlevJByoKAClW3pls88jLhgOTCOICNyQf5pflPoGieWdM85eUdRm1Dy1qbiPjcAerEzhip5&#xA;KqVWqMpDKCp23rksGcykYyFSCMmIAWOSY/mt+XOg+XdN8kTz6zqctlqfFLx7yRblbS34ws5tolRC&#xA;AocnjvWgyODMZGWw2TkxgAbs+/MvyN+SGieXvK+l69eX2k2UK3T6c9ioaS4eQQGeW4YwzVfZKdPA&#xA;bAAY+HLlkSRRbckIAAF8vzCITSCIlogx9MnqVrtX6M2jhrMVesZ5++2PSvyF/wCUwvP+2fJ/yfhz&#xA;L0f1n3PP+0n+Lx/rj7pPec2TxL48zRPqzLPKX5aeZfMsYuLaNbawrQXlwSqNTrwABZvup75fj08p&#xA;+51mt7Ww6c0d5dw/Syqf8gNYWKtvqtvJLT7EiOi1/wBYcz+GXHRHvdZH2lx3vA17/wCx7Lptu9vp&#xA;1rbyU9SGGON6biqqAafdmeBQeTyyEpkjqXyVd/71Tf8AGRv1nNJLm+n4/pHudb2tzcs628TymNGl&#xA;kCAtxjjHJ3NOgUdTiASspxjzNXsw/wA+/YsPnN/zLzoewuU/h+l4n2w+rH7pfoYjm+eMTLy1fwaf&#xA;5j0rULiot7O8t55iBU8IpVdqD5DIzFxITE0X0l+fn5X+YfPkuj+Y/KJh1SNbb0TCk0aco2YyRyxy&#xA;SMsbKeZr8XhSvbW6XOMdxls5efGZUQ1FpU35Y/8AOPes6Z5imhTVNWS6jitUcMfVvYxAI1I+2UX4&#xA;2I2HvjxeLmBjyC1wYyCkP5Tf+s2+eP8AjNf/APUFb5Zn/v4/D72OL+7KJ/5xV/5R3zj/AM8P+TU2&#xA;DXc4rpuRd+QP/kl/PH/R5/1AjHVf3sfx1XD9BSP/AJxd8zwLrOqeTdQIew12BpIYmOxmjQiRAP8A&#xA;iyEmv+pk9bDYSHRjp5b13qv/ADkRqFp5d8v+Wfy10yUtb6bbpdXzdC7AGOItTarN6kjD3BwaQcRM&#xA;z1TnNARD1jztr/nfVfLGj+Y/y5tLDWbW5jL3FtcIskoVwCpjq8YqjBldPtV7bHMXFCIkYzsN85SI&#xA;Bju8Y/NXWPzbutO0CDzxptnplk1+HsIbcKJS8Q4tVUllAUCT2zMwRxgngN7ONlM6HEnv/OXv/HR8&#xA;s/8AGG7/AOJRZDs/kWeq5hBfkvffnP5d8vWt7oehpr/lPVJJHS1MsaOkiyGGQoxYNHVo9+SsvfbD&#xA;qRikaJqQRiMwNhYT782PLflfS/zX/Lu+021i0/VtS1O1fUrOHioot1BwkZE+EMWLqWH2qe2QwTkc&#xA;cgdwAyyxAnGkL+dkkcf/ADkP5GkkYJGg0pndiAoUanKSST0Aw6b+5l8fuXN/eD4fe7/nIv8AK/zp&#xA;rvmtvMWlWS3GkWumj61cetEhj+rmWR6o7K5+E1HEHHR54xjwnna58ZJsM5n13zbq/wCVnl7WPy9t&#xA;rHUp44Io7vT7pFYj04xHIsfJ41DxSLQg9R096BGIyETsNlkxBi8l/NnXPzpn8jRRecdJs9K0Sa8i&#xA;jiWFUSVpQkkijgsspVaISagb5l4I4uP0my0ZTPh35J1/zkx/yhfkT/jC/wDyYgyGi+qTLUcgyT89&#xA;/wAvPNfnjRvKM/li1TUEs4ZjPSaKKiXKQGN1MrIrL+6PQ5Vpc0YGXEzzQMgKfLd1bTWt1NazDjNA&#xA;7RSKDWjISpFR7jNoDbhKWFXrGefvtj0r8hf+UwvP+2fJ/wAn4cy9H9Z9zz/tJ/i8f64+6T3nNk8S&#xA;+StDh0ybVrVNUm+r6dzBu5QGY+mvxMFChjVqcRt1OaSAF78n0/USmMZMBc+j2yH87fItqkdpbWt4&#xA;ltCoSL04YxGqqKAAeoDSg8M2A1cBs8hL2f1MrkTGz5n9TJND/MbydrUiw2eootw2wt5wYXJPZeYA&#xA;Y/6pOXQzwlyLr9R2XqMQuUdu8bsly116W3/lny7qDl77TLW5kbrJLDGz/wDBEcvxyEscTzDkY9Xl&#xA;x7RlIfEsT/MS48u+VPJt9a2Frb2dzqkbWsMUMaozhxxkZuIBIVGO570ynOYwgQOrs+y45dTqImRM&#xA;hDfc/L7Xyh59+xYfOb/mXmd2Fyn8P0svbD6sful+hiOb54x2Kp5ovnjzlolv9W0jW72wtqk/V4J5&#xA;EjqTUkIDxBPyyEsUZcwGQmRyKC1jXtb1q5+tavqFxqFwBRZbqV5mA8AXJoPYYYxEeQpBkTzXWnmP&#xA;zDZ6bPpdnql3baZdFjc2MM8iQSl1CsZIlYI3JVANR0xMATZG6iRqm9K8y+Y9Hjmi0nVbzTo7in1h&#xA;LS4lgWSgIHMRsvKlT1xlCJ5i1EiOTtP8y+Y9Osp7HT9VvLOxuuX1m1t7iWKKTkvFuaIwVqrsajpi&#xA;YRJshRIhCWN9fWF3FeWNxLaXcJ5Q3EDtHIjdKq6kMD8sJAOxQDS7UtU1LVLx73Urua+vJKCS5uZH&#xA;mlbiAq8ncsxooAG+IiAKCkk80fofnHzZoMbx6LrF5p8UhrJFbzyRox8SinjX3pkZY4y5i0iRHIqG&#xA;reY/MGsXK3WraldX9whrHLczSSsu9fhLk8fowxgByCmRPN2seY/MOtNE2s6pd6m0AIha8nknKBqc&#xA;gvqM1K0FaYxgI8hSmRPNGaP5786aLa/VNJ1y+sbUEkW8NxIkYJNSQgPEV9hglijLmAkTI5FL59b1&#xA;q41RdWnv7iXVFdZVv3ldrgSIQUcSk8wykChrthERVVsizdt6trmt6xcrdavqFzqN0iCNJ7uaSeRU&#xA;BLBQ0hYhQWJp74xiByFKSTzTK5/MLz3dacdNuPMGoS2BX02tmuZSjJSnBhy+JadjkRigDdBPHLla&#xA;E0PzX5n0EyHRdVu9OEtPVW2meJXp05KpANPfJSxxlzFoEiOS3WvM/mPXHV9Z1S71Eoap9amklC/6&#xA;ockL9GMYRjyFKZE81up+YvMGqwwQapqd3fwWopaxXM8kyRAgCkauzBdlA2xjADkFMieaOsfP/niw&#xA;05dMsdf1C1sEBVLaG5lRFU9QoVhxHsMicUSbICROQ2tIWZnYsxLMxqzHcknucsYtYq9Yzz99seif&#xA;kZcpD51kjbrc2csSfMOkn6ozmVoz6/g6H2igTp77pD9I/S9/zZvDvkO+s5rK9uLOYFZraR4ZAdiG&#xA;Rip/EZo5CjT6njyCcRIciLUMDNdGjyOsaDk7kKqjqSdgMUE0LL66tYltLCKJ2+G3iVWYnsi0Jr9G&#xA;bwbB8tmeKRPeXhFz+efnKRGSGO0h3PGVYmL07V5SMtfozWnWT8ntIezunG5Mj8f2MH1bWdU1e8a8&#xA;1O5e6uW25yGtB1ooGyj2G2Y8pmRsu5wYIYo8MBQYR59+xYfOb/mXnQdhcp/D9Lxnth9WP3S/QxHN&#xA;88Y7FXsX5Efk5ovnax1TVPMEk8On20sdrZmB1jLzEcpASysNg6ADxOYeq1BgQBzb8OIS3LDfzY8k&#xA;L5L8732iQl2sVCT2EkhqzQSrUVNFqVbkp26jLsGXjjbXlhwypjcejaxLZi9jsbh7MsEFysTmIszc&#xA;FXmBxqW2G/XLeIXVsKKrqnlzzDpMcUmq6Xd6fHOKwPdQSwq4pX4DIq8vowRmDyKTEjmnuhflh5q1&#xA;jypqXmiC2ZNL09VMTFGL3LmRYykCgVbjWrN02p16QlmiJCPVkMZItj66DrjSvCunXTSxBTJGIZCy&#xA;hq8SwpUVoaZPjHexooe2sry6m9C2gknn3PpRozvt1+FQTthJARToLO7nuPq0EEktxUj0UVmeq7n4&#xA;QK7UxJC0uGnagb0WItZjekhRaiNvVLEVA4U5V+jGxVrSJ1Xy35i0cRtq2l3enCX+6N3BLAG7/D6i&#xA;rXBGcTyNpMSOajDo+rT2bXsNlcS2aMqPcpE7RKzMFUFwOIJY0G/XDxC6RRRFx5Z8yW15HY3Gk3kN&#xA;7KvOK1kt5VlZf5lQqGI96YBONXaeEqkHlDzZcR3EsGiX8sdoxS6eO1mZYmX7SyEL8JHeuA5I94Xh&#xA;PclGTQm0nlLzXHp36Sk0W/TTqV+utbTCClK19Qrw/HIeJG6sWnhNXSCsNN1HUJvQsLWa7mpX0oI2&#xA;lanSvFATkjIDmgC0Vb+V/M1xYSajb6RezafDX1byO3laFOP2uUgUqKU3qcBnEGrTwnmlmSQ7FXYq&#xA;9Yzz99sTLy7rU+ia5ZarCOT2kgcp05IdnX/ZKSMnjnwyBcfVacZscoH+IPqfStUstV0631CykEtr&#xA;coHjb2PUHwIOxGbiMgRYfNs2GWOZhIUQ8w/NP8rb3Ub2TXdCjEtxKAb2yFAzMop6kddiSB8S/dUn&#xA;MTUack8UXoux+2I44+Fl2HQ/oLyCfSNVgnNvPZTxTg0MTxOr16fZIrmCYHueqjnhIWJAj3vR/wAr&#xA;/wAsNVl1a31rWrZrSytGEtvbzArJLKpqhKHdVU/Fv1+WZWn05uy8/wBsdrwEDjxnilLYkcgGd/mz&#xA;5sg0TyzPaRuP0jqaNBboOqowpJIfABTQe5zJ1OThj5l03YuiObMJH6Ibn9AfOWap752KsV8+/YsP&#xA;nN/zLzouwuU/h+l4b2w+rH7pfoYjm+eMdir61n8ied9H/JbQ/LflG3H6daa3vNSkMqQmNw/1p/ic&#xA;rUrKqJ/qjNSMsTlMpcnO4JCAA5pH/wA5T+V57zy5ovmswejeWZFpqMYIYqk45qCwqCI5QV2P7WT0&#xA;M6kYsNTHYFU8u+adT8rf84vaZrWmLEb63kkELTp6iqZNTlQsFJHxANtjOAlnIP42TGRjisK9r5mv&#xA;/wAwP+cdfMOoeYkimvbRbgLMiBKvaqk0cnEbK1Wp8PbAYDHmAiolxYza3yx588zaZ/zjRL5ghlVd&#xA;Q0z07PTpPTj4rClzFapVacWopNSRU4zxROeuhWMyMdsT/I/81tc1T82zJ5guVll161+pM4VYk9S3&#xA;BkgPFABXZkH+tl2pwAY9ujDDkJnv1Z35G8oaZ5B86ed/NOqUt9Oa/hsNNkpsseoSRTNT/JVriJaj&#xA;+Vsx8uQ5IxiOdfc2QiIkkojRPIVr5Y/OTzb5xuUEejQ6cdRif+R7ss1ww91NtKadgwwSy8WOMetp&#xA;EOGZPRKfycQXPlTzZ+Y8s1lZeY9Zu7r0NSv2C29om3AM7V4oJH3H7QCjJ6jaUYfwhji5GXVFW2r2&#xA;N15C8xaJ5988eX/ML3MLtp0ltd23qq4jYgcR6VWWQKyUBNdvDAYkTBhGQTfpIkQUt/LDzDN5c/5x&#xA;yvdcgt4bq4sLqSaCG4BaIyC4jCMwBU/AxDChG4yWaHFmpjjlWO0n/KX8xdb8+fnRpup6vFBDcWul&#xA;T2qrbK6xsFLPzo7OeR9Tfftk8+EY8RA70YshlOymlr+d/my1/O2TyrKkD6A+qvpq2scIR19WYos3&#xA;MfEW5tyeux3+eQOmicXF1q0jMeOulplH+W/ly4/5yQu5ntozaQ6amsmzKgxm7eQQ8uPSlayf62R8&#xA;aQw/GmXhjxE307zVq1t5+u7vWvzA8tyeV3eeI6GLq3WWFACIhVgreorAc+Tfze2QMAYbRlxd7ISP&#xA;FuRTGPyUt9Bg/PHznH5fkhl0f6s7Wb2zK0PF5omKxlSVKqzECm2W6knwo3za8NcZpEflL+b3mvXf&#xA;zNvfK+oLbfoeNLlLS3ghWIQi2binHj1BUUIP0UwZ9PGMBIc04spMqeCfmbZ2tl+YfmO1tY1htotR&#xA;uViiQUVV9Qnio7Adhmwwm4D3OLkHqLGcsYuxV6xnn77Y7FWT+TfzA1zytMRasJ7GRuU1jKTwJ6cl&#xA;I3RvcfTXLsWYw9zrtf2Zj1I9W0u961pP53+TruMfXvX06WnxiSMypX/JaIMx+lRmbHVwPPZ5fN7P&#xA;6iJ9NTHvr702b81vy/VSx1dKDwinJ+4Jln5iHe4o7G1X8z7R+tjPmD899HgiaPQ7WS7uDss849OE&#xA;e/GvNvl8PzymesA5Ox03s5kkbynhHluf1fe8c1rWtT1rUJdQ1Kcz3UvVjsAB0VQNlUeAzAnMyNl6&#xA;zT6eGGAhAUAgci3OxVivn37Fh85v+ZedF2Fyn8P0vDe2H1Y/dL9DEc3zxideS7vQ7LzXpV7rokbS&#xA;bW4Se6SFQ7usR5hOJK1DMoU79MhkBMSBzTAi92b/AJzfm/L5v8yW9z5fubyy0m0t1ijjLGFmkZi0&#xA;jsqMR3C9e2UafT8Ed+bbly8R2Tryx+cnlqX8pNQ8lebje3F5Ks8VpdIgnHF6Sws7O6tWOb8AMhPT&#xA;y8QSiyjlHBwlK5/zP8tv+Qdv5DVbj9NxSF2b019ChvnuPt8q/Yb+Xrkhgl4vH0/Yx8QcHD1VvJn5&#xA;qeWdG/JvXfJ92lydW1L639XaONWh/fxIicnLAjdd/hxyYJHIJDkEwyAQITL8svzY/L+2/Le58i+d&#xA;bW4ayZ5CrwqXWSOSQSjdGV0dJNx9GQzYJmfHFOPLHh4ZPO/M+seVbLzlb6n5DhuLTTrBoJrU3RJk&#xA;M8Lcy+7uaFgKdPlmTCMjGp82qRF3F6F+e/51aJ500HS9I0H1lhEputSEqcKSInGJAf2gOb1+QzH0&#xA;umMCSW3NmEhQRvnD/nIDT9a/KCLQImm/xNdww2mpuyEJwQ/vpA9aH1Qg2/yjkcekMcl/wpnnuFdW&#xA;O/k5+buj+WNJ1Lyt5psnvvLWqFmf0gHaNpEEcoZCV5I6qOhqpFRWuWajTmREo/UGGLKAKPJvX7v/&#xA;AJxytdK1FtEstVvtVuYJk05ZmZYLeZ0IjkNXRiqMa0PP3xgMxIuqWRx1ta3R/wAzvLdp+RmpeSJV&#xA;uP0zdyO8TLGpgo0ySCr8q/ZQ/s4ywyOUT6KMg4OFd/zjF/5NSD/mDuf+IjHW/wB2un+pnOu+b/yM&#xA;8qfmFq2vtp+oXnmy0upg9uQDALrkQ8qc2CipPXenULXKI48s4AWOFtMoRkT1ec6N+eOuWn5pz+eb&#xA;uBZVvFNtd6fGaAWnwhY0Y/tJ6atXuR75ky0wOPgDSMx4uJlHmDzB/wA4za3qs2v3Vpq0d5dMZ7qx&#xA;t19NZJW3YkB+IZjueLgVyqEM8RWzOUsZN7pL+U35m+S/J/n3XtZks7m00S+ikh02zhAmkiQzq6K5&#xA;dx0Rd/iO+Tz4ZTgB1Y4sgjInolf5Yef9C8s/mdc+ZdRWc6dL9b4iFA0n79iUqpZR898lmxGUOEc0&#xA;Y5iMrYt561qz1zzlrWsWQcWl/eTXEAkAV+EjlhyAJofpy7FExiAWEzZJSLJsXYq9Yzz99sdirsVd&#xA;irsVdirsVdirsVYr59+xYfOb/mXnRdhcp/D9Lw3th9WP3S/QxHN88Y7FXYq7FXYq7FXYq7FXYq7F&#xA;XYq7FXYqy/8AKzz3F5H82R69LZtfIkMsP1dXEZPqACvIq3T5ZTnxccaZ458JtJ/N+up5g806rraQ&#xA;m3XUbmW5WAtyKCRi3EtQVp8snjjwxA7mMjZtKMmh2KuxV2KuxV2KuxV7pr/+Ev0xd/or619Q9RvR&#xA;5cKUr+z34/y13p1zg58N7cn1/TeP4Y4+HipL/wDcR/y8f8Jkdm/955O/3Ef8vH/CY7L+88nf7iP+&#xA;Xj/hMdl/eeTv9xH/AC8f8Jjsv7zyd/uI/wCXj/hMdl/eeTv9xH/Lx/wmOy/vPJ3+4j/l4/4THZf3&#xA;nk7/AHEf8vH/AAmOy/vPJi/nn9CUsfU+s8f3vHj6da/BWtc3/YnKVeX6Xiva2+LHxd0uXwYr/wA6&#xA;7/y+f8ks3vqeP2d/zrv/AC+f8ksfUuzv+dd/5fP+SWPqXZ3/ADrv/L5/ySx9S7O/513/AJfP+SWP&#xA;qXZ3/Ou/8vn/ACSx9S7O/wCdd/5fP+SWPqXZ3/Ou/wDL5/ySx9S7O/513/l8/wCSWPqXZ3/Ou/8A&#xA;L5/ySx9S7O/513/l8/5JY+pdnf8AOu/8vn/JLH1Ls7/nXf8Al8/5JY+pdnf867/y+f8AJLH1Ls7/&#xA;AJ13/l8/5JY+pdnf867/AMvn/JLH1Ls7/nXf+Xz/AJJY+pdnf867/wAvn/JLH1Ls7/nXf+Xz/klj&#xA;6l2d/wA67/y+f8ksfUuzv+dd/wCXz/klj6l2Tfyl/wAq+/xHp/6f+vfon1l+s8fSpSv7ffhX7fHe&#xA;lab5DJx8JqrZR4b3f//Z</xmpGImg:image>
               </rdf:li>
            </rdf:Alt>
         </xmp:Thumbnails>
         <xmpMM:InstanceID>xmp.iid:c303b42b-868f-4c36-9ed6-eb75e5952872</xmpMM:InstanceID>
         <xmpMM:DocumentID>xmp.did:c303b42b-868f-4c36-9ed6-eb75e5952872</xmpMM:DocumentID>
         <xmpMM:OriginalDocumentID>uuid:5D20892493BFDB11914A8590D31508C8</xmpMM:OriginalDocumentID>
         <xmpMM:RenditionClass>proof:pdf</xmpMM:RenditionClass>
         <xmpMM:DerivedFrom rdf:parseType="Resource">
            <stRef:instanceID>xmp.iid:06f094c8-115d-4863-b06d-16d0c483c777</stRef:instanceID>
            <stRef:documentID>xmp.did:06f094c8-115d-4863-b06d-16d0c483c777</stRef:documentID>
            <stRef:originalDocumentID>uuid:5D20892493BFDB11914A8590D31508C8</stRef:originalDocumentID>
            <stRef:renditionClass>proof:pdf</stRef:renditionClass>
         </xmpMM:DerivedFrom>
         <xmpMM:History>
            <rdf:Seq>
               <rdf:li rdf:parseType="Resource">
                  <stEvt:action>saved</stEvt:action>
                  <stEvt:instanceID>xmp.iid:3835e419-95b8-4fe5-a956-9d89c016f4eb</stEvt:instanceID>
                  <stEvt:when>2020-04-14T10:21:39+02:00</stEvt:when>
                  <stEvt:softwareAgent>Adobe Illustrator 24.1 (Macintosh)</stEvt:softwareAgent>
                  <stEvt:changed>/</stEvt:changed>
               </rdf:li>
               <rdf:li rdf:parseType="Resource">
                  <stEvt:action>converted</stEvt:action>
                  <stEvt:parameters>from application/postscript to application/vnd.adobe.illustrator</stEvt:parameters>
               </rdf:li>
               <rdf:li rdf:parseType="Resource">
                  <stEvt:action>converted</stEvt:action>
                  <stEvt:parameters>from application/postscript to application/vnd.adobe.illustrator</stEvt:parameters>
               </rdf:li>
               <rdf:li rdf:parseType="Resource">
                  <stEvt:action>saved</stEvt:action>
                  <stEvt:instanceID>xmp.iid:0a084c2b-5fc6-49c1-b9b9-c72685e6c754</stEvt:instanceID>
                  <stEvt:when>2020-07-10T11:03:35+02:00</stEvt:when>
                  <stEvt:softwareAgent>Adobe Illustrator 24.2 (Macintosh)</stEvt:softwareAgent>
                  <stEvt:changed>/</stEvt:changed>
               </rdf:li>
               <rdf:li rdf:parseType="Resource">
                  <stEvt:action>saved</stEvt:action>
                  <stEvt:instanceID>xmp.iid:06f094c8-115d-4863-b06d-16d0c483c777</stEvt:instanceID>
                  <stEvt:when>2020-07-10T11:05:42+02:00</stEvt:when>
                  <stEvt:softwareAgent>Adobe Illustrator 24.2 (Macintosh)</stEvt:softwareAgent>
                  <stEvt:changed>/</stEvt:changed>
               </rdf:li>
               <rdf:li rdf:parseType="Resource">
                  <stEvt:action>converted</stEvt:action>
                  <stEvt:parameters>from application/postscript to application/vnd.adobe.illustrator</stEvt:parameters>
               </rdf:li>
               <rdf:li rdf:parseType="Resource">
                  <stEvt:action>converted</stEvt:action>
                  <stEvt:parameters>from application/postscript to application/vnd.adobe.illustrator</stEvt:parameters>
               </rdf:li>
               <rdf:li rdf:parseType="Resource">
                  <stEvt:action>saved</stEvt:action>
                  <stEvt:instanceID>xmp.iid:c303b42b-868f-4c36-9ed6-eb75e5952872</stEvt:instanceID>
                  <stEvt:when>2020-11-11T15:38:53+01:00</stEvt:when>
                  <stEvt:softwareAgent>Adobe Illustrator 25.0 (Macintosh)</stEvt:softwareAgent>
                  <stEvt:changed>/</stEvt:changed>
               </rdf:li>
            </rdf:Seq>
         </xmpMM:History>
         <illustrator:StartupProfile>Print</illustrator:StartupProfile>
         <xmpTPg:HasVisibleOverprint>False</xmpTPg:HasVisibleOverprint>
         <xmpTPg:HasVisibleTransparency>False</xmpTPg:HasVisibleTransparency>
         <xmpTPg:NPages>1</xmpTPg:NPages>
         <xmpTPg:MaxPageSize rdf:parseType="Resource">
            <stDim:w>60.000000</stDim:w>
            <stDim:h>20.000000</stDim:h>
            <stDim:unit>Millimeters</stDim:unit>
         </xmpTPg:MaxPageSize>
         <xmpTPg:PlateNames>
            <rdf:Seq>
               <rdf:li>Cyan</rdf:li>
               <rdf:li>Magenta</rdf:li>
               <rdf:li>Yellow</rdf:li>
               <rdf:li>Black</rdf:li>
            </rdf:Seq>
         </xmpTPg:PlateNames>
         <xmpTPg:SwatchGroups>
            <rdf:Seq>
               <rdf:li rdf:parseType="Resource">
                  <xmpG:groupName>Default Swatch Group</xmpG:groupName>
                  <xmpG:groupType>0</xmpG:groupType>
                  <xmpG:Colorants>
                     <rdf:Seq>
                        <rdf:li rdf:parseType="Resource">
                           <xmpG:swatchName>White</xmpG:swatchName>
                           <xmpG:mode>RGB</xmpG:mode>
                           <xmpG:type>PROCESS</xmpG:type>
                           <xmpG:red>255</xmpG:red>
                           <xmpG:green>255</xmpG:green>
                           <xmpG:blue>255</xmpG:blue>
                        </rdf:li>
                        <rdf:li rdf:parseType="Resource">
                           <xmpG:swatchName>Black</xmpG:swatchName>
                           <xmpG:mode>RGB</xmpG:mode>
                           <xmpG:type>PROCESS</xmpG:type>
                           <xmpG:red>29</xmpG:red>
                           <xmpG:green>29</xmpG:green>
                           <xmpG:blue>27</xmpG:blue>
                        </rdf:li>
                        <rdf:li rdf:parseType="Resource">
                           <xmpG:swatchName>ALG R=0 G=46 B=101</xmpG:swatchName>
                           <xmpG:type>PROCESS</xmpG:type>
                           <xmpG:tint>100.000000</xmpG:tint>
                           <xmpG:mode>RGB</xmpG:mode>
                           <xmpG:red>0</xmpG:red>
                           <xmpG:green>46</xmpG:green>
                           <xmpG:blue>101</xmpG:blue>
                        </rdf:li>
                        <rdf:li rdf:parseType="Resource">
                           <xmpG:swatchName>ALG R=234 G=44 B=56</xmpG:swatchName>
                           <xmpG:type>PROCESS</xmpG:type>
                           <xmpG:tint>100.000000</xmpG:tint>
                           <xmpG:mode>RGB</xmpG:mode>
                           <xmpG:red>234</xmpG:red>
                           <xmpG:green>44</xmpG:green>
                           <xmpG:blue>56</xmpG:blue>
                        </rdf:li>
                     </rdf:Seq>
                  </xmpG:Colorants>
               </rdf:li>
            </rdf:Seq>
         </xmpTPg:SwatchGroups>
         <pdf:Producer>Adobe PDF library 10.01</pdf:Producer>
      </rdf:Description>
   </rdf:RDF>
</x:xmpmeta>
                                                                                                    
                                                                                                    
                                                                                                    
                                                                                                    
                                                                                                    
                                                                                                    
                                                                                                    
                                                                                                    
                                                                                                    
                                                                                                    
                                                                                                    
                                                                                                    
                                                                                                    
                                                                                                    
                                                                                                    
                                                                                                    
                                                                                                    
                                                                                                    
                                                                                                    
                                                                                                    
                           
<?xpacket end="w"?>
	</metadata>
<path class="st0" d="M55.6,49.6h99.2c1.2,0,2.1-1,2.1-2.1V9.2c0-1.2-1-2.1-2.1-2.1H55.6V49.6z"/>
<path class="st1" d="M55.6,49.6H15.2c-1.2,0-2.1-1-2.1-2.1V9.2c0-1.2,1-2.1,2.1-2.1h40.4V49.6z"/>
<path class="st2" d="M40.4,29.6c0.2,5.1-1.9,8.9-6.6,8.9c-3.6,0-7.3-2.7-7.3-8.1V15.9h-6v14.8c0,5.6,3.7,11.3,12.4,11.3
	c8.4,0,11.7-6,11.8-11c6.1,0.9,8.9-3.6,8.1-6.7c-1.1,1.2-2.8,2.3-8.1,0.8v-9.2h-4.3v7.7C32,20.9,30,28.5,30,28.5
	S33.9,26.4,40.4,29.6"/>
<g>
	<path class="st2" d="M70.8,25.7c-2.3,0-4.2-1.2-4.2-3.7v-6.7h2.2v6.5c0,1.6,1.2,2.2,2.3,2.2c1.1,0,2.2-0.6,2.2-2.2v-6.5h2.1v6.5
		C75.4,24.4,73.6,25.7,70.8,25.7z"/>
	<path class="st2" d="M82.8,25.6v-4.6c0-1.1-0.6-1.6-1.5-1.6c-0.5,0-1.1,0.2-1.4,0.4v5.9h-2v-7.6l1.9-0.2l0,1.1h0.1
		c0.6-0.6,1.5-1.2,2.5-1.2c1.4,0,2.5,0.9,2.5,2.6v5.2H82.8z"/>
	<path class="st2" d="M88,16.5c-0.6,0-1.1-0.5-1.1-1.1c0-0.6,0.5-1,1.1-1c0.6,0,1.1,0.5,1.1,1C89,16,88.6,16.5,88,16.5z M87,25.6
		v-7.7h2v7.7H87z"/>
	<path class="st2" d="M95,25.6h-1.7l-3.1-7.7h2.3l1.4,4.1c0.2,0.6,0.4,1.7,0.4,1.7s0.2-1.1,0.4-1.7l1.4-4.1h2L95,25.6z"/>
	<path class="st2" d="M105.6,22h-5.1c0,1.3,0.9,2.2,2.3,2.2c0.9,0,1.7-0.2,2.6-0.5l-0.1,1.4c-0.9,0.4-1.9,0.6-3.1,0.6
		c-2.3,0-3.7-1.6-3.7-3.9c0-2.5,1.6-4.2,3.9-4.2c2.2,0,3.3,1.5,3.3,3.2C105.7,21.3,105.7,21.7,105.6,22z M102.3,19
		c-1,0-1.6,0.9-1.7,1.8h3.2C103.8,19.8,103.3,19,102.3,19z"/>
	<path class="st2" d="M112.1,20c-0.4-0.2-0.9-0.4-1.4-0.4c-0.5,0-0.9,0.2-1.2,0.5v5.5h-2v-7.6l1.9-0.2l-0.1,1.4h0.1
		c0.4-0.9,1.1-1.5,2-1.5c0.4,0,0.8,0.1,1,0.2L112.1,20z"/>
	<path class="st2" d="M115.6,25.7c-1,0-1.8-0.2-2.5-0.6l0.2-1.5c0.7,0.4,1.6,0.6,2.3,0.6c0.6,0,1.2-0.2,1.2-0.8c0-1.2-3.5-1-3.5-3.4
		c0-1.6,1.4-2.4,3.1-2.4c0.8,0,1.7,0.2,2.2,0.5l-0.2,1.4c-0.6-0.2-1.4-0.4-2.1-0.4c-0.5,0-1,0.2-1,0.6c0,1.2,3.5,1,3.5,3.4
		C118.8,24.9,117.4,25.7,115.6,25.7z"/>
	<path class="st2" d="M121.6,16.5c-0.6,0-1.1-0.5-1.1-1.1c0-0.6,0.5-1,1.1-1c0.6,0,1.1,0.5,1.1,1C122.7,16,122.2,16.5,121.6,16.5z
		 M120.6,25.6v-7.7h2v7.7H120.6z"/>
	<path class="st2" d="M127.2,25.7c-1.4,0-2.2-0.8-2.2-2.1c0-0.4,0-2.4,0-3.6v-0.6h-0.7v-0.8l2.5-2.3h0.2v1.7h2.4v1.4H127
		c0,0.1,0,2.6,0,3.6c0,0.8,0.5,1.2,1.2,1.2c0.4,0,0.9,0,1.3-0.2v1.4C128.8,25.5,128,25.7,127.2,25.7z"/>
	<path class="st2" d="M137.4,22h-5.1c0,1.3,0.9,2.2,2.3,2.2c0.9,0,1.7-0.2,2.6-0.5l-0.1,1.4c-0.9,0.4-1.9,0.6-3.1,0.6
		c-2.3,0-3.7-1.6-3.7-3.9c0-2.5,1.6-4.2,3.9-4.2c2.2,0,3.3,1.5,3.3,3.2C137.5,21.3,137.5,21.7,137.4,22z M134.1,19
		c-1,0-1.6,0.9-1.7,1.8h3.2C135.6,19.8,135.1,19,134.1,19z"/>
	<path class="st2" d="M140.3,16.5c-0.6,0-1.1-0.5-1.1-1.1c0-0.6,0.5-1,1.1-1c0.6,0,1.1,0.5,1.1,1C141.4,16,140.9,16.5,140.3,16.5z
		 M139.3,25.6v-7.7h2v7.7H139.3z"/>
	<path class="st2" d="M145.9,25.7c-1.4,0-2.2-0.8-2.2-2.1c0-0.4,0-2.4,0-3.6v-0.6H143v-0.8l2.5-2.3h0.2v1.7h2.4v1.4h-2.4
		c0,0.1,0,2.6,0,3.6c0,0.8,0.5,1.2,1.2,1.2c0.4,0,0.9,0,1.3-0.2v1.4C147.5,25.5,146.8,25.7,145.9,25.7z"/>
	<path class="st2" d="M73.5,41.5l-0.9-2.7h-3.4l-0.9,2.7H66l3.7-10.3h2.4l3.7,10.3H73.5z M71.1,34.2C71,33.8,70.8,33,70.8,33
		s-0.1,0.8-0.3,1.2l-1.1,3.1h2.7L71.1,34.2z"/>
	<path class="st2" d="M82.2,41.5v-4.6c0-1.1-0.6-1.6-1.5-1.6c-0.5,0-1.1,0.2-1.4,0.4v5.9h-2v-7.6l1.9-0.2l0,1.1h0.1
		c0.6-0.6,1.5-1.2,2.5-1.2c1.4,0,2.5,0.9,2.5,2.6v5.2H82.2z"/>
	<path class="st2" d="M88.7,41.6c-1.4,0-2.2-0.8-2.2-2.1c0-0.4,0-2.4,0-3.6v-0.6h-0.7v-0.8l2.5-2.3h0.2v1.7h2.4v1.4h-2.4
		c0,0.1,0,2.6,0,3.6c0,0.8,0.5,1.2,1.2,1.2c0.4,0,0.9,0,1.3-0.2v1.4C90.3,41.5,89.5,41.6,88.7,41.6z"/>
	<path class="st2" d="M101.3,41.5h-1.6l-1.5-3.8c-0.2-0.6-0.4-1.6-0.4-1.6s-0.2,1-0.4,1.6L96,41.5h-1.6l-2.6-7.7H94l1.1,3.8
		c0.2,0.6,0.4,1.8,0.4,1.8s0.2-1.1,0.4-1.7l1.3-3.8h1.5l1.4,3.8c0.2,0.6,0.4,1.7,0.4,1.7s0.2-1.1,0.4-1.7l1.1-3.8h2L101.3,41.5z"/>
	<path class="st2" d="M111.6,37.9h-5.1c0,1.3,0.9,2.2,2.3,2.2c0.9,0,1.7-0.2,2.6-0.5l-0.1,1.4c-0.9,0.4-1.9,0.6-3.1,0.6
		c-2.3,0-3.7-1.6-3.7-3.9c0-2.5,1.6-4.2,3.9-4.2c2.2,0,3.3,1.5,3.3,3.2C111.7,37.2,111.6,37.6,111.6,37.9z M108.2,34.9
		c-1,0-1.6,0.9-1.7,1.8h3.2C109.8,35.7,109.2,34.9,108.2,34.9z"/>
	<path class="st2" d="M118,35.9c-0.4-0.2-0.9-0.4-1.4-0.4c-0.5,0-0.9,0.2-1.2,0.5v5.5h-2v-7.6l1.9-0.2l-0.1,1.4h0.1
		c0.4-0.9,1.1-1.5,2-1.5c0.4,0,0.8,0.1,1,0.2L118,35.9z"/>
	<path class="st2" d="M122.8,41.6c-0.4,0-0.9-0.1-1.1-0.2v4h-2V33.9l1.9-0.2l0,1h0.1c0.6-0.7,1.4-1.1,2.3-1.1c1.9,0,3.1,1.6,3.1,3.8
		C127,39.9,125.4,41.6,122.8,41.6z M123,35.2c-0.5,0-1,0.2-1.4,0.4v4.2c0.3,0.2,0.8,0.3,1.2,0.3c1.3,0,2.1-1.1,2.1-2.5
		C125,36.1,124.2,35.2,123,35.2z"/>
	<path class="st2" d="M135.3,37.9h-5.1c0,1.3,0.9,2.2,2.3,2.2c0.9,0,1.7-0.2,2.6-0.5L135,41c-0.9,0.4-1.9,0.6-3.1,0.6
		c-2.3,0-3.7-1.6-3.7-3.9c0-2.5,1.6-4.2,3.9-4.2c2.2,0,3.3,1.5,3.3,3.2C135.4,37.2,135.3,37.6,135.3,37.9z M131.9,34.9
		c-1,0-1.6,0.9-1.7,1.8h3.2C133.5,35.7,132.9,34.9,131.9,34.9z"/>
	<path class="st2" d="M142.2,41.5v-4.6c0-1.1-0.6-1.6-1.5-1.6c-0.5,0-1.1,0.2-1.4,0.4v5.9h-2v-7.6l1.9-0.2l0,1.1h0.1
		c0.6-0.6,1.5-1.2,2.5-1.2c1.4,0,2.5,0.9,2.5,2.6v5.2H142.2z"/>
</g>
</svg>
