<?xml version="1.0" encoding="utf-8"?>
<!-- Generator: Adobe Illustrator 27.6.1, SVG Export Plug-In . SVG Version: 6.00 Build 0)  -->
<svg version="1.1" xmlns="http://www.w3.org/2000/svg" xmlns:xlink="http://www.w3.org/1999/xlink" x="0px" y="0px"
	 viewBox="0 0 1548 469" style="enable-background:new 0 0 1548 469;" xml:space="preserve">
<style type="text/css">
	.st0{fill:#41546D;}
</style>
<g id="Background">
</g>
<g id="Artwork">
	<g>
		<g id="fd62271e-7e67-4e36-aef1-41001c7ce962_00000129885724888685110480000010601937567737942438_">
			<g id="ff60670d-eed4-4156-bd7b-680fae28f3af_00000085241844626032523520000013280669837548289444_">
				<path class="st0" d="M568.3,141.8c-36.3,17.2-59.2,53.8-59.2,93.9c0,2.7,0,5.3,0.4,8c0.4,5-0.8,9.5-3.1,13.7L472,317.1
					c-3.1,5-8.4,8.4-14.1,8.4h-33.2c-8,0-14.5-6.5-14.5-14.5c0-2.7,0.8-5,1.9-7.3L571.7,26.9c4.2-6.9,13-9.2,19.9-5.3
					c2.3,1.1,4.2,3.1,5.3,5.3l16.4,28.6c3.1,5,3.1,11.5,0,16.4l-35.1,60.7C575.9,136.5,572.5,139.9,568.3,141.8z"/>
				<path class="st0" d="M703,235.7c0-49.6-40.5-89.7-90.1-89.7c-30.2,0-58.4,15.3-75.2,40.5l0,0c-0.8,1.1-1.5,2.7-2.3,3.8l-0.4,0.4
					c-0.8,1.1-1.5,2.3-1.9,3.4c0,0.4-0.4,0.4-0.4,0.8c-0.4,1.1-1.1,2.3-1.5,3.4c0,0.4-0.4,0.4-0.4,0.8l-1.5,3.4c0,0.4,0,0.4-0.4,0.8
					c-0.4,1.1-0.8,2.7-1.5,3.8l-0.4,0.8c-0.4,1.5-0.8,2.7-1.1,4.2v0.4c-13,48.1,15.7,97.4,63.8,110c48.1,13,97.4-15.7,110-63.8
					C702.3,251.8,703,243.8,703,235.7L703,235.7z"/>
				<path class="st0" d="M756.1,304.1l-32.5-56.5c-1.1-1.9-3.4-2.3-5.3-1.5c-1.1,0.8-1.9,1.5-1.9,2.7c-3.4,27.9-17.9,53.1-40.1,69.9
					c-1.5,1.1-1.9,3.8-0.8,5.3c0.8,1.1,1.9,1.5,3.1,1.5h64.9c8,0,14.5-6.5,14.5-14.5C758,308.7,757.6,306,756.1,304.1z"/>
				<path class="st0" d="M812.2,325.5h-30.5V147.5h23.7c3.8,0,7.3,3.1,7.3,6.9l0,0L812.2,325.5z"/>
				<path class="st0" d="M863,147.5h-23.7v177.9h30.5V154.4C869.9,150.6,866.9,147.5,863,147.5z"/>
				<path class="st0" d="M920.7,196.8H897v128.7h30.5V204.1C927.6,200.2,924.5,196.8,920.7,196.8z"/>
				<path class="st0" d="M912.7,145.6c-9.9,0-18.3,8-18.3,18.3s8,18.3,18.3,18.3c10.3,0,18.3-8,18.3-18.3S922.6,145.6,912.7,145.6
					L912.7,145.6z"/>
				<path class="st0" d="M1078.4,196.8h-23.7v18.7c-4.2-12.6-19.9-21.4-41.2-21.4c-17.2-0.4-34,6.9-45.8,19.5
					c-12.2,13-19.1,30.2-18.3,47.7c-0.4,17.9,6.1,35.1,18.3,48.1c11.8,12.6,28.6,19.5,45.8,19.1c21,0,36.7-8.8,41.2-21.4v18.3h30.5
					V204.1C1085.3,200.2,1082.2,197.2,1078.4,196.8z M1045.5,289.2c-7.3,7.3-17.6,11.5-27.9,11.1c-10.3,0-20.2-3.8-27.1-11.1
					c-14.1-16-14.1-40.1,0-56.1c7.3-7.3,17.2-11.5,27.5-11.1c10.3-0.4,20.6,3.8,27.9,11.1C1061.2,248.7,1061.2,273.5,1045.5,289.2
					L1045.5,289.2z"/>
				<path class="st0" d="M1230.4,325.5v-79.4c0-32.1-18.3-51.5-48.9-51.5c-18.3,0-32.8,8.4-38.9,21v-11.5c0-3.8-3.1-7.3-6.9-7.3l0,0
					h-23.3v128.7h30.5v-74.1c-0.8-15.7,11.5-29.4,27.5-29.8c0.8,0,1.5,0,2.3,0c17.2,0,27.5,11.1,27.5,28.6v75.2H1230.4z"/>
				<path class="st0" d="M1316.3,196.8h-20.6v-42.4c0-3.8-3.1-6.9-7.3-6.9l0,0h-23.7v49.3h-16.8v27.9h16.8v100.8h30.5V224.7h27.9
					v-20.6C1323.1,200.2,1320.1,196.8,1316.3,196.8z"/>
				<path class="st0" d="M1357.1,181.9c9.9,0,17.9-8.4,17.9-18.3c0-9.9-8.4-17.9-18.3-17.9c-9.9,0-17.9,8.4-17.9,17.9
					c0,9.9,8,17.9,17.9,18.3C1357.1,181.9,1357.1,181.9,1357.1,181.9z"/>
				<path class="st0" d="M1372.8,204.1c0-3.8-3.1-7.3-7.3-7.3h-23.7v128.7h30.5L1372.8,204.1z"/>
				<path class="st0" d="M154.4,146.8h-23.7v68c-4.2-12.6-19.9-21.8-41.2-21.8c-17.6-0.4-34.4,6.9-46.2,19.9
					c-12.2,13-19.1,30.2-18.3,48.1c-0.4,17.9,6.1,35.1,18.3,48.1c12.2,12.6,28.6,19.5,46.2,19.1c21.4,0,37-8.8,41.2-21.4v18.7h30.9
					V153.7C161.2,149.8,158.2,146.8,154.4,146.8z M121.5,289.2c-7.3,7.6-17.6,11.5-27.9,11.5s-20.2-3.8-27.5-11.5
					c-7.3-7.6-11.1-17.6-11.1-28.3c-0.4-10.3,3.4-20.6,10.7-28.3s17.2-11.5,27.5-11.5s20.6,3.8,27.9,11.5
					C136.8,248.3,136.8,273.5,121.5,289.2L121.5,289.2z"/>
				<path class="st0" d="M312.8,257.9c0.4-17.2-6.1-33.6-17.6-45.8c-11.8-12.6-28.3-19.5-45.4-18.7c-17.9-0.8-35.5,6.1-48.1,18.7
					c-12.6,12.2-18.7,28.6-18.7,48.9v1.1c0,20.2,6.1,36.7,18.7,48.9c12.6,12.2,29,18.3,49.3,18.3c19.1,0,35.1-4.2,47.7-13V301
					c0-2.7-1.1-5-3.4-6.1c-2.3-1.1-5-1.1-7.3,0c-11.1,5.3-23.7,8-35.9,7.6c-22.9,0-38.2-13-38.9-33.6h99.3
					C312.4,265.5,312.8,261.7,312.8,257.9z M213.9,246.8c0.8-7.6,4.6-14.9,11.1-19.5c6.9-5.3,15.7-8.4,24.8-8.4
					c8.4-0.4,16.4,2.7,22.5,8.4c5.7,5,9.2,11.8,9.2,19.5H213.9z"/>
				<path class="st0" d="M1524,257.9c0.4-17.2-6.1-33.6-17.6-45.8c-11.8-12.6-28.3-19.5-45.4-18.7c-17.9-0.8-35.5,6.1-48.1,18.7
					c-12.6,12.2-18.7,28.6-18.7,48.9v1.1c0,20.2,6.1,36.7,18.7,48.9c12.6,12.2,29.4,18.3,49.6,18.3c19.1,0,35.1-4.6,47.7-13.4v-15.3
					c0-2.7-1.1-5-3.4-6.1c-2.3-1.1-5-1.5-6.9-0.4c-11.1,5.3-23.7,8-35.9,7.6c-22.9,0-38.2-13-38.9-33.6h98.9
					C1523.6,265.5,1524,261.7,1524,257.9z M1425.1,246.8c0.4-8,4.6-14.9,11.1-19.5c6.9-5.3,15.7-8.4,24.8-8.4
					c8.4-0.4,16.4,2.7,22.5,8.4c5.7,5,9.2,11.8,9.2,19.5H1425.1z"/>
			</g>
		</g>
		<g>
			<path class="st0" d="M24,423v-0.6c0-15.2,10.2-26.5,25.1-26.5c10.3,0,19.5,4.8,21.1,16.5h-6.3c-1.5-8.3-7.1-11.5-14.7-11.5
				c-11.9,0-18.7,8.7-18.7,21.4v0.6c0,12.8,6.4,21.3,18.6,21.3c11.2,0,16.1-7.3,16.3-16.5H50.3v-5.2h21.3v3.8c0,15-9.2,23-22.5,23
				C33.1,449.3,24,438.2,24,423z"/>
			<path class="st0" d="M111.2,396.8h30.2v5.1h-23.9v17.6h19.3v5.1h-19.3v18.8h25.2v5.1h-31.6V396.8z"/>
			<path class="st0" d="M181.3,396.8h15.6c9.9,0,18.1,4.1,18.1,14.4v0.3c0,8.6-5.7,12.8-12.8,14.1l15.9,23h-7l-15.5-22.6h-8v22.6
				h-6.3V396.8z M197.3,421.1c7.4,0,11.4-3.2,11.4-9.6v-0.3c0-7-4.4-9.4-11.4-9.4h-9.7v19.2H197.3z"/>
			<path class="st0" d="M255.9,396.8h30.2v5.1h-23.9v17.6h19.3v5.1h-19.3v18.8h25.2v5.1h-31.6V396.8z"/>
			<path class="st0" d="M322.7,423v-0.6c0-15.4,10.3-26.5,24.4-26.5c10.8,0,19.9,5.7,21,17h-6.2c-1.3-7.9-5.9-12-14.7-12
				c-10.7,0-17.9,8.3-17.9,21.4v0.6c0,13.2,6.7,21.2,17.8,21.2c8.5,0,14.4-4.3,15.7-12.7h5.9c-1.8,12-10.1,17.8-21.7,17.8
				C331.9,449.3,322.7,439,322.7,423z"/>
			<path class="st0" d="M407.2,396.8h6.3v23.5h27.3v-23.5h6.3v51.9h-6.3v-23.1h-27.3v23.1h-6.3V396.8z"/>
			<path class="st0" d="M499.8,401.9h-15.1v-5.1h36.5v5.1h-15.1v46.7h-6.3V401.9z"/>
			<path class="st0" d="M554.8,432.8h6.1c0.8,6.2,3.3,11.4,13.7,11.4c6.7,0,11.8-3.9,11.8-9.8c0-5.9-2.7-8.3-12.5-9.9
				c-10.9-1.7-17.3-5.1-17.3-14.3c0-8,6.9-14.1,16.7-14.1c10.4,0,16.8,5.1,17.8,14.3h-5.7c-1.2-6.5-5-9.2-12.2-9.2
				c-7.1,0-10.8,3.6-10.8,8.4c0,5.1,1.9,7.7,12.5,9.3c11.5,1.8,17.6,5.3,17.6,15.1c0,8.7-7.6,15.3-17.9,15.3
				C560.7,449.3,555.7,441.7,554.8,432.8z"/>
			<path class="st0" d="M632.3,396.8H646c17.8,0,26.3,11,26.3,25.5v0.7c0,14.4-8.3,25.8-26.4,25.8h-13.6V396.8z M645.7,443.5
				c13.3,0,20-8,20-20.7v-0.6c0-12-5.8-20.4-20.1-20.4h-7v41.6H645.7z"/>
			<path class="st0" d="M711.8,396.8h30.2v5.1h-23.9v17.6h19.3v5.1h-19.3v18.8h25.2v5.1h-31.6V396.8z"/>
			<path class="st0" d="M781.5,429.7v-32.9h6.3V429c0,10.9,3.8,15.1,12.5,15.1c8.3,0,13.2-3.3,13.2-16v-31.3h6.3v32.1
				c0,12.6-6.3,20.4-19.7,20.4C788.2,449.3,781.5,442.3,781.5,429.7z"/>
			<path class="st0" d="M861.4,396.8H877c9.9,0,18.1,4.1,18.1,14.4v0.3c0,8.6-5.7,12.8-12.8,14.1l15.9,23h-7l-15.5-22.6h-8v22.6
				h-6.3V396.8z M877.5,421.1c7.4,0,11.4-3.2,11.4-9.6v-0.3c0-7-4.4-9.4-11.4-9.4h-9.7v19.2H877.5z"/>
			<path class="st0" d="M931.9,396.8h6.5l10.5,41.9l12.2-41.9h4.5l12.2,42l10.7-42h5.9l-13.5,51.9H975l-11.8-41l-12.1,41h-5.7
				L931.9,396.8z"/>
			<path class="st0" d="M1041.9,396.8h8.3l17.6,51.9h-6.2l-5.1-14.9H1035l-5,14.9h-5.9L1041.9,396.8z M1036.8,428.7h18l-9-26.7
				L1036.8,428.7z"/>
			<path class="st0" d="M1119.8,396.8h8.3l17.6,51.9h-6.2l-5.1-14.9h-21.4l-5,14.9h-5.9L1119.8,396.8z M1114.7,428.7h18l-9-26.7
				L1114.7,428.7z"/>
			<path class="st0" d="M1183.8,396.8h15.6c9.9,0,18.1,4.1,18.1,14.4v0.3c0,8.6-5.7,12.8-12.8,14.1l15.9,23h-7l-15.5-22.6h-8v22.6
				h-6.3V396.8z M1199.9,421.1c7.4,0,11.4-3.2,11.4-9.6v-0.3c0-7-4.4-9.4-11.4-9.4h-9.7v19.2H1199.9z"/>
			<path class="st0" d="M1258.4,396.8h13.7c17.8,0,26.3,11,26.3,25.5v0.7c0,14.4-8.3,25.8-26.4,25.8h-13.6V396.8z M1271.8,443.5
				c13.3,0,20-8,20-20.7v-0.6c0-12-5.8-20.4-20.1-20.4h-7v41.6H1271.8z"/>
			<path class="st0" d="M1337.9,396.8h30.2v5.1h-23.9v17.6h19.3v5.1h-19.3v18.8h25.2v5.1h-31.6V396.8z"/>
			<path class="st0" d="M1408,396.8h15.6c9.9,0,18.1,4.1,18.1,14.4v0.3c0,8.6-5.7,12.8-12.8,14.1l15.9,23h-7l-15.5-22.6h-8v22.6
				h-6.3V396.8z M1424,421.1c7.4,0,11.4-3.2,11.4-9.6v-0.3c0-7-4.4-9.4-11.4-9.4h-9.7v19.2H1424z"/>
			<path class="st0" d="M1478.8,432.8h6.1c0.8,6.2,3.3,11.4,13.7,11.4c6.7,0,11.8-3.9,11.8-9.8c0-5.9-2.7-8.3-12.5-9.9
				c-10.9-1.7-17.3-5.1-17.3-14.3c0-8,6.9-14.1,16.7-14.1c10.4,0,16.8,5.1,17.8,14.3h-5.7c-1.2-6.5-5-9.2-12.2-9.2
				c-7.1,0-10.8,3.6-10.8,8.4c0,5.1,1.9,7.7,12.5,9.3c11.5,1.8,17.6,5.3,17.6,15.1c0,8.7-7.6,15.3-17.9,15.3
				C1484.8,449.3,1479.7,441.7,1478.8,432.8z"/>
		</g>
	</g>
</g>
</svg>
